Inconsolable-Regular.ufo
<glyph name="exclam" format="1">
  <advance width="500"/>
  <unicode hex="0021"/>
  <outline>
    <contour>
      <point x="215" y="194" type="line"/>
      <point x="265" y="194" type="line"/>
      <point x="292" y="584" type="line"/>
      <point x="292" y="644"/>
      <point x="272" y="668"/>
      <point x="241" y="668" type="curve" smooth="yes"/>
      <point x="209" y="668"/>
      <point x="190" y="641"/>
      <point x="190" y="594" type="curve"/>
    </contour>
    <contour>
      <point x="239" y="-11" type="curve" smooth="yes"/>
      <point x="271" y="-11"/>
      <point x="299" y="16"/>
      <point x="299" y="47" type="curve" smooth="yes"/>
      <point x="299" y="79"/>
      <point x="271" y="107"/>
      <point x="239" y="107" type="curve" smooth="yes"/>
      <point x="207" y="107"/>
      <point x="180" y="79"/>
      <point x="180" y="47" type="curve" smooth="yes"/>
      <point x="180" y="15"/>
      <point x="207" y="-11"/>
    </contour>
  </outline>
</glyph>
<glyph name="numbersign" format="1">
  <advance width="500"/>
  <unicode hex="0023"/>
  <outline>
    <contour>
      <point x="270" y="10" type="line"/>
      <point x="331" y="14" type="line"/>
      <point x="353" y="196" type="line"/>
      <point x="452" y="196" type="line"/>
      <point x="457" y="241" type="line"/>
      <point x="358" y="241" type="line"/>
      <point x="379" y="410" type="line"/>
      <point x="470" y="410" type="line"/>
      <point x="476" y="457" type="line"/>
      <point x="385" y="457" type="line"/>
      <point x="405" y="623" type="line"/>
      <point x="343" y="622" type="line"/>
      <point x="323" y="455" type="line"/>
      <point x="213" y="455" type="line"/>
      <point x="234" y="626" type="line"/>
      <point x="173" y="624" type="line"/>
      <point x="153" y="453" type="line"/>
      <point x="42" y="453" type="line"/>
      <point x="39" y="407" type="line"/>
      <point x="148" y="407" type="line"/>
      <point x="128" y="236" type="line"/>
      <point x="29" y="236" type="line"/>
      <point x="25" y="191" type="line"/>
      <point x="122" y="191" type="line"/>
      <point x="101" y="13" type="line"/>
      <point x="160" y="14" type="line"/>
      <point x="181" y="193" type="line"/>
      <point x="292" y="193" type="line"/>
    </contour>
    <contour>
      <point x="187" y="238" type="line"/>
      <point x="207" y="408" type="line"/>
      <point x="318" y="408" type="line"/>
      <point x="297" y="238" type="line"/>
    </contour>
  </outline>
</glyph>
<glyph name="dollar" format="1">
  <advance width="500"/>
  <unicode hex="0024"/>
  <outline>
    <contour>
      <point x="235" y="-47" type="line"/>
      <point x="293" y="-47" type="line"/>
      <point x="293" y="16" type="line"/>
      <point x="397" y="29"/>
      <point x="460" y="106"/>
      <point x="460" y="181" type="curve" smooth="yes"/>
      <point x="460" y="264"/>
      <point x="408" y="303"/>
      <point x="293" y="340" type="curve"/>
      <point x="293" y="533" type="line"/>
      <point x="333" y="526"/>
      <point x="365" y="509"/>
      <point x="388" y="482" type="curve" smooth="yes"/>
      <point x="395" y="475"/>
      <point x="392" y="464"/>
      <point x="399" y="461" type="curve"/>
      <point x="442" y="515" type="line"/>
      <point x="405" y="559"/>
      <point x="356" y="585"/>
      <point x="293" y="592" type="curve"/>
      <point x="293" y="630" type="line"/>
      <point x="294" y="639"/>
      <point x="300" y="645"/>
      <point x="300" y="648" type="curve" smooth="yes"/>
      <point x="300" y="649"/>
      <point x="300" y="650"/>
      <point x="299" y="651" type="curve"/>
      <point x="235" y="651" type="line"/>
      <point x="235" y="591" type="line"/>
      <point x="143" y="578"/>
      <point x="79" y="519"/>
      <point x="79" y="446" type="curve" smooth="yes"/>
      <point x="79" y="373"/>
      <point x="131" y="327"/>
      <point x="235" y="292" type="curve"/>
      <point x="235" y="72" type="line"/>
      <point x="185" y="77"/>
      <point x="143" y="97"/>
      <point x="110" y="133" type="curve" smooth="yes"/>
      <point x="106" y="138"/>
      <point x="108" y="150"/>
      <point x="103" y="154" type="curve"/>
      <point x="60" y="94" type="line"/>
      <point x="105" y="46"/>
      <point x="163" y="19"/>
      <point x="235" y="14" type="curve"/>
    </contour>
    <contour>
      <point x="293" y="74" type="curve"/>
      <point x="293" y="273" type="line"/>
      <point x="365" y="250"/>
      <point x="395" y="225"/>
      <point x="395" y="177" type="curve" smooth="yes"/>
      <point x="395" y="130"/>
      <point x="357" y="86"/>
    </contour>
    <contour>
      <point x="235" y="361" type="line"/>
      <point x="175" y="385"/>
      <point x="145" y="416"/>
      <point x="145" y="454" type="curve" smooth="yes"/>
      <point x="145" y="493"/>
      <point x="175" y="527"/>
      <point x="235" y="534" type="curve"/>
    </contour>
  </outline>
</glyph>
<glyph name="percent" format="1">
  <advance width="500"/>
  <unicode hex="0025"/>
  <outline>
    <contour>
      <point x="46" y="0" type="line"/>
      <point x="100" y="0" type="line"/>
      <point x="448" y="623" type="line"/>
      <point x="391" y="623" type="line"/>
    </contour>
    <contour>
      <point x="371" y="-10" type="curve" smooth="yes"/>
      <point x="431" y="-10"/>
      <point x="482" y="46"/>
      <point x="482" y="119" type="curve" smooth="yes"/>
      <point x="482" y="191"/>
      <point x="433" y="249"/>
      <point x="371" y="249" type="curve" smooth="yes"/>
      <point x="310" y="249"/>
      <point x="259" y="192"/>
      <point x="259" y="119" type="curve" smooth="yes"/>
      <point x="259" y="46"/>
      <point x="310" y="-10"/>
    </contour>
    <contour>
      <point x="372" y="40" type="curve" smooth="yes"/>
      <point x="345" y="40"/>
      <point x="318" y="63"/>
      <point x="318" y="120" type="curve" smooth="yes"/>
      <point x="318" y="176"/>
      <point x="343" y="198"/>
      <point x="370" y="198" type="curve" smooth="yes"/>
      <point x="403" y="198"/>
      <point x="423" y="164"/>
      <point x="423" y="118" type="curve" smooth="yes"/>
      <point x="423" y="65"/>
      <point x="399" y="40"/>
    </contour>
    <contour>
      <point x="140" y="373" type="curve" smooth="yes"/>
      <point x="204" y="373"/>
      <point x="252" y="427"/>
      <point x="252" y="503" type="curve" smooth="yes"/>
      <point x="252" y="576"/>
      <point x="201" y="634"/>
      <point x="140" y="634" type="curve" smooth="yes"/>
      <point x="79" y="634"/>
      <point x="28" y="577"/>
      <point x="28" y="504" type="curve" smooth="yes"/>
      <point x="28" y="429"/>
      <point x="79" y="373"/>
    </contour>
    <contour>
      <point x="140" y="426" type="curve" smooth="yes"/>
      <point x="115" y="426"/>
      <point x="89" y="448"/>
      <point x="89" y="504" type="curve" smooth="yes"/>
      <point x="89" y="561"/>
      <point x="114" y="582"/>
      <point x="138" y="582" type="curve" smooth="yes"/>
      <point x="163" y="582"/>
      <point x="189" y="561"/>
      <point x="189" y="504" type="curve" smooth="yes"/>
      <point x="189" y="447"/>
      <point x="165" y="426"/>
    </contour>
  </outline>
</glyph>
<glyph name="ampersand" format="1">
  <advance width="500"/>
  <unicode hex="0026"/>
  <outline>
    <contour>
      <point x="416" y="-12" type="line"/>
      <point x="475" y="32" type="line"/>
      <point x="405" y="123" type="line"/>
      <point x="433" y="160"/>
      <point x="458" y="199"/>
      <point x="481" y="239" type="curve"/>
      <point x="416" y="284" type="line"/>
      <point x="413" y="281"/>
      <point x="412" y="278"/>
      <point x="412" y="274" type="curve" smooth="yes"/>
      <point x="409" y="238"/>
      <point x="401" y="214"/>
      <point x="367" y="173" type="curve"/>
      <point x="255" y="330" type="line"/>
      <point x="318" y="359"/>
      <point x="363" y="433"/>
      <point x="363" y="498" type="curve" smooth="yes"/>
      <point x="363" y="565"/>
      <point x="309" y="629"/>
      <point x="228" y="629" type="curve" smooth="yes"/>
      <point x="153" y="629"/>
      <point x="91" y="573"/>
      <point x="91" y="498" type="curve" smooth="yes"/>
      <point x="91" y="452"/>
      <point x="115" y="400"/>
      <point x="162" y="343" type="curve"/>
      <point x="86" y="300"/>
      <point x="36" y="225"/>
      <point x="36" y="141" type="curve" smooth="yes"/>
      <point x="36" y="58"/>
      <point x="101" y="-10"/>
      <point x="192" y="-10" type="curve" smooth="yes"/>
      <point x="257" y="-10"/>
      <point x="320" y="24"/>
      <point x="361" y="76" type="curve"/>
    </contour>
    <contour>
      <point x="199" y="54" type="curve" smooth="yes"/>
      <point x="152" y="54"/>
      <point x="112" y="97"/>
      <point x="112" y="152" type="curve" smooth="yes"/>
      <point x="112" y="204"/>
      <point x="144" y="263"/>
      <point x="197" y="296" type="curve"/>
      <point x="324" y="123" type="line"/>
      <point x="287" y="81"/>
      <point x="247" y="54"/>
    </contour>
    <contour>
      <point x="221" y="373" type="curve"/>
      <point x="180" y="424"/>
      <point x="160" y="465"/>
      <point x="160" y="497" type="curve" smooth="yes"/>
      <point x="160" y="541"/>
      <point x="192" y="570"/>
      <point x="229" y="570" type="curve" smooth="yes"/>
      <point x="265" y="570"/>
      <point x="297" y="536"/>
      <point x="297" y="492" type="curve" smooth="yes"/>
      <point x="297" y="448"/>
      <point x="269" y="396"/>
    </contour>
  </outline>
</glyph>
<glyph name="quotesingle" format="1">
  <advance width="500"/>
  <unicode hex="0027"/>
  <outline>
    <contour>
      <point x="210" y="665" type="line"/>
      <point x="210" y="505"/>
      <point x="217" y="493"/>
      <point x="226" y="407" type="curve"/>
      <point x="274" y="407" type="line"/>
      <point x="283" y="493"/>
      <point x="290" y="506"/>
      <point x="290" y="665" type="curve"/>
    </contour>
  </outline>
</glyph>
<glyph name="parenleft" format="1">
  <advance width="500"/>
  <unicode hex="0028"/>
  <outline>
    <contour>
      <point x="395" y="-104" type="curve"/>
      <point x="414" y="-44" type="line"/>
      <point x="279" y="27"/>
      <point x="193" y="168"/>
      <point x="193" y="317" type="curve" smooth="yes"/>
      <point x="193" y="467"/>
      <point x="279" y="603"/>
      <point x="408" y="673" type="curve"/>
      <point x="389" y="735" type="line"/>
      <point x="227" y="659"/>
      <point x="122" y="497"/>
      <point x="122" y="320" type="curve" smooth="yes"/>
      <point x="122" y="142"/>
      <point x="229" y="-27"/>
    </contour>
  </outline>
</glyph>
<glyph name="plus" format="1">
  <advance width="500"/>
  <unicode hex="002B"/>
  <outline>
    <contour>
      <point x="222" y="104" type="line"/>
      <point x="285" y="104" type="line"/>
      <point x="285" y="291" type="line"/>
      <point x="456" y="291" type="line"/>
      <point x="456" y="352" type="line"/>
      <point x="285" y="352" type="line"/>
      <point x="285" y="523" type="line"/>
      <point x="222" y="523" type="line"/>
      <point x="222" y="352" type="line"/>
      <point x="45" y="352" type="line"/>
      <point x="45" y="291" type="line"/>
      <point x="222" y="291" type="line"/>
    </contour>
  </outline>
</glyph>
<glyph name="hyphen" format="1">
  <advance width="500"/>
  <unicode hex="002D"/>
  <outline>
    <contour>
      <point x="106" y="261" type="line"/>
      <point x="386" y="301" type="line"/>
      <point x="396" y="368" type="line"/>
      <point x="116" y="328" type="line"/>
    </contour>
  </outline>
</glyph>
<glyph name="period" format="1">
  <advance width="500"/>
  <unicode hex="002E"/>
  <outline>
    <contour>
      <point x="238" y="-11" type="curve" smooth="yes"/>
      <point x="269" y="-11"/>
      <point x="295" y="15"/>
      <point x="295" y="46" type="curve" smooth="yes"/>
      <point x="295" y="77"/>
      <point x="269" y="103"/>
      <point x="238" y="103" type="curve" smooth="yes"/>
      <point x="206" y="103"/>
      <point x="180" y="77"/>
      <point x="180" y="46" type="curve" smooth="yes"/>
      <point x="180" y="15"/>
      <point x="206" y="-11"/>
    </contour>
  </outline>
</glyph>
<glyph name="slash" format="1">
  <advance width="500"/>
  <unicode hex="002F"/>
  <outline>
    <contour>
      <point x="123" y="-42" type="line"/>
      <point x="437" y="634" type="line"/>
      <point x="377" y="665" type="line"/>
      <point x="64" y="-13" type="line"/>
    </contour>
  </outline>
</glyph>
<glyph name="zero" format="1">
  <advance width="500"/>
  <unicode hex="0030"/>
  <outline>
    <contour>
      <point x="119" y="168" type="line"/>
      <point x="142" y="125" type="line"/>
      <point x="382" y="431" type="line"/>
      <point x="359" y="478" type="line"/>
    </contour>
    <contour>
      <point x="250" y="-11" type="curve"/>
      <point x="374" y="-11"/>
      <point x="443" y="104"/>
      <point x="443" y="308" type="curve" smooth="yes"/>
      <point x="443" y="505"/>
      <point x="374" y="627"/>
      <point x="250" y="627" type="curve"/>
      <point x="126" y="627"/>
      <point x="57" y="505"/>
      <point x="57" y="308" type="curve" smooth="yes"/>
      <point x="57" y="104"/>
      <point x="126" y="-11"/>
    </contour>
    <contour>
      <point x="250" y="50" type="curve"/>
      <point x="174" y="50"/>
      <point x="129" y="142"/>
      <point x="129" y="308" type="curve" smooth="yes"/>
      <point x="129" y="465"/>
      <point x="174" y="566"/>
      <point x="250" y="566" type="curve"/>
      <point x="326" y="566"/>
      <point x="371" y="465"/>
      <point x="371" y="308" type="curve" smooth="yes"/>
      <point x="371" y="142"/>
      <point x="326" y="50"/>
    </contour>
  </outline>
</glyph>
<glyph name="one" format="1">
  <advance width="500"/>
  <unicode hex="0031"/>
  <outline>
    <contour>
      <point x="230" y="0" type="line"/>
      <point x="300" y="0" type="line"/>
      <point x="300" y="624" type="line"/>
      <point x="251" y="624" type="line"/>
      <point x="88" y="539" type="line"/>
      <point x="104" y="500" type="line"/>
      <point x="230" y="537" type="line"/>
    </contour>
  </outline>
</glyph>
<glyph name="two" format="1">
  <advance width="500"/>
  <unicode hex="0032"/>
  <outline>
    <contour>
      <point x="73" y="0" type="line"/>
      <point x="439" y="0" type="line"/>
      <point x="439" y="61" type="line" name="_corner00"/>
      <point x="163" y="61" type="line"/>
      <point x="302" y="205"/>
      <point x="436" y="311"/>
      <point x="436" y="449" type="curve" smooth="yes"/>
      <point x="436" y="559"/>
      <point x="362" y="627"/>
      <point x="257" y="627" type="curve" smooth="yes"/>
      <point x="171" y="627"/>
      <point x="98" y="583"/>
      <point x="58" y="506" type="curve"/>
      <point x="109" y="466" type="line" name="_corner01"/>
      <point x="145" y="534"/>
      <point x="198" y="566"/>
      <point x="258" y="566" type="curve" smooth="yes"/>
      <point x="317" y="566"/>
      <point x="364" y="537"/>
      <point x="364" y="451" type="curve" smooth="yes"/>
      <point x="364" y="329"/>
      <point x="252" y="240"/>
      <point x="73" y="56" type="curve"/>
    </contour>
  </outline>
</glyph>
<glyph name="three" format="1">
  <advance width="500"/>
  <unicode hex="0033"/>
  <outline>
    <contour>
      <point x="240" y="-11" type="curve" smooth="yes"/>
      <point x="361" y="-11"/>
      <point x="427" y="72"/>
      <point x="427" y="171" type="curve" smooth="yes"/>
      <point x="427" y="256"/>
      <point x="378" y="307"/>
      <point x="308" y="330" type="curve"/>
      <point x="374" y="351"/>
      <point x="406" y="407"/>
      <point x="406" y="472" type="curve" smooth="yes"/>
      <point x="406" y="564"/>
      <point x="345" y="627"/>
      <point x="244" y="627" type="curve" smooth="yes"/>
      <point x="190" y="627"/>
      <point x="134" y="610"/>
      <point x="89" y="563" type="curve"/>
      <point x="131" y="521" type="line"/>
      <point x="167" y="555"/>
      <point x="205" y="567"/>
      <point x="245" y="567" type="curve" smooth="yes"/>
      <point x="298" y="567"/>
      <point x="334" y="532"/>
      <point x="334" y="475" type="curve" smooth="yes"/>
      <point x="334" y="410"/>
      <point x="309" y="352"/>
      <point x="180" y="352" type="curve"/>
      <point x="180" y="296" type="line"/>
      <point x="286" y="306"/>
      <point x="355" y="269"/>
      <point x="355" y="174" type="curve" smooth="yes"/>
      <point x="355" y="101"/>
      <point x="317" y="49"/>
      <point x="237" y="49" type="curve" smooth="yes"/>
      <point x="176" y="49"/>
      <point x="145" y="79"/>
      <point x="116" y="116" type="curve" name="_corner00"/>
      <point x="69" y="60" type="line"/>
      <point x="112" y="13"/>
      <point x="175" y="-11"/>
    </contour>
  </outline>
</glyph>
<glyph name="four" format="1">
  <advance width="500"/>
  <unicode hex="0034"/>
  <outline>
    <contour>
      <point x="318" y="0" type="line"/>
      <point x="392" y="0" type="line"/>
      <point x="392" y="152" type="line"/>
      <point x="472" y="152" type="line"/>
      <point x="472" y="211" type="line"/>
      <point x="392" y="211" type="line"/>
      <point x="392" y="624" type="line"/>
      <point x="333" y="624" type="line"/>
      <point x="48" y="204" type="line"/>
      <point x="48" y="153" type="line"/>
      <point x="318" y="153" type="line"/>
    </contour>
    <contour>
      <point x="129" y="212" type="line"/>
      <point x="318" y="498" type="line"/>
      <point x="318" y="212" type="line"/>
    </contour>
  </outline>
</glyph>
<glyph name="five" format="1">
  <advance width="500"/>
  <unicode hex="0035"/>
  <outline>
    <contour>
      <point x="249" y="-11" type="curve" smooth="yes"/>
      <point x="360" y="-11"/>
      <point x="445" y="67"/>
      <point x="445" y="196" type="curve" smooth="yes"/>
      <point x="445" y="324"/>
      <point x="365" y="405"/>
      <point x="257" y="405" type="curve" smooth="yes"/>
      <point x="222" y="405"/>
      <point x="188" y="397"/>
      <point x="155" y="381" type="curve"/>
      <point x="165" y="560" type="line"/>
      <point x="422" y="560" type="line"/>
      <point x="422" y="623" type="line"/>
      <point x="106" y="623" type="line"/>
      <point x="85" y="306" type="line"/>
      <point x="129" y="288" type="line"/>
      <point x="160" y="325"/>
      <point x="203" y="347"/>
      <point x="246" y="347" type="curve" smooth="yes"/>
      <point x="317" y="347"/>
      <point x="374" y="292"/>
      <point x="374" y="199" type="curve" smooth="yes"/>
      <point x="374" y="107"/>
      <point x="317" y="50"/>
      <point x="253" y="50" type="curve" smooth="yes"/>
      <point x="188" y="50"/>
      <point x="155" y="76"/>
      <point x="121" y="128" type="curve" name="_corner00"/>
      <point x="64" y="85" type="line"/>
      <point x="105" y="24"/>
      <point x="173" y="-11"/>
    </contour>
  </outline>
</glyph>
<glyph name="six" format="1">
  <advance width="500"/>
  <unicode hex="0036"/>
  <outline>
    <contour>
      <point x="261" y="-10" type="curve" smooth="yes"/>
      <point x="360" y="-10"/>
      <point x="439" y="74"/>
      <point x="439" y="198" type="curve" smooth="yes"/>
      <point x="439" y="321"/>
      <point x="361" y="402"/>
      <point x="268" y="402" type="curve" smooth="yes"/>
      <point x="215" y="402"/>
      <point x="164" y="374"/>
      <point x="136" y="327" type="curve"/>
      <point x="139" y="528"/>
      <point x="235" y="568"/>
      <point x="289" y="568" type="curve" smooth="yes"/>
      <point x="328" y="568"/>
      <point x="351" y="557"/>
      <point x="379" y="522" type="curve" name="_corner00"/>
      <point x="424" y="573" type="line"/>
      <point x="385" y="611"/>
      <point x="339" y="630"/>
      <point x="287" y="630" type="curve" smooth="yes"/>
      <point x="154" y="630"/>
      <point x="67" y="508"/>
      <point x="67" y="284" type="curve" smooth="yes"/>
      <point x="67" y="103"/>
      <point x="137" y="-10"/>
    </contour>
    <contour>
      <point x="264" y="52" type="curve" smooth="yes"/>
      <point x="178" y="52"/>
      <point x="129" y="166"/>
      <point x="140" y="257" type="curve"/>
      <point x="167" y="304"/>
      <point x="214" y="341"/>
      <point x="262" y="341" type="curve" smooth="yes"/>
      <point x="313" y="341"/>
      <point x="371" y="297"/>
      <point x="371" y="197" type="curve" smooth="yes"/>
      <point x="371" y="102"/>
      <point x="321" y="52"/>
    </contour>
  </outline>
</glyph>
<glyph name="seven" format="1">
  <advance width="500"/>
  <unicode hex="0037"/>
  <outline>
    <contour>
      <point x="155" y="0" type="curve"/>
      <point x="234" y="0" type="line"/>
      <point x="289" y="200"/>
      <point x="356" y="392"/>
      <point x="432" y="584" type="curve"/>
      <point x="432" y="623" type="line"/>
      <point x="79" y="623" type="line"/>
      <point x="79" y="557" type="line"/>
      <point x="345" y="557" type="line"/>
      <point x="275" y="373"/>
      <point x="213" y="191"/>
    </contour>
  </outline>
</glyph>
<glyph name="eight" format="1">
  <advance width="500"/>
  <unicode hex="0038"/>
  <outline>
    <contour>
      <point x="250" y="-10" type="curve" smooth="yes"/>
      <point x="367" y="-10"/>
      <point x="441" y="64"/>
      <point x="441" y="161" type="curve" smooth="yes"/>
      <point x="441" y="233"/>
      <point x="393" y="300"/>
      <point x="321" y="333" type="curve"/>
      <point x="381" y="365"/>
      <point x="420" y="423"/>
      <point x="420" y="483" type="curve" smooth="yes"/>
      <point x="420" y="564"/>
      <point x="370" y="631"/>
      <point x="255" y="631" type="curve" smooth="yes"/>
      <point x="145" y="631"/>
      <point x="90" y="562"/>
      <point x="90" y="477" type="curve" smooth="yes"/>
      <point x="90" y="417"/>
      <point x="128" y="360"/>
      <point x="185" y="331" type="curve"/>
      <point x="109" y="296"/>
      <point x="60" y="229"/>
      <point x="60" y="157" type="curve" smooth="yes"/>
      <point x="60" y="64"/>
      <point x="132" y="-10"/>
    </contour>
    <contour>
      <point x="252" y="53" type="curve" smooth="yes"/>
      <point x="176" y="53"/>
      <point x="132" y="104"/>
      <point x="132" y="164" type="curve" smooth="yes"/>
      <point x="132" y="224"/>
      <point x="177" y="278"/>
      <point x="237" y="303" type="curve"/>
      <point x="318" y="278"/>
      <point x="370" y="222"/>
      <point x="370" y="161" type="curve" smooth="yes"/>
      <point x="370" y="101"/>
      <point x="329" y="53"/>
    </contour>
    <contour>
      <point x="267" y="358" type="curve"/>
      <point x="205" y="391"/>
      <point x="157" y="422"/>
      <point x="157" y="484" type="curve" smooth="yes"/>
      <point x="157" y="529"/>
      <point x="187" y="572"/>
      <point x="253" y="572" type="curve" smooth="yes"/>
      <point x="319" y="572"/>
      <point x="352" y="528"/>
      <point x="352" y="481" type="curve" smooth="yes"/>
      <point x="352" y="434"/>
      <point x="316" y="385"/>
    </contour>
  </outline>
</glyph>
<glyph name="nine" format="1">
  <advance width="500"/>
  <unicode hex="0039"/>
  <outline>
    <contour>
      <point x="228" y="-10" type="curve"/>
      <point x="360" y="-7"/>
      <point x="439" y="112"/>
      <point x="439" y="363" type="curve" smooth="yes"/>
      <point x="439" y="517"/>
      <point x="364" y="627"/>
      <point x="247" y="627" type="curve" smooth="yes"/>
      <point x="148" y="627"/>
      <point x="68" y="541"/>
      <point x="68" y="424" type="curve" smooth="yes"/>
      <point x="68" y="313"/>
      <point x="146" y="236"/>
      <point x="249" y="236" type="curve" smooth="yes"/>
      <point x="317" y="236"/>
      <point x="359" y="264"/>
      <point x="397" y="307" type="curve"/>
      <point x="392" y="378" type="line"/>
      <point x="355" y="319"/>
      <point x="319" y="297"/>
      <point x="250" y="297" type="curve" smooth="yes"/>
      <point x="188" y="297"/>
      <point x="136" y="346"/>
      <point x="136" y="425" type="curve" smooth="yes"/>
      <point x="136" y="513"/>
      <point x="182" y="566"/>
      <point x="250" y="566" type="curve" smooth="yes"/>
      <point x="334" y="566"/>
      <point x="372" y="485"/>
      <point x="372" y="320" type="curve" smooth="yes"/>
      <point x="372" y="187"/>
      <point x="329" y="50"/>
      <point x="222" y="50" type="curve" smooth="yes"/>
      <point x="178" y="50"/>
      <point x="152" y="63"/>
      <point x="123" y="97" type="curve" name="_corner00"/>
      <point x="79" y="47" type="line"/>
      <point x="118" y="9"/>
      <point x="167" y="-10"/>
    </contour>
  </outline>
</glyph>
<glyph name="colon" format="1">
  <advance width="500"/>
  <unicode hex="003A"/>
  <outline>
    <contour>
      <point x="238" y="308" type="curve" smooth="yes"/>
      <point x="270" y="308"/>
      <point x="298" y="334"/>
      <point x="298" y="365" type="curve" smooth="yes"/>
      <point x="298" y="397"/>
      <point x="269" y="423"/>
      <point x="238" y="423" type="curve" smooth="yes"/>
      <point x="207" y="423"/>
      <point x="179" y="397"/>
      <point x="179" y="365" type="curve" smooth="yes"/>
      <point x="179" y="334"/>
      <point x="207" y="308"/>
    </contour>
    <contour>
      <point x="238" y="-11" type="curve" smooth="yes"/>
      <point x="271" y="-11"/>
      <point x="298" y="15"/>
      <point x="298" y="46" type="curve" smooth="yes"/>
      <point x="298" y="78"/>
      <point x="269" y="104"/>
      <point x="238" y="104" type="curve" smooth="yes"/>
      <point x="207" y="104"/>
      <point x="179" y="78"/>
      <point x="179" y="46" type="curve" smooth="yes"/>
      <point x="179" y="14"/>
      <point x="205" y="-11"/>
    </contour>
  </outline>
</glyph>
<glyph name="semicolon" format="1">
  <advance width="500"/>
  <unicode hex="003B"/>
  <outline>
    <contour>
      <point x="199" y="-168" type="line"/>
      <point x="270" y="-95"/>
      <point x="306" y="-33"/>
      <point x="306" y="20" type="curve" smooth="yes"/>
      <point x="306" y="69"/>
      <point x="273" y="103"/>
      <point x="238" y="103" type="curve" smooth="yes"/>
      <point x="203" y="103"/>
      <point x="179" y="77"/>
      <point x="179" y="44" type="curve" smooth="yes"/>
      <point x="179" y="8"/>
      <point x="230" y="-6"/>
      <point x="230" y="-33" type="curve" smooth="yes"/>
      <point x="230" y="-58"/>
      <point x="202" y="-103"/>
      <point x="165" y="-138" type="curve"/>
    </contour>
    <contour>
      <point x="238" y="308" type="curve" smooth="yes"/>
      <point x="270" y="308"/>
      <point x="298" y="334"/>
      <point x="298" y="365" type="curve" smooth="yes"/>
      <point x="298" y="397"/>
      <point x="269" y="423"/>
      <point x="238" y="423" type="curve" smooth="yes"/>
      <point x="207" y="423"/>
      <point x="179" y="397"/>
      <point x="179" y="365" type="curve" smooth="yes"/>
      <point x="179" y="334"/>
      <point x="207" y="308"/>
    </contour>
  </outline>
</glyph>
<glyph name="less" format="1">
  <advance width="500"/>
  <unicode hex="003C"/>
  <outline>
    <contour>
      <point x="461" y="47" type="line"/>
      <point x="461" y="123" type="line"/>
      <point x="111" y="319" type="line"/>
      <point x="458" y="496" type="line"/>
      <point x="458" y="567" type="line"/>
      <point x="35" y="344" type="line"/>
      <point x="35" y="296" type="line"/>
    </contour>
  </outline>
</glyph>
<glyph name="equal" format="1">
  <advance width="500"/>
  <unicode hex="003D"/>
  <outline>
    <contour>
      <point x="45" y="389" type="line"/>
      <point x="456" y="389" type="line"/>
      <point x="456" y="450" type="line"/>
      <point x="45" y="450" type="line"/>
    </contour>
    <contour>
      <point x="45" y="182" type="line"/>
      <point x="456" y="182" type="line"/>
      <point x="456" y="243" type="line"/>
      <point x="45" y="243" type="line"/>
    </contour>
  </outline>
</glyph>
<glyph name="greater" format="1">
  <advance width="500"/>
  <unicode hex="003E"/>
  <outline>
    <contour>
      <point x="40" y="47" type="line"/>
      <point x="466" y="296" type="line"/>
      <point x="466" y="344" type="line"/>
      <point x="42" y="567" type="line"/>
      <point x="42" y="496" type="line"/>
      <point x="389" y="319" type="line"/>
      <point x="40" y="123" type="line"/>
    </contour>
  </outline>
</glyph>
<glyph name="question" format="1">
  <advance width="500"/>
  <unicode hex="003F"/>
  <outline>
    <contour>
      <point x="226" y="185" type="line"/>
      <point x="292" y="185" type="line"/>
      <point x="292" y="226" type="line" smooth="yes"/>
      <point x="292" y="352"/>
      <point x="434" y="347"/>
      <point x="434" y="509" type="curve" smooth="yes"/>
      <point x="434" y="605"/>
      <point x="363" y="665"/>
      <point x="257" y="665" type="curve" smooth="yes"/>
      <point x="158" y="665"/>
      <point x="107" y="626"/>
      <point x="64" y="561" type="curve"/>
      <point x="110" y="523" type="line" name="_corner00"/>
      <point x="145" y="580"/>
      <point x="187" y="604"/>
      <point x="254" y="604" type="curve" smooth="yes"/>
      <point x="319" y="604"/>
      <point x="365" y="564"/>
      <point x="365" y="504" type="curve" smooth="yes"/>
      <point x="365" y="366"/>
      <point x="226" y="372"/>
      <point x="226" y="226" type="curve" smooth="yes"/>
    </contour>
    <component base="period" xOffset="23"/>
  </outline>
</glyph>
<glyph name="at" format="1">
  <advance width="500"/>
  <unicode hex="0040"/>
  <outline>
    <contour>
      <point x="295" y="-11" type="curve" smooth="yes"/>
      <point x="345" y="-11"/>
      <point x="392" y="3"/>
      <point x="435" y="30" type="curve"/>
      <point x="408" y="79" type="line"/>
      <point x="375" y="57"/>
      <point x="339" y="46"/>
      <point x="301" y="46" type="curve" smooth="yes"/>
      <point x="195" y="46"/>
      <point x="89" y="133"/>
      <point x="89" y="324" type="curve" smooth="yes"/>
      <point x="89" y="500"/>
      <point x="173" y="579"/>
      <point x="268" y="579" type="curve" smooth="yes"/>
      <point x="351" y="579"/>
      <point x="402" y="519"/>
      <point x="402" y="444" type="curve"/>
      <point x="251" y="454"/>
      <point x="175" y="389"/>
      <point x="175" y="299" type="curve" smooth="yes"/>
      <point x="175" y="223"/>
      <point x="232" y="167"/>
      <point x="308" y="167" type="curve" smooth="yes"/>
      <point x="347" y="167"/>
      <point x="379" y="182"/>
      <point x="405" y="213" type="curve"/>
      <point x="405" y="175" type="line"/>
      <point x="465" y="175" type="line"/>
      <point x="465" y="408" type="line" smooth="yes"/>
      <point x="465" y="558"/>
      <point x="370" y="633"/>
      <point x="271" y="633" type="curve" smooth="yes"/>
      <point x="157" y="633"/>
      <point x="31" y="534"/>
      <point x="31" y="313" type="curve" smooth="yes"/>
      <point x="31" y="90"/>
      <point x="163" y="-11"/>
    </contour>
    <contour>
      <point x="317" y="222" type="curve" smooth="yes"/>
      <point x="264" y="222"/>
      <point x="237" y="254"/>
      <point x="237" y="303" type="curve" smooth="yes"/>
      <point x="237" y="367"/>
      <point x="295" y="404"/>
      <point x="405" y="394" type="curve"/>
      <point x="405" y="266"/>
      <point x="378" y="222"/>
    </contour>
  </outline>
</glyph>
<glyph name="A" format="1">
  <advance width="500"/>
  <unicode hex="0041"/>
  <outline>
    <contour>
      <point x="357" y="182" type="line"/>
      <point x="341" y="236" type="line"/>
      <point x="145" y="236" type="line"/>
      <point x="131" y="182" type="line"/>
    </contour>
    <contour>
      <point x="249" y="474" type="line"/>
      <point x="412" y="0" type="line"/>
      <point x="484" y="0" type="line"/>
      <point x="254" y="634" type="line"/>
      <point x="246" y="634" type="line"/>
      <point x="16" y="0" type="line"/>
      <point x="85" y="0" type="line"/>
    </contour>
    <contour>
      <point x="250" y="0" type="move" name="bottom"/>
    </contour>
    <contour>
      <point x="414" y="0" type="move" name="ogonek"/>
    </contour>
    <contour>
      <point x="250" y="623" type="move" name="top"/>
    </contour>
  </outline>
</glyph>
<glyph name="B" format="1">
  <advance width="500"/>
  <unicode hex="0042"/>
  <outline>
    <contour>
      <point x="48" y="0" type="line"/>
      <point x="224" y="0" type="line" smooth="yes"/>
      <point x="385" y="0"/>
      <point x="457" y="70"/>
      <point x="457" y="175" type="curve" smooth="yes"/>
      <point x="457" y="244"/>
      <point x="410" y="310"/>
      <point x="340" y="334" type="curve"/>
      <point x="399" y="355"/>
      <point x="432" y="413"/>
      <point x="432" y="472" type="curve" smooth="yes"/>
      <point x="432" y="561"/>
      <point x="369" y="623"/>
      <point x="225" y="623" type="curve" smooth="yes"/>
      <point x="48" y="623" type="line"/>
    </contour>
    <contour>
      <point x="117" y="61" type="line"/>
      <point x="117" y="306" type="line"/>
      <point x="219" y="306" type="line"/>
      <point x="340" y="306"/>
      <point x="383" y="253"/>
      <point x="383" y="179" type="curve" smooth="yes"/>
      <point x="383" y="92"/>
      <point x="323" y="61"/>
      <point x="236" y="61" type="curve" smooth="yes"/>
    </contour>
    <contour>
      <point x="117" y="365" type="line"/>
      <point x="117" y="564" type="line"/>
      <point x="226" y="564" type="line"/>
      <point x="324" y="564"/>
      <point x="362" y="519"/>
      <point x="362" y="464" type="curve" smooth="yes"/>
      <point x="362" y="407"/>
      <point x="325" y="365"/>
      <point x="215" y="365" type="curve" smooth="yes"/>
    </contour>
    <contour>
      <point x="250" y="0" type="move" name="bottom"/>
    </contour>
    <contour>
      <point x="250" y="623" type="move" name="top"/>
    </contour>
  </outline>
</glyph>
<glyph name="C" format="1">
  <advance width="500"/>
  <unicode hex="0043"/>
  <outline>
    <contour>
      <point x="285" y="-10" type="curve" smooth="yes"/>
      <point x="366" y="-10"/>
      <point x="420" y="25"/>
      <point x="460" y="92" type="curve"/>
      <point x="408" y="126" type="line"/>
      <point x="380" y="79"/>
      <point x="332" y="50"/>
      <point x="282" y="50" type="curve" smooth="yes"/>
      <point x="186" y="50"/>
      <point x="109" y="156"/>
      <point x="109" y="313" type="curve" smooth="yes"/>
      <point x="109" y="476"/>
      <point x="174" y="572"/>
      <point x="279" y="572" type="curve" smooth="yes"/>
      <point x="326" y="572"/>
      <point x="371" y="553"/>
      <point x="408" y="477" type="curve" name="_corner00"/>
      <point x="469" y="505" type="line"/>
      <point x="437" y="579"/>
      <point x="371" y="628"/>
      <point x="281" y="628" type="curve" smooth="yes"/>
      <point x="169" y="628"/>
      <point x="41" y="553"/>
      <point x="41" y="308" type="curve"/>
      <point x="42" y="87"/>
      <point x="150" y="-10"/>
    </contour>
    <contour>
      <point x="280" y="0" type="move" name="bottom"/>
    </contour>
    <contour>
      <point x="270" y="623" type="move" name="top"/>
    </contour>
  </outline>
</glyph>
<glyph name="D" format="1">
  <advance width="500"/>
  <unicode hex="0044"/>
  <outline>
    <contour>
      <point x="54" y="-1" type="line"/>
      <point x="187" y="-1" type="line" smooth="yes"/>
      <point x="381" y="-2"/>
      <point x="452" y="117"/>
      <point x="460" y="308" type="curve"/>
      <point x="460" y="405"/>
      <point x="440" y="483"/>
      <point x="399" y="538" type="curve" smooth="yes"/>
      <point x="358" y="593"/>
      <point x="306" y="623"/>
      <point x="199" y="623" type="curve" smooth="yes"/>
      <point x="54" y="623" type="line"/>
    </contour>
    <contour>
      <point x="120" y="54" type="line"/>
      <point x="120" y="564" type="line"/>
      <point x="195" y="564" type="line"/>
      <point x="335" y="564"/>
      <point x="389" y="467"/>
      <point x="390" y="304" type="curve" smooth="yes"/>
      <point x="390" y="143"/>
      <point x="327" y="54"/>
      <point x="184" y="54" type="curve" smooth="yes"/>
    </contour>
    <contour>
      <point x="250" y="0" type="move" name="bottom"/>
    </contour>
    <contour>
      <point x="250" y="312" type="move" name="center"/>
    </contour>
    <contour>
      <point x="220" y="623" type="move" name="top"/>
    </contour>
  </outline>
</glyph>
<glyph name="E" format="1">
  <advance width="500"/>
  <unicode hex="0045"/>
  <outline>
    <contour>
      <point x="59" y="0" type="line"/>
      <point x="438" y="0" type="line"/>
      <point x="438" y="62" type="line"/>
      <point x="125" y="62" type="line"/>
      <point x="125" y="293" type="line"/>
      <point x="386" y="293" type="line"/>
      <point x="386" y="357" type="line"/>
      <point x="125" y="357" type="line"/>
      <point x="125" y="562" type="line"/>
      <point x="441" y="562" type="line"/>
      <point x="441" y="624" type="line"/>
      <point x="59" y="624" type="line"/>
    </contour>
    <contour>
      <point x="250" y="0" type="move" name="bottom"/>
    </contour>
    <contour>
      <point x="450" y="10" type="move" name="ogonek"/>
    </contour>
    <contour>
      <point x="270" y="623" type="move" name="top"/>
    </contour>
    <contour>
      <point x="20" y="623" type="move" name="topleft"/>
    </contour>
  </outline>
</glyph>
<glyph name="F" format="1">
  <advance width="500"/>
  <unicode hex="0046"/>
  <outline>
    <contour>
      <point x="78" y="0" type="line"/>
      <point x="148" y="0" type="line"/>
      <point x="148" y="306" type="line"/>
      <point x="381" y="306" type="line"/>
      <point x="381" y="367" type="line"/>
      <point x="148" y="367" type="line"/>
      <point x="148" y="563" type="line"/>
      <point x="437" y="563" type="line"/>
      <point x="437" y="624" type="line"/>
      <point x="78" y="624" type="line"/>
    </contour>
    <contour>
      <point x="250" y="0" type="move" name="bottom"/>
    </contour>
    <contour>
      <point x="250" y="623" type="move" name="top"/>
    </contour>
  </outline>
</glyph>
<glyph name="G" format="1">
  <advance width="500"/>
  <unicode hex="0047"/>
  <outline>
    <contour>
      <point x="277" y="-10" type="curve" smooth="yes"/>
      <point x="340" y="-10"/>
      <point x="401" y="12"/>
      <point x="460" y="55" type="curve"/>
      <point x="460" y="299" type="line"/>
      <point x="282" y="299" type="line"/>
      <point x="282" y="238" type="line"/>
      <point x="395" y="238" type="line"/>
      <point x="395" y="90" type="line"/>
      <point x="363" y="63"/>
      <point x="313" y="52"/>
      <point x="277" y="52" type="curve" smooth="yes"/>
      <point x="171" y="52"/>
      <point x="105" y="146"/>
      <point x="105" y="319" type="curve" smooth="yes"/>
      <point x="105" y="510"/>
      <point x="183" y="568"/>
      <point x="273" y="568" type="curve" smooth="yes"/>
      <point x="333" y="568"/>
      <point x="365" y="542"/>
      <point x="408" y="485" type="curve" name="_corner00"/>
      <point x="458" y="525" type="line"/>
      <point x="423" y="588"/>
      <point x="348" y="629"/>
      <point x="274" y="630" type="curve" smooth="yes"/>
      <point x="183" y="631"/>
      <point x="33" y="573"/>
      <point x="36" y="304" type="curve"/>
      <point x="36" y="115"/>
      <point x="128" y="-10"/>
    </contour>
    <contour>
      <point x="266" y="0" type="move" name="bottom"/>
    </contour>
    <contour>
      <point x="274" y="623" type="move" name="top"/>
    </contour>
  </outline>
</glyph>
<glyph name="H" format="1">
  <advance width="500"/>
  <unicode hex="0048"/>
  <outline>
    <contour>
      <point x="50" y="0" type="line"/>
      <point x="123" y="0" type="line"/>
      <point x="123" y="297" type="line"/>
      <point x="366" y="297" type="line"/>
      <point x="366" y="0" type="line"/>
      <point x="440" y="0" type="line"/>
      <point x="440" y="623" type="line" name="_corner01"/>
      <point x="367" y="623" type="line"/>
      <point x="367" y="357" type="line"/>
      <point x="123" y="357" type="line"/>
      <point x="123" y="623" type="line" name="_corner00"/>
      <point x="50" y="623" type="line"/>
    </contour>
    <contour>
      <point x="250" y="0" type="move" name="bottom"/>
    </contour>
    <contour>
      <point x="250" y="312" type="move" name="center"/>
    </contour>
    <contour>
      <point x="250" y="623" type="move" name="top"/>
    </contour>
    <contour>
      <point x="20" y="623" type="move" name="topleft"/>
    </contour>
  </outline>
</glyph>
<glyph name="I" format="1">
  <advance width="500"/>
  <unicode hex="0049"/>
  <outline>
    <contour>
      <point x="81" y="0" type="line"/>
      <point x="403" y="0" type="line"/>
      <point x="403" y="58" type="line"/>
      <point x="274" y="58" type="line"/>
      <point x="274" y="564" type="line"/>
      <point x="397" y="564" type="line"/>
      <point x="397" y="623" type="line"/>
      <point x="88" y="623" type="line"/>
      <point x="88" y="564" type="line"/>
      <point x="204" y="564" type="line"/>
      <point x="204" y="59" type="line"/>
      <point x="81" y="59" type="line"/>
    </contour>
    <contour>
      <point x="250" y="0" type="move" name="bottom"/>
    </contour>
    <contour>
      <point x="353" y="0" type="move" name="ogonek"/>
    </contour>
    <contour>
      <point x="239" y="623" type="move" name="top"/>
    </contour>
    <contour>
      <point x="20" y="623" type="move" name="topleft"/>
    </contour>
  </outline>
</glyph>
<glyph name="J" format="1">
  <advance width="500"/>
  <unicode hex="004A"/>
  <outline>
    <contour>
      <point x="196" y="-11" type="curve" smooth="yes"/>
      <point x="283" y="-12"/>
      <point x="366" y="49"/>
      <point x="361" y="209" type="curve"/>
      <point x="361" y="564" type="line"/>
      <point x="457" y="564" type="line"/>
      <point x="457" y="623" type="line"/>
      <point x="172" y="623" type="line"/>
      <point x="172" y="564" type="line"/>
      <point x="292" y="564" type="line"/>
      <point x="292" y="208" type="line" smooth="yes"/>
      <point x="292" y="92"/>
      <point x="263" y="51"/>
      <point x="196" y="51" type="curve" smooth="yes"/>
      <point x="154" y="51"/>
      <point x="125" y="70"/>
      <point x="90" y="109" type="curve" name="_corner00"/>
      <point x="49" y="58" type="line"/>
      <point x="88" y="12"/>
      <point x="137" y="-11"/>
    </contour>
    <contour>
      <point x="250" y="0" type="move" name="bottom"/>
    </contour>
    <contour>
      <point x="330" y="338" type="move" name="center"/>
    </contour>
    <contour>
      <point x="330" y="623" type="move" name="top"/>
    </contour>
  </outline>
</glyph>
<glyph name="K" format="1">
  <advance width="500"/>
  <unicode hex="004B"/>
  <outline>
    <contour>
      <point x="381" y="-4" type="line"/>
      <point x="471" y="0" type="line"/>
      <point x="219" y="354" type="line"/>
      <point x="455" y="623" type="line"/>
      <point x="429" y="623" type="line" smooth="yes"/>
      <point x="409" y="623"/>
      <point x="392" y="625"/>
      <point x="377" y="628" type="curve"/>
      <point x="117" y="336" type="line"/>
      <point x="117" y="623" type="line" name="_corner00"/>
      <point x="42" y="623" type="line"/>
      <point x="42" y="0" type="line"/>
      <point x="117" y="0" type="line"/>
      <point x="117" y="258" type="line"/>
      <point x="166" y="312" type="line"/>
    </contour>
  </outline>
</glyph>
<glyph name="L" format="1">
  <advance width="500"/>
  <unicode hex="004C"/>
  <outline>
    <contour>
      <point x="66" y="0" type="line"/>
      <point x="439" y="0" type="line"/>
      <point x="439" y="60" type="line"/>
      <point x="139" y="60" type="line"/>
      <point x="139" y="623" type="line" name="_corner00"/>
      <point x="66" y="623" type="line"/>
    </contour>
    <contour>
      <point x="250" y="0" type="move" name="bottom"/>
    </contour>
    <contour>
      <point x="107" y="312" type="move" name="center"/>
    </contour>
    <contour>
      <point x="200" y="623" type="move" name="top"/>
    </contour>
    <contour>
      <point x="180" y="457" type="move" name="topright"/>
    </contour>
  </outline>
</glyph>
<glyph name="M" format="1">
  <advance width="500"/>
  <unicode hex="004D"/>
  <outline>
    <contour>
      <point x="41" y="0" type="line"/>
      <point x="106" y="0" type="line"/>
      <point x="106" y="467" type="line"/>
      <point x="232" y="219" type="line"/>
      <point x="259" y="219" type="line"/>
      <point x="394" y="470" type="line"/>
      <point x="394" y="0" type="line"/>
      <point x="460" y="0" type="line"/>
      <point x="460" y="624" type="line"/>
      <point x="407" y="624" type="line"/>
      <point x="250" y="318" type="line"/>
      <point x="96" y="623" type="line"/>
      <point x="41" y="623" type="line"/>
    </contour>
    <contour>
      <point x="250" y="0" type="move" name="bottom"/>
    </contour>
    <contour>
      <point x="250" y="623" type="move" name="top"/>
    </contour>
  </outline>
</glyph>
<glyph name="N" format="1">
  <advance width="500"/>
  <unicode hex="004E"/>
  <outline>
    <contour>
      <point x="50" y="0" type="line"/>
      <point x="117" y="0" type="line"/>
      <point x="117" y="490" type="line"/>
      <point x="392" y="0" type="line"/>
      <point x="447" y="0" type="line"/>
      <point x="447" y="623" type="line" name="_corner00"/>
      <point x="380" y="623" type="line"/>
      <point x="380" y="161" type="line"/>
      <point x="118" y="623" type="line"/>
      <point x="50" y="623" type="line"/>
    </contour>
    <contour>
      <point x="250" y="0" type="move" name="bottom"/>
    </contour>
    <contour>
      <point x="250" y="623" type="move" name="top"/>
    </contour>
  </outline>
</glyph>
<glyph name="O" format="1">
  <advance width="500"/>
  <unicode hex="004F"/>
  <outline>
    <contour>
      <point x="250" y="-11" type="curve"/>
      <point x="393" y="-11"/>
      <point x="473" y="104"/>
      <point x="473" y="308" type="curve" smooth="yes"/>
      <point x="473" y="505"/>
      <point x="393" y="627"/>
      <point x="250" y="627" type="curve"/>
      <point x="107" y="627"/>
      <point x="27" y="505"/>
      <point x="27" y="308" type="curve" smooth="yes"/>
      <point x="27" y="104"/>
      <point x="107" y="-11"/>
    </contour>
    <contour>
      <point x="250" y="50" type="curve"/>
      <point x="155" y="50"/>
      <point x="99" y="142"/>
      <point x="99" y="308" type="curve" smooth="yes"/>
      <point x="99" y="465"/>
      <point x="155" y="566"/>
      <point x="250" y="566" type="curve"/>
      <point x="345" y="566"/>
      <point x="401" y="465"/>
      <point x="401" y="308" type="curve" smooth="yes"/>
      <point x="401" y="142"/>
      <point x="345" y="50"/>
    </contour>
    <contour>
      <point x="250" y="0" type="move" name="bottom"/>
    </contour>
    <contour>
      <point x="250" y="312" type="move" name="center"/>
    </contour>
    <contour>
      <point x="287" y="10" type="move" name="ogonek"/>
    </contour>
    <contour>
      <point x="250" y="623" type="move" name="top"/>
    </contour>
    <contour>
      <point x="20" y="623" type="move" name="topleft"/>
    </contour>
    <contour>
      <point x="379" y="584" type="move" name="topright"/>
    </contour>
  </outline>
</glyph>
<glyph name="P" format="1">
  <advance width="500"/>
  <unicode hex="0050"/>
  <outline>
    <contour>
      <point x="59" y="0" type="line"/>
      <point x="131" y="0" type="line"/>
      <point x="131" y="275" type="line"/>
      <point x="264" y="275" type="line" smooth="yes"/>
      <point x="399" y="275"/>
      <point x="456" y="351"/>
      <point x="456" y="447" type="curve" smooth="yes"/>
      <point x="456" y="544"/>
      <point x="398" y="623"/>
      <point x="259" y="623" type="curve" smooth="yes"/>
      <point x="59" y="623" type="line"/>
    </contour>
    <contour>
      <point x="131" y="337" type="line"/>
      <point x="131" y="557" type="line"/>
      <point x="257" y="557" type="line"/>
      <point x="346" y="557"/>
      <point x="384" y="506"/>
      <point x="384" y="445" type="curve" smooth="yes"/>
      <point x="384" y="380"/>
      <point x="347" y="337"/>
      <point x="256" y="337" type="curve" smooth="yes"/>
    </contour>
    <contour>
      <point x="93" y="0" type="move" name="bottom"/>
    </contour>
    <contour>
      <point x="250" y="623" type="move" name="top"/>
    </contour>
  </outline>
</glyph>
<glyph name="Q" format="1">
  <advance width="500"/>
  <unicode hex="0051"/>
  <outline>
    <contour>
      <point x="401" y="-145" type="curve"/>
      <point x="440" y="-145" type="line"/>
      <point x="442" y="-77" type="line"/>
      <point x="361" y="-82" type="line"/>
      <point x="305" y="-82"/>
      <point x="290" y="-51"/>
      <point x="287" y="-7" type="curve"/>
      <point x="408" y="20"/>
      <point x="471" y="127"/>
      <point x="471" y="311" type="curve"/>
      <point x="476" y="536"/>
      <point x="364" y="630"/>
      <point x="251" y="630" type="curve" smooth="yes"/>
      <point x="158" y="630"/>
      <point x="29" y="557"/>
      <point x="29" y="308" type="curve" smooth="yes"/>
      <point x="29" y="107"/>
      <point x="126" y="6"/>
      <point x="226" y="-7" type="curve"/>
      <point x="226" y="-110"/>
      <point x="270" y="-151"/>
    </contour>
    <contour>
      <point x="256" y="55" type="curve" smooth="yes"/>
      <point x="156" y="55"/>
      <point x="97" y="165"/>
      <point x="97" y="323" type="curve" smooth="yes"/>
      <point x="97" y="450"/>
      <point x="146" y="569"/>
      <point x="251" y="569" type="curve" smooth="yes"/>
      <point x="314" y="569"/>
      <point x="404" y="517"/>
      <point x="404" y="294" type="curve" smooth="yes"/>
      <point x="404" y="118"/>
      <point x="324" y="55"/>
    </contour>
    <contour>
      <point x="250" y="0" type="move" name="bottom"/>
    </contour>
    <contour>
      <point x="250" y="623" type="move" name="top"/>
    </contour>
  </outline>
</glyph>
<glyph name="R" format="1">
  <advance width="500"/>
  <unicode hex="0052"/>
  <outline>
    <contour>
      <point x="56" y="0" type="line"/>
      <point x="127" y="0" type="line"/>
      <point x="127" y="275" type="line"/>
      <point x="248" y="275" type="line"/>
      <point x="386" y="0" type="line"/>
      <point x="464" y="0" type="line"/>
      <point x="320" y="278" type="line"/>
      <point x="397" y="297"/>
      <point x="447" y="374"/>
      <point x="447" y="445" type="curve" smooth="yes"/>
      <point x="447" y="552"/>
      <point x="387" y="623"/>
      <point x="240" y="623" type="curve" smooth="yes"/>
      <point x="56" y="623" type="line"/>
    </contour>
    <contour>
      <point x="127" y="337" type="line"/>
      <point x="127" y="557" type="line"/>
      <point x="248" y="557" type="line"/>
      <point x="337" y="557"/>
      <point x="375" y="507"/>
      <point x="375" y="445" type="curve" smooth="yes"/>
      <point x="375" y="380"/>
      <point x="337" y="337"/>
      <point x="248" y="337" type="curve" smooth="yes"/>
    </contour>
    <contour>
      <point x="250" y="0" type="move" name="bottom"/>
    </contour>
    <contour>
      <point x="250" y="623" type="move" name="top"/>
    </contour>
  </outline>
</glyph>
<glyph name="S" format="1">
  <advance width="500"/>
  <unicode hex="0053"/>
  <outline>
    <contour>
      <point x="247" y="-10" type="curve" smooth="yes"/>
      <point x="393" y="-10"/>
      <point x="455" y="84"/>
      <point x="455" y="170" type="curve" smooth="yes"/>
      <point x="455" y="247"/>
      <point x="420" y="294"/>
      <point x="298" y="344" type="curve"/>
      <point x="172" y="394"/>
      <point x="144" y="426"/>
      <point x="144" y="482" type="curve" smooth="yes"/>
      <point x="144" y="531"/>
      <point x="185" y="573"/>
      <point x="251" y="573" type="curve" smooth="yes"/>
      <point x="315" y="573"/>
      <point x="354" y="555"/>
      <point x="395" y="500" type="curve" name="_corner00"/>
      <point x="435" y="553" type="line"/>
      <point x="392" y="602"/>
      <point x="330" y="631"/>
      <point x="262" y="631" type="curve" smooth="yes"/>
      <point x="144" y="631"/>
      <point x="72" y="569"/>
      <point x="72" y="477" type="curve" smooth="yes"/>
      <point x="72" y="406"/>
      <point x="113" y="342"/>
      <point x="243" y="292" type="curve"/>
      <point x="360" y="241"/>
      <point x="386" y="217"/>
      <point x="386" y="160" type="curve" smooth="yes"/>
      <point x="386" y="101"/>
      <point x="331" y="53"/>
      <point x="257" y="53" type="curve" smooth="yes"/>
      <point x="178" y="53"/>
      <point x="122" y="87"/>
      <point x="88" y="133" type="curve" name="_corner01"/>
      <point x="52" y="69" type="line"/>
      <point x="101" y="17"/>
      <point x="166" y="-10"/>
    </contour>
    <contour>
      <point x="247" y="0" type="move" name="bottom"/>
    </contour>
    <contour>
      <point x="261" y="623" type="move" name="top"/>
    </contour>
  </outline>
</glyph>
<glyph name="T" format="1">
  <advance width="500"/>
  <unicode hex="0054"/>
  <outline>
    <contour>
      <point x="208" y="0" type="line"/>
      <point x="279" y="0" type="line"/>
      <point x="279" y="561" type="line"/>
      <point x="463" y="561" type="line"/>
      <point x="463" y="624" type="line"/>
      <point x="31" y="624" type="line"/>
      <point x="31" y="561" type="line"/>
      <point x="208" y="561" type="line"/>
    </contour>
    <contour>
      <point x="250" y="0" type="move" name="bottom"/>
    </contour>
    <contour>
      <point x="244" y="312" type="move" name="center"/>
    </contour>
    <contour>
      <point x="250" y="623" type="move" name="top"/>
    </contour>
  </outline>
</glyph>
<glyph name="U" format="1">
  <advance width="500"/>
  <unicode hex="0055"/>
  <outline>
    <contour>
      <point x="251" y="-11" type="curve" smooth="yes"/>
      <point x="374" y="-11"/>
      <point x="454" y="60"/>
      <point x="454" y="218" type="curve" smooth="yes"/>
      <point x="454" y="623" type="line"/>
      <point x="387" y="623" type="line"/>
      <point x="387" y="217" type="line" smooth="yes"/>
      <point x="387" y="112"/>
      <point x="352" y="48"/>
      <point x="252" y="48" type="curve" smooth="yes"/>
      <point x="153" y="48"/>
      <point x="119" y="113"/>
      <point x="119" y="214" type="curve" smooth="yes"/>
      <point x="119" y="623" type="line" name="_corner00"/>
      <point x="50" y="623" type="line"/>
      <point x="50" y="215" type="line" smooth="yes"/>
      <point x="50" y="72"/>
      <point x="118" y="-11"/>
    </contour>
    <contour>
      <point x="250" y="0" type="move" name="bottom"/>
    </contour>
    <contour>
      <point x="302" y="10" type="move" name="ogonek"/>
    </contour>
    <contour>
      <point x="250" y="623" type="move" name="top"/>
    </contour>
    <contour>
      <point x="454" y="623" type="move" name="topright"/>
    </contour>
  </outline>
</glyph>
<glyph name="V" format="1">
  <advance width="500"/>
  <unicode hex="0056"/>
  <outline>
    <contour>
      <point x="237" y="-4" type="line"/>
      <point x="269" y="-4" type="line"/>
      <point x="478" y="623" type="line"/>
      <point x="409" y="623" type="line"/>
      <point x="258" y="145" type="line"/>
      <point x="98" y="624" type="line"/>
      <point x="25" y="624" type="line"/>
    </contour>
    <contour>
      <point x="250" y="0" type="move" name="bottom"/>
    </contour>
    <contour>
      <point x="250" y="623" type="move" name="top"/>
    </contour>
  </outline>
</glyph>
<glyph name="W" format="1">
  <advance width="500"/>
  <unicode hex="0057"/>
  <outline>
    <contour>
      <point x="117" y="0" type="line"/>
      <point x="146" y="0" type="line"/>
      <point x="255" y="407" type="line"/>
      <point x="362" y="0" type="line"/>
      <point x="389" y="0" type="line"/>
      <point x="488" y="623" type="line"/>
      <point x="429" y="623" type="line"/>
      <point x="372" y="200" type="line"/>
      <point x="271" y="577" type="line"/>
      <point x="249" y="577" type="line"/>
      <point x="149" y="202" type="line"/>
      <point x="82" y="623" type="line"/>
      <point x="17" y="623" type="line"/>
    </contour>
    <contour>
      <point x="254" y="0" type="move" name="bottom"/>
    </contour>
    <contour>
      <point x="260" y="623" type="move" name="top"/>
    </contour>
  </outline>
</glyph>
<glyph name="X" format="1">
  <advance width="500"/>
  <unicode hex="0058"/>
  <outline>
    <contour>
      <point x="41" y="0" type="line"/>
      <point x="117" y="0" type="line"/>
      <point x="251" y="247" type="line"/>
      <point x="389" y="0" type="line"/>
      <point x="468" y="0" type="line"/>
      <point x="291" y="319" type="line"/>
      <point x="449" y="624" type="line"/>
      <point x="379" y="624" type="line"/>
      <point x="250" y="387" type="line"/>
      <point x="119" y="624" type="line"/>
      <point x="44" y="624" type="line"/>
      <point x="211" y="318" type="line"/>
    </contour>
    <contour>
      <point x="250" y="0" type="move" name="bottom"/>
    </contour>
    <contour>
      <point x="250" y="623" type="move" name="top"/>
    </contour>
  </outline>
</glyph>
<glyph name="Y" format="1">
  <advance width="500"/>
  <unicode hex="0059"/>
  <outline>
    <contour>
      <point x="220" y="0" type="line"/>
      <point x="296" y="0" type="line"/>
      <point x="296" y="246" type="line"/>
      <point x="473" y="623" type="line"/>
      <point x="399" y="623" type="line"/>
      <point x="261" y="321" type="line"/>
      <point x="108" y="623" type="line"/>
      <point x="28" y="623" type="line"/>
      <point x="220" y="246" type="line"/>
    </contour>
    <contour>
      <point x="258" y="0" type="move" name="bottom"/>
    </contour>
    <contour>
      <point x="250" y="623" type="move" name="top"/>
    </contour>
    <contour>
      <point x="28" y="623" type="move" name="topleft"/>
    </contour>
  </outline>
</glyph>
<glyph name="Z" format="1">
  <advance width="500"/>
  <unicode hex="005A"/>
  <outline>
    <contour>
      <point x="50" y="0" type="line"/>
      <point x="463" y="0" type="line"/>
      <point x="463" y="62" type="line" name="_corner00"/>
      <point x="138" y="62" type="line"/>
      <point x="447" y="574" type="line"/>
      <point x="447" y="623" type="line"/>
      <point x="62" y="623" type="line"/>
      <point x="62" y="560" type="line"/>
      <point x="364" y="560" type="line"/>
      <point x="50" y="49" type="line"/>
    </contour>
    <contour>
      <point x="270" y="0" type="move" name="bottom"/>
    </contour>
    <contour>
      <point x="260" y="623" type="move" name="top"/>
    </contour>
  </outline>
</glyph>
<glyph name="bracketleft" format="1">
  <advance width="500"/>
  <unicode hex="005B"/>
  <outline>
    <contour>
      <point x="131" y="-89" type="line"/>
      <point x="418" y="-89" type="line"/>
      <point x="418" y="-32" type="line"/>
      <point x="195" y="-32" type="line"/>
      <point x="195" y="610" type="line"/>
      <point x="417" y="610" type="line"/>
      <point x="417" y="670" type="line"/>
      <point x="131" y="670" type="line"/>
    </contour>
  </outline>
</glyph>
<glyph name="backslash" format="1">
  <advance width="500"/>
  <unicode hex="005C"/>
  <outline>
    <contour>
      <point x="378" y="-42" type="line"/>
      <point x="437" y="-13" type="line"/>
      <point x="123" y="665" type="line"/>
      <point x="64" y="634" type="line"/>
    </contour>
  </outline>
</glyph>
<glyph name="asciicircum" format="1">
  <advance width="500"/>
  <unicode hex="005E"/>
  <outline>
    <contour>
      <point x="143" y="343" type="line"/>
      <point x="253" y="518" type="line"/>
      <point x="350" y="343" type="line"/>
      <point x="403" y="368" type="line"/>
      <point x="268" y="623" type="line"/>
      <point x="246" y="623" type="line"/>
      <point x="93" y="367" type="line"/>
    </contour>
  </outline>
</glyph>
<glyph name="underscore" format="1">
  <advance width="500"/>
  <unicode hex="005F"/>
  <outline>
    <contour>
      <point x="35" y="-80" type="line"/>
      <point x="466" y="-80" type="line"/>
      <point x="466" y="-19" type="line"/>
      <point x="35" y="-19" type="line"/>
    </contour>
  </outline>
</glyph>
<glyph name="a" format="1">
  <advance width="500"/>
  <unicode hex="0061"/>
  <outline>
    <contour>
      <point x="211" y="-11" type="curve" smooth="yes"/>
      <point x="264" y="-11"/>
      <point x="332" y="3"/>
      <point x="367" y="70" type="curve"/>
      <point x="367" y="0" type="line"/>
      <point x="445" y="0" type="line"/>
      <point x="445" y="243" type="line" smooth="yes"/>
      <point x="445" y="415"/>
      <point x="365" y="467"/>
      <point x="244" y="467" type="curve" smooth="yes"/>
      <point x="181" y="467"/>
      <point x="124" y="446"/>
      <point x="81" y="403" type="curve"/>
      <point x="116" y="357" type="line"/>
      <point x="151" y="391"/>
      <point x="195" y="408"/>
      <point x="239" y="408" type="curve" smooth="yes"/>
      <point x="336" y="408"/>
      <point x="383" y="367"/>
      <point x="383" y="232" type="curve" smooth="yes"/>
      <point x="383" y="111"/>
      <point x="322" y="44"/>
      <point x="218" y="44" type="curve" smooth="yes"/>
      <point x="163" y="44"/>
      <point x="121" y="62"/>
      <point x="121" y="119" type="curve" smooth="yes"/>
      <point x="121" y="190"/>
      <point x="189" y="220"/>
      <point x="285" y="220" type="curve" smooth="yes"/>
      <point x="318" y="220"/>
      <point x="357" y="217"/>
      <point x="393" y="212" type="curve"/>
      <point x="391" y="267" type="line"/>
      <point x="349" y="273"/>
      <point x="312" y="274"/>
      <point x="279" y="274" type="curve" smooth="yes"/>
      <point x="153" y="274"/>
      <point x="49" y="213"/>
      <point x="49" y="115" type="curve" smooth="yes"/>
      <point x="49" y="41"/>
      <point x="107" y="-11"/>
    </contour>
    <contour>
      <point x="250" y="0" type="move" name="bottom"/>
    </contour>
    <contour>
      <point x="385" y="0" type="move" name="ogonek"/>
    </contour>
    <contour>
      <point x="250" y="457" type="move" name="top"/>
    </contour>
  </outline>
</glyph>
<glyph name="b" format="1">
  <advance width="500"/>
  <unicode hex="0062"/>
  <outline>
    <contour>
      <point x="266" y="-11" type="curve" smooth="yes"/>
      <point x="361" y="-11"/>
      <point x="457" y="69"/>
      <point x="457" y="233" type="curve" smooth="yes"/>
      <point x="457" y="390"/>
      <point x="380" y="468"/>
      <point x="269" y="468" type="curve" smooth="yes"/>
      <point x="217" y="468"/>
      <point x="162" y="436"/>
      <point x="133" y="387" type="curve"/>
      <point x="133" y="665" type="line" name="_corner00"/>
      <point x="60" y="665" type="line"/>
      <point x="60" y="0" type="line"/>
      <point x="106" y="0" type="line"/>
      <point x="131" y="60" type="line"/>
      <point x="162" y="16"/>
      <point x="210" y="-11"/>
    </contour>
    <contour>
      <point x="257" y="53" type="curve" smooth="yes"/>
      <point x="167" y="53"/>
      <point x="133" y="122"/>
      <point x="133" y="227" type="curve" smooth="yes"/>
      <point x="133" y="333"/>
      <point x="185" y="406"/>
      <point x="259" y="406" type="curve" smooth="yes"/>
      <point x="332" y="406"/>
      <point x="383" y="350"/>
      <point x="383" y="229" type="curve" smooth="yes"/>
      <point x="383" y="98" name="_corner00"/>
      <point x="321" y="53"/>
    </contour>
    <contour>
      <point x="250" y="0" type="move" name="bottom"/>
    </contour>
    <contour>
      <point x="250" y="457" type="move" name="top"/>
    </contour>
  </outline>
</glyph>
<glyph name="c" format="1">
  <advance width="500"/>
  <unicode hex="0063"/>
  <outline>
    <contour>
      <point x="285" y="-11" type="curve" smooth="yes"/>
      <point x="349" y="-11"/>
      <point x="405" y="13"/>
      <point x="450" y="61" type="curve"/>
      <point x="408" y="110" type="line"/>
      <point x="375" y="73"/>
      <point x="335" y="54"/>
      <point x="289" y="54" type="curve" smooth="yes"/>
      <point x="197" y="54"/>
      <point x="130" y="130"/>
      <point x="130" y="233" type="curve" smooth="yes"/>
      <point x="130" y="338"/>
      <point x="199" y="405"/>
      <point x="276" y="405" type="curve" smooth="yes"/>
      <point x="335" y="405"/>
      <point x="372" y="387"/>
      <point x="411" y="336" type="curve" name="_corner00"/>
      <point x="457" y="381" type="line"/>
      <point x="420" y="434"/>
      <point x="358" y="466"/>
      <point x="284" y="466" type="curve" smooth="yes"/>
      <point x="152" y="466"/>
      <point x="56" y="365"/>
      <point x="56" y="228" type="curve" smooth="yes"/>
      <point x="56" y="90"/>
      <point x="152" y="-11"/>
    </contour>
    <contour>
      <point x="286" y="0" type="move" name="bottom"/>
    </contour>
    <contour>
      <point x="286" y="457" type="move" name="top"/>
    </contour>
  </outline>
</glyph>
<glyph name="d" format="1">
  <advance width="500"/>
  <unicode hex="0064"/>
  <outline>
    <contour>
      <point x="234" y="-10" type="curve" smooth="yes"/>
      <point x="293" y="-10"/>
      <point x="339" y="22"/>
      <point x="368" y="71" type="curve"/>
      <point x="368" y="47"/>
      <point x="368" y="24"/>
      <point x="378" y="0" type="curve"/>
      <point x="449" y="0" type="line"/>
      <point x="439" y="24"/>
      <point x="439" y="47"/>
      <point x="439" y="71" type="curve"/>
      <point x="438" y="665" type="line" name="_corner00"/>
      <point x="371" y="665" type="line"/>
      <point x="371" y="390" type="line"/>
      <point x="348" y="438"/>
      <point x="301" y="469"/>
      <point x="238" y="469" type="curve" smooth="yes"/>
      <point x="145" y="469"/>
      <point x="45" y="400"/>
      <point x="45" y="233" type="curve" smooth="yes"/>
      <point x="45" y="69"/>
      <point x="141" y="-10"/>
    </contour>
    <contour>
      <point x="245" y="53" type="curve" smooth="yes"/>
      <point x="160" y="53"/>
      <point x="115" y="129"/>
      <point x="115" y="244" type="curve" smooth="yes"/>
      <point x="115" y="345"/>
      <point x="158" y="410"/>
      <point x="239" y="410" type="curve" smooth="yes"/>
      <point x="327" y="410"/>
      <point x="365" y="333"/>
      <point x="365" y="231" type="curve" smooth="yes"/>
      <point x="365" y="132"/>
      <point x="333" y="53" name="_corner00"/>
    </contour>
    <contour>
      <point x="250" y="0" type="move" name="bottom"/>
    </contour>
    <contour>
      <point x="360" y="549" type="move" name="center"/>
    </contour>
    <contour>
      <point x="250" y="457" type="move" name="top"/>
    </contour>
    <contour>
      <point x="470" y="457" type="move" name="topright"/>
    </contour>
  </outline>
</glyph>
<glyph name="e" format="1">
  <advance width="500"/>
  <unicode hex="0065"/>
  <outline>
    <contour>
      <point x="272" y="-10" type="curve" smooth="yes"/>
      <point x="340" y="-10"/>
      <point x="393" y="13"/>
      <point x="432" y="60" type="curve"/>
      <point x="392" y="99" type="line"/>
      <point x="361" y="65"/>
      <point x="321" y="48"/>
      <point x="274" y="48" type="curve" smooth="yes"/>
      <point x="192" y="48"/>
      <point x="123" y="100"/>
      <point x="118" y="218" type="curve"/>
      <point x="443" y="218" type="line"/>
      <point x="444" y="229"/>
      <point x="445" y="240"/>
      <point x="445" y="251" type="curve" smooth="yes"/>
      <point x="445" y="400"/>
      <point x="363" y="468"/>
      <point x="259" y="468" type="curve" smooth="yes"/>
      <point x="143" y="468"/>
      <point x="49" y="382"/>
      <point x="49" y="227" type="curve" smooth="yes"/>
      <point x="49" y="74"/>
      <point x="138" y="-10"/>
    </contour>
    <contour>
      <point x="121" y="274" type="line"/>
      <point x="134" y="370"/>
      <point x="191" y="413"/>
      <point x="254" y="413" type="curve" smooth="yes"/>
      <point x="325" y="413"/>
      <point x="372" y="359"/>
      <point x="372" y="274" type="curve"/>
    </contour>
    <contour>
      <point x="280" y="0" type="move" name="bottom"/>
    </contour>
    <contour>
      <point x="318" y="10" type="move" name="ogonek"/>
    </contour>
    <contour>
      <point x="260" y="457" type="move" name="top"/>
    </contour>
  </outline>
</glyph>
<glyph name="f" format="1">
  <advance width="500"/>
  <unicode hex="0066"/>
  <outline>
    <contour>
      <point x="162" y="0" type="line"/>
      <point x="231" y="0" type="line"/>
      <point x="231" y="400" type="line"/>
      <point x="381" y="400" type="line"/>
      <point x="381" y="457" type="line"/>
      <point x="231" y="457" type="line"/>
      <point x="231" y="495" type="line" smooth="yes"/>
      <point x="231" y="582"/>
      <point x="274" y="613"/>
      <point x="332" y="613" type="curve" smooth="yes"/>
      <point x="381" y="613"/>
      <point x="399" y="597"/>
      <point x="434" y="554" type="curve" name="_corner00"/>
      <point x="473" y="608" type="line"/>
      <point x="440" y="650"/>
      <point x="387" y="671"/>
      <point x="330" y="671" type="curve" smooth="yes"/>
      <point x="232" y="671"/>
      <point x="162" y="617"/>
      <point x="162" y="495" type="curve" smooth="yes"/>
      <point x="162" y="457" type="line"/>
      <point x="63" y="457" type="line"/>
      <point x="63" y="400" type="line"/>
      <point x="162" y="400" type="line"/>
    </contour>
  </outline>
</glyph>
<glyph name="g" format="1">
  <advance width="500"/>
  <unicode hex="0067"/>
  <outline>
    <contour>
      <point x="247" y="-172" type="curve" smooth="yes"/>
      <point x="393" y="-172"/>
      <point x="445" y="-105"/>
      <point x="445" y="-34" type="curve" smooth="yes"/>
      <point x="445" y="33"/>
      <point x="417" y="82"/>
      <point x="277" y="82" type="curve" smooth="yes"/>
      <point x="170" y="82"/>
      <point x="137" y="95"/>
      <point x="137" y="127" type="curve" smooth="yes"/>
      <point x="137" y="144"/>
      <point x="144" y="157"/>
      <point x="164" y="179" type="curve"/>
      <point x="130" y="206" type="line"/>
      <point x="97" y="176"/>
      <point x="76" y="144"/>
      <point x="76" y="110" type="curve" smooth="yes"/>
      <point x="76" y="44"/>
      <point x="145" y="19"/>
      <point x="262" y="19" type="curve" smooth="yes"/>
      <point x="363" y="19"/>
      <point x="379" y="-1"/>
      <point x="379" y="-45" type="curve" smooth="yes"/>
      <point x="379" y="-88"/>
      <point x="339" y="-118"/>
      <point x="248" y="-118" type="curve" smooth="yes"/>
      <point x="158" y="-118"/>
      <point x="104" y="-92"/>
      <point x="104" y="-46" type="curve" smooth="yes"/>
      <point x="104" y="-5"/>
      <point x="118" y="14"/>
      <point x="154" y="36" type="curve"/>
      <point x="124" y="54" type="line"/>
      <point x="78" y="40"/>
      <point x="38" y="2"/>
      <point x="38" y="-54" type="curve" smooth="yes"/>
      <point x="38" y="-133"/>
      <point x="119" y="-172"/>
    </contour>
    <contour>
      <point x="226" y="155" type="curve" smooth="yes"/>
      <point x="325" y="155"/>
      <point x="386" y="226"/>
      <point x="386" y="315" type="curve" smooth="yes"/>
      <point x="386" y="403"/>
      <point x="325" y="474"/>
      <point x="226" y="474" type="curve" smooth="yes"/>
      <point x="127" y="474"/>
      <point x="66" y="403"/>
      <point x="66" y="315" type="curve" smooth="yes"/>
      <point x="66" y="226"/>
      <point x="127" y="155"/>
    </contour>
    <contour>
      <point x="226" y="215" type="curve" smooth="yes"/>
      <point x="168" y="215"/>
      <point x="126" y="260"/>
      <point x="126" y="315" type="curve" smooth="yes"/>
      <point x="126" y="370"/>
      <point x="168" y="415"/>
      <point x="226" y="415" type="curve" smooth="yes"/>
      <point x="284" y="415"/>
      <point x="326" y="370"/>
      <point x="326" y="315" type="curve" smooth="yes"/>
      <point x="326" y="260"/>
      <point x="284" y="215"/>
    </contour>
    <contour>
      <point x="359" y="383" type="line"/>
      <point x="392" y="409"/>
      <point x="431" y="414"/>
      <point x="475" y="410" type="curve"/>
      <point x="466" y="469" type="line"/>
      <point x="408" y="473"/>
      <point x="370" y="455"/>
      <point x="331" y="416" type="curve"/>
    </contour>
    <contour>
      <point x="240" y="-162" type="move" name="bottom"/>
    </contour>
    <contour>
      <point x="226" y="457" type="move" name="top"/>
    </contour>
  </outline>
</glyph>
<glyph name="h" format="1">
  <advance width="500"/>
  <unicode hex="0068"/>
  <outline>
    <contour>
      <point x="73" y="0" type="line"/>
      <point x="143" y="0" type="line"/>
      <point x="143" y="263" type="line" smooth="yes"/>
      <point x="143" y="352"/>
      <point x="217" y="405"/>
      <point x="278" y="405" type="curve" smooth="yes"/>
      <point x="325" y="405"/>
      <point x="362" y="371"/>
      <point x="362" y="275" type="curve" smooth="yes"/>
      <point x="362" y="0" type="line"/>
      <point x="432" y="0" type="line"/>
      <point x="432" y="277" type="line" smooth="yes"/>
      <point x="432" y="415"/>
      <point x="375" y="468"/>
      <point x="293" y="468" type="curve" smooth="yes"/>
      <point x="237" y="468"/>
      <point x="179" y="432"/>
      <point x="143" y="376" type="curve"/>
      <point x="143" y="665" type="line" name="_corner00"/>
      <point x="73" y="665" type="line"/>
    </contour>
    <contour>
      <point x="250" y="0" type="move" name="bottom"/>
    </contour>
    <contour>
      <point x="130" y="549" type="move" name="center"/>
    </contour>
    <contour>
      <point x="118" y="665" type="move" name="top"/>
    </contour>
  </outline>
</glyph>
<glyph name="k" format="1">
  <advance width="500"/>
  <unicode hex="006B"/>
  <outline>
    <contour>
      <point x="386" y="-4" type="line"/>
      <point x="479" y="0" type="line"/>
      <point x="255" y="273" type="line"/>
      <point x="447" y="454" type="line"/>
      <point x="421" y="454" type="line" smooth="yes"/>
      <point x="401" y="454"/>
      <point x="383" y="456"/>
      <point x="368" y="459" type="curve"/>
      <point x="139" y="247" type="line"/>
      <point x="139" y="665" type="line" name="_corner00"/>
      <point x="66" y="665" type="line"/>
      <point x="66" y="0" type="line"/>
      <point x="139" y="0" type="line"/>
      <point x="139" y="173" type="line"/>
      <point x="199" y="229" type="line"/>
    </contour>
    <contour>
      <point x="250" y="0" type="move" name="bottom"/>
    </contour>
    <contour>
      <point x="104" y="665" type="move" name="top"/>
    </contour>
  </outline>
</glyph>
<glyph name="l" format="1">
  <advance width="500"/>
  <unicode hex="006C"/>
  <outline>
    <contour>
      <point x="79" y="0" type="line"/>
      <point x="421" y="0" type="line"/>
      <point x="421" y="58" type="line"/>
      <point x="287" y="58" type="line"/>
      <point x="287" y="665" type="line"/>
      <point x="85" y="665" type="line"/>
      <point x="85" y="607" type="line"/>
      <point x="214" y="607" type="line"/>
      <point x="214" y="58" type="line"/>
      <point x="79" y="58" type="line"/>
    </contour>
    <contour>
      <point x="250" y="0" type="move" name="bottom"/>
    </contour>
    <contour>
      <point x="250" y="229" type="move" name="center"/>
    </contour>
    <contour>
      <point x="250" y="665" type="move" name="top"/>
    </contour>
    <contour>
      <point x="480" y="457" type="move" name="topright"/>
    </contour>
  </outline>
</glyph>
<glyph name="m" format="1">
  <advance width="500"/>
  <unicode hex="006D"/>
  <outline>
    <contour>
      <point x="38" y="0" type="line"/>
      <point x="104" y="0" type="line"/>
      <point x="104" y="305" type="line" smooth="yes"/>
      <point x="104" y="373"/>
      <point x="141" y="413"/>
      <point x="170" y="413" type="curve" smooth="yes"/>
      <point x="208" y="413"/>
      <point x="220" y="394"/>
      <point x="220" y="318" type="curve" smooth="yes"/>
      <point x="220" y="0" type="line"/>
      <point x="287" y="0" type="line"/>
      <point x="287" y="302" type="line" smooth="yes"/>
      <point x="287" y="354"/>
      <point x="322" y="415"/>
      <point x="360" y="415" type="curve" smooth="yes"/>
      <point x="384" y="415"/>
      <point x="403" y="407"/>
      <point x="403" y="324" type="curve" smooth="yes"/>
      <point x="403" y="0" type="line"/>
      <point x="469" y="0" type="line"/>
      <point x="469" y="351" type="line"/>
      <point x="472" y="418"/>
      <point x="443" y="468"/>
      <point x="381" y="468" type="curve" smooth="yes"/>
      <point x="336" y="468"/>
      <point x="295" y="441"/>
      <point x="278" y="401" type="curve"/>
      <point x="270" y="440"/>
      <point x="237" y="468"/>
      <point x="197" y="468" type="curve" smooth="yes"/>
      <point x="161" y="468"/>
      <point x="125" y="445"/>
      <point x="104" y="412" type="curve"/>
      <point x="104" y="457" type="line"/>
      <point x="38" y="457" type="line"/>
    </contour>
    <contour>
      <point x="250" y="0" type="move" name="bottom"/>
    </contour>
    <contour>
      <point x="250" y="457" type="move" name="top"/>
    </contour>
  </outline>
</glyph>
<glyph name="n" format="1">
  <advance width="500"/>
  <unicode hex="006E"/>
  <outline>
    <contour>
      <point x="72" y="0" type="line"/>
      <point x="142" y="0" type="line"/>
      <point x="142" y="263" type="line" smooth="yes"/>
      <point x="142" y="350"/>
      <point x="216" y="405"/>
      <point x="277" y="405" type="curve" smooth="yes"/>
      <point x="324" y="405"/>
      <point x="361" y="371"/>
      <point x="361" y="275" type="curve" smooth="yes"/>
      <point x="361" y="0" type="line"/>
      <point x="431" y="0" type="line"/>
      <point x="431" y="277" type="line" smooth="yes"/>
      <point x="431" y="415"/>
      <point x="372" y="468"/>
      <point x="297" y="468" type="curve" smooth="yes"/>
      <point x="235" y="468"/>
      <point x="177" y="432"/>
      <point x="142" y="376" type="curve"/>
      <point x="142" y="457" type="line"/>
      <point x="72" y="457" type="line"/>
    </contour>
    <contour>
      <point x="260" y="0" type="move" name="bottom"/>
    </contour>
    <contour>
      <point x="265" y="457" type="move" name="top"/>
    </contour>
  </outline>
</glyph>
<glyph name="o" format="1">
  <advance width="500"/>
  <unicode hex="006F"/>
  <outline>
    <contour>
      <point x="250" y="-8" type="curve"/>
      <point x="374" y="-8"/>
      <point x="461" y="90"/>
      <point x="461" y="229" type="curve" smooth="yes"/>
      <point x="461" y="368"/>
      <point x="374" y="467"/>
      <point x="250" y="467" type="curve"/>
      <point x="126" y="467"/>
      <point x="39" y="368"/>
      <point x="39" y="229" type="curve" smooth="yes"/>
      <point x="39" y="90"/>
      <point x="126" y="-8"/>
    </contour>
    <contour>
      <point x="250" y="52" type="curve"/>
      <point x="171" y="52"/>
      <point x="115" y="126"/>
      <point x="115" y="230" type="curve" smooth="yes"/>
      <point x="115" y="334"/>
      <point x="171" y="407"/>
      <point x="250" y="407" type="curve"/>
      <point x="329" y="407"/>
      <point x="385" y="334"/>
      <point x="385" y="230" type="curve" smooth="yes"/>
      <point x="385" y="126"/>
      <point x="329" y="52"/>
    </contour>
    <contour>
      <point x="250" y="0" type="move" name="bottom"/>
    </contour>
    <contour>
      <point x="250" y="229" type="move" name="center"/>
    </contour>
    <contour>
      <point x="286" y="10" type="move" name="ogonek"/>
    </contour>
    <contour>
      <point x="250" y="457" type="move" name="top"/>
    </contour>
    <contour>
      <point x="359" y="436" type="move" name="topright"/>
    </contour>
  </outline>
</glyph>
<glyph name="p" format="1">
  <advance width="500"/>
  <unicode hex="0070"/>
  <outline>
    <contour>
      <point x="60" y="-167" type="line"/>
      <point x="134" y="-167" type="line"/>
      <point x="134" y="60" type="line"/>
      <point x="165" y="15"/>
      <point x="215" y="-12"/>
      <point x="270" y="-12" type="curve" smooth="yes"/>
      <point x="367" y="-12"/>
      <point x="463" y="71"/>
      <point x="463" y="232" type="curve" smooth="yes"/>
      <point x="463" y="391"/>
      <point x="373" y="467"/>
      <point x="272" y="467" type="curve" smooth="yes"/>
      <point x="208" y="467"/>
      <point x="154" y="436"/>
      <point x="133" y="367" type="curve"/>
      <point x="133" y="457" type="line"/>
      <point x="60" y="457" type="line"/>
    </contour>
    <contour>
      <point x="258" y="52" type="curve" smooth="yes"/>
      <point x="184" y="52"/>
      <point x="136" y="105"/>
      <point x="133" y="213" type="curve"/>
      <point x="133" y="355"/>
      <point x="195" y="409"/>
      <point x="269" y="405" type="curve" smooth="yes"/>
      <point x="345" y="401"/>
      <point x="388" y="338"/>
      <point x="388" y="229" type="curve" smooth="yes"/>
      <point x="388" y="92"/>
      <point x="322" y="52"/>
    </contour>
    <contour>
      <point x="134" y="-167" type="move" name="bottom"/>
    </contour>
    <contour>
      <point x="169" y="-82" type="move" name="center"/>
    </contour>
    <contour>
      <point x="270" y="457" type="move" name="top"/>
    </contour>
  </outline>
</glyph>
<glyph name="q" format="1">
  <advance width="500"/>
  <unicode hex="0071"/>
  <outline>
    <contour>
      <point x="370" y="-167" type="line"/>
      <point x="442" y="-167" type="line"/>
      <point x="442" y="457" type="line"/>
      <point x="374" y="457" type="line"/>
      <point x="374" y="390" type="line"/>
      <point x="351" y="439"/>
      <point x="307" y="469"/>
      <point x="243" y="469" type="curve" smooth="yes"/>
      <point x="134" y="469"/>
      <point x="42" y="381"/>
      <point x="42" y="230" type="curve" smooth="yes"/>
      <point x="42" y="87"/>
      <point x="125" y="-10"/>
      <point x="230" y="-10" type="curve" smooth="yes"/>
      <point x="290" y="-10"/>
      <point x="342" y="22"/>
      <point x="370" y="73" type="curve"/>
    </contour>
    <contour>
      <point x="243" y="53" type="curve" smooth="yes"/>
      <point x="165" y="53"/>
      <point x="115" y="122"/>
      <point x="115" y="233" type="curve" smooth="yes"/>
      <point x="115" y="355"/>
      <point x="175" y="410"/>
      <point x="251" y="410" type="curve" smooth="yes"/>
      <point x="319" y="410"/>
      <point x="368" y="366"/>
      <point x="368" y="241" type="curve" smooth="yes"/>
      <point x="368" y="107"/>
      <point x="312" y="53"/>
    </contour>
  </outline>
</glyph>
<glyph name="r" format="1">
  <advance width="500"/>
  <unicode hex="0072"/>
  <outline>
    <contour>
      <point x="119" y="-1" type="line"/>
      <point x="192" y="-1" type="line"/>
      <point x="192" y="242" type="line" smooth="yes"/>
      <point x="192" y="357"/>
      <point x="265" y="406"/>
      <point x="332" y="406" type="curve" smooth="yes"/>
      <point x="366" y="406"/>
      <point x="387" y="397"/>
      <point x="426" y="361" type="curve" name="_corner00"/>
      <point x="458" y="418" type="line"/>
      <point x="426" y="451"/>
      <point x="385" y="468"/>
      <point x="337" y="468" type="curve" smooth="yes"/>
      <point x="266" y="468"/>
      <point x="198" y="422"/>
      <point x="182" y="339" type="curve"/>
      <point x="191" y="324" type="line"/>
      <point x="194" y="457" type="line"/>
      <point x="119" y="457" type="line"/>
    </contour>
    <contour>
      <point x="270" y="0" type="move" name="bottom"/>
    </contour>
    <contour>
      <point x="290" y="457" type="move" name="top"/>
    </contour>
  </outline>
</glyph>
<glyph name="s" format="1">
  <advance width="500"/>
  <unicode hex="0073"/>
  <outline>
    <contour>
      <point x="251" y="-10" type="curve" smooth="yes"/>
      <point x="379" y="-10"/>
      <point x="440" y="56"/>
      <point x="440" y="133" type="curve" smooth="yes"/>
      <point x="440" y="198"/>
      <point x="397" y="234"/>
      <point x="283" y="269" type="curve" smooth="yes"/>
      <point x="179" y="299"/>
      <point x="154" y="326"/>
      <point x="154" y="357" type="curve" smooth="yes"/>
      <point x="154" y="395"/>
      <point x="198" y="414"/>
      <point x="252" y="414" type="curve" smooth="yes"/>
      <point x="302" y="414"/>
      <point x="361" y="390"/>
      <point x="390" y="345" type="curve" name="_corner00"/>
      <point x="432" y="396" type="line"/>
      <point x="387" y="444"/>
      <point x="335" y="468"/>
      <point x="250" y="468" type="curve" smooth="yes"/>
      <point x="139" y="468"/>
      <point x="82" y="422"/>
      <point x="82" y="353" type="curve" smooth="yes"/>
      <point x="82" y="285"/>
      <point x="149" y="241"/>
      <point x="254" y="211" type="curve" smooth="yes"/>
      <point x="339" y="183"/>
      <point x="369" y="162"/>
      <point x="369" y="123" type="curve" smooth="yes"/>
      <point x="369" y="78"/>
      <point x="326" y="50"/>
      <point x="253" y="50" type="curve" smooth="yes"/>
      <point x="168" y="50"/>
      <point x="133" y="87"/>
      <point x="98" y="131" type="curve" name="_corner01"/>
      <point x="57" y="62" type="line"/>
      <point x="109" y="14"/>
      <point x="175" y="-10"/>
    </contour>
  </outline>
</glyph>
<glyph name="t" format="1">
  <advance width="500"/>
  <unicode hex="0074"/>
  <outline>
    <contour>
      <point x="299" y="-7" type="curve" smooth="yes"/>
      <point x="351" y="-7"/>
      <point x="398" y="8"/>
      <point x="444" y="42" type="curve"/>
      <point x="422" y="99" type="line"/>
      <point x="385" y="72"/>
      <point x="354" y="53"/>
      <point x="310" y="53" type="curve" smooth="yes"/>
      <point x="253" y="53"/>
      <point x="234" y="84"/>
      <point x="234" y="243" type="curve" smooth="yes"/>
      <point x="234" y="407" type="line"/>
      <point x="231" y="407" type="line"/>
      <point x="243" y="592" type="line" name="_corner00"/>
      <point x="162" y="579" type="line"/>
      <point x="162" y="248" type="line" smooth="yes"/>
      <point x="162" y="72"/>
      <point x="181" y="-7"/>
    </contour>
    <contour>
      <point x="60" y="398" type="line"/>
      <point x="389" y="398" type="line"/>
      <point x="389" y="457" type="line"/>
      <point x="60" y="457" type="line"/>
    </contour>
    <contour>
      <point x="250" y="0" type="move" name="bottom"/>
    </contour>
    <contour>
      <point x="213" y="312" type="move" name="center"/>
    </contour>
    <contour>
      <point x="241" y="587" type="move" name="top"/>
    </contour>
    <contour>
      <point x="310" y="457" type="move" name="topright"/>
    </contour>
  </outline>
</glyph>
<glyph name="u" format="1">
  <advance width="500"/>
  <unicode hex="0075"/>
  <outline>
    <contour>
      <point x="221" y="-11" type="curve" smooth="yes"/>
      <point x="281" y="-11"/>
      <point x="334" y="19"/>
      <point x="363" y="70" type="curve"/>
      <point x="363" y="47"/>
      <point x="363" y="23"/>
      <point x="373" y="0" type="curve"/>
      <point x="442" y="0" type="line"/>
      <point x="432" y="24"/>
      <point x="432" y="47"/>
      <point x="432" y="71" type="curve"/>
      <point x="432" y="457" type="line"/>
      <point x="362" y="457" type="line"/>
      <point x="362" y="205" type="line" smooth="yes"/>
      <point x="362" y="96"/>
      <point x="303" y="47"/>
      <point x="239" y="47" type="curve" smooth="yes"/>
      <point x="182" y="47"/>
      <point x="135" y="86"/>
      <point x="135" y="202" type="curve" smooth="yes"/>
      <point x="135" y="457" type="line"/>
      <point x="65" y="457" type="line"/>
      <point x="64" y="202" type="line" smooth="yes"/>
      <point x="63" y="54"/>
      <point x="130" y="-11"/>
    </contour>
    <contour>
      <point x="231" y="0" type="move" name="bottom"/>
    </contour>
    <contour>
      <point x="392" y="0" type="move" name="ogonek"/>
    </contour>
    <contour>
      <point x="250" y="457" type="move" name="top"/>
    </contour>
    <contour>
      <point x="432" y="457" type="move" name="topright"/>
    </contour>
  </outline>
</glyph>
<glyph name="v" format="1">
  <advance width="500"/>
  <unicode hex="0076"/>
  <outline>
    <contour>
      <point x="221" y="0" type="line"/>
      <point x="277" y="0" type="line"/>
      <point x="388" y="257" type="line" smooth="yes"/>
      <point x="421" y="334"/>
      <point x="444" y="401"/>
      <point x="455" y="457" type="curve"/>
      <point x="387" y="457" type="line"/>
      <point x="378" y="404"/>
      <point x="359" y="341"/>
      <point x="327" y="268" type="curve" smooth="yes"/>
      <point x="246" y="82" type="line"/>
      <point x="260" y="82" type="line"/>
      <point x="112" y="457" type="line"/>
      <point x="40" y="457" type="line"/>
    </contour>
    <contour>
      <point x="250" y="0" type="move" name="bottom"/>
    </contour>
    <contour>
      <point x="250" y="457" type="move" name="top"/>
    </contour>
  </outline>
</glyph>
<glyph name="w" format="1">
  <advance width="500"/>
  <unicode hex="0077"/>
  <outline>
    <contour>
      <point x="108" y="-1" type="line"/>
      <point x="173" y="-1" type="line"/>
      <point x="253" y="295" type="line"/>
      <point x="337" y="-1" type="line"/>
      <point x="405" y="-1" type="line"/>
      <point x="436" y="151"/>
      <point x="461" y="302"/>
      <point x="481" y="457" type="curve"/>
      <point x="414" y="457" type="line"/>
      <point x="414" y="442" type="line" smooth="yes"/>
      <point x="414" y="376"/>
      <point x="407" y="327"/>
      <point x="372" y="91" type="curve"/>
      <point x="275" y="414" type="line"/>
      <point x="231" y="414" type="line"/>
      <point x="153" y="90" type="line"/>
      <point x="79" y="457" type="line"/>
      <point x="16" y="457" type="line"/>
    </contour>
    <contour>
      <point x="250" y="0" type="move" name="bottom"/>
    </contour>
    <contour>
      <point x="250" y="457" type="move" name="top"/>
    </contour>
  </outline>
</glyph>
<glyph name="x" format="1">
  <advance width="500"/>
  <unicode hex="0078"/>
  <outline>
    <contour>
      <point x="47" y="0" type="line"/>
      <point x="129" y="0" type="line"/>
      <point x="248" y="178" type="line"/>
      <point x="374" y="0" type="line"/>
      <point x="456" y="0" type="line"/>
      <point x="288" y="235" type="line"/>
      <point x="436" y="457" type="line"/>
      <point x="362" y="457" type="line"/>
      <point x="248" y="288" type="line"/>
      <point x="129" y="457" type="line"/>
      <point x="50" y="457" type="line"/>
      <point x="208" y="232" type="line"/>
    </contour>
    <contour>
      <point x="250" y="0" type="move" name="bottom"/>
    </contour>
    <contour>
      <point x="250" y="457" type="move" name="top"/>
    </contour>
  </outline>
</glyph>
<glyph name="y" format="1">
  <advance width="500"/>
  <unicode hex="0079"/>
  <outline>
    <contour>
      <point x="127" y="-174" type="curve" smooth="yes"/>
      <point x="192" y="-174"/>
      <point x="243" y="-141"/>
      <point x="275" y="-52" type="curve"/>
      <point x="389" y="270" type="line" smooth="yes"/>
      <point x="411" y="332"/>
      <point x="434" y="395"/>
      <point x="443" y="457" type="curve"/>
      <point x="371" y="457" type="line"/>
      <point x="364" y="396"/>
      <point x="343" y="336"/>
      <point x="323" y="275" type="curve" smooth="yes"/>
      <point x="236" y="6" type="line" smooth="yes"/>
      <point x="209" y="-76"/>
      <point x="185" y="-115"/>
      <point x="131" y="-115" type="curve" smooth="yes"/>
      <point x="98" y="-115"/>
      <point x="75" y="-105"/>
      <point x="54" y="-85" type="curve" name="_corner00"/>
      <point x="22" y="-135" type="line"/>
      <point x="49" y="-161"/>
      <point x="84" y="-174"/>
    </contour>
    <contour>
      <point x="237" y="-13" type="line"/>
      <point x="269" y="76" type="line"/>
      <point x="121" y="457" type="line"/>
      <point x="46" y="457" type="line"/>
    </contour>
    <contour>
      <point x="370" y="0" type="move" name="bottom"/>
    </contour>
    <contour>
      <point x="253" y="457" type="move" name="top"/>
    </contour>
  </outline>
</glyph>
<glyph name="z" format="1">
  <advance width="500"/>
  <unicode hex="007A"/>
  <outline>
    <contour>
      <point x="50" y="0" type="line"/>
      <point x="450" y="0" type="line"/>
      <point x="450" y="62" type="line" name="_corner00"/>
      <point x="148" y="62" type="line"/>
      <point x="426" y="408" type="line"/>
      <point x="426" y="457" type="line"/>
      <point x="71" y="457" type="line"/>
      <point x="71" y="394" type="line"/>
      <point x="333" y="394" type="line"/>
      <point x="50" y="49" type="line"/>
    </contour>
    <contour>
      <point x="250" y="0" type="move" name="bottom"/>
    </contour>
    <contour>
      <point x="250" y="457" type="move" name="top"/>
    </contour>
  </outline>
</glyph>
<glyph name="braceleft" format="1">
  <advance width="500"/>
  <unicode hex="007B"/>
  <outline>
    <contour>
      <point x="371" y="-95" type="curve" smooth="yes"/>
      <point x="407" y="-95" type="line"/>
      <point x="407" y="-39" type="line"/>
      <point x="356" y="-39" type="line" smooth="yes"/>
      <point x="267" y="-39"/>
      <point x="230" y="-10"/>
      <point x="230" y="81" type="curve"/>
      <point x="233" y="165" type="line"/>
      <point x="233" y="250"/>
      <point x="205" y="301"/>
      <point x="148" y="320" type="curve"/>
      <point x="206" y="345"/>
      <point x="235" y="394"/>
      <point x="235" y="468" type="curve"/>
      <point x="233" y="538" type="line"/>
      <point x="233" y="609"/>
      <point x="264" y="644"/>
      <point x="326" y="644" type="curve" smooth="yes"/>
      <point x="408" y="644" type="line"/>
      <point x="408" y="701" type="line"/>
      <point x="345" y="701" type="line" smooth="yes"/>
      <point x="224" y="701"/>
      <point x="163" y="643"/>
      <point x="163" y="527" type="curve"/>
      <point x="165" y="455" type="line"/>
      <point x="165" y="379"/>
      <point x="133" y="348"/>
      <point x="72" y="348" type="curve" smooth="yes"/>
      <point x="53" y="348" type="line"/>
      <point x="53" y="292" type="line"/>
      <point x="73" y="292" type="line" smooth="yes"/>
      <point x="130" y="292"/>
      <point x="163" y="268"/>
      <point x="163" y="180" type="curve"/>
      <point x="159" y="80" type="line" smooth="yes"/>
      <point x="153" y="-60"/>
      <point x="227" y="-95"/>
    </contour>
  </outline>
</glyph>
<glyph name="bar" format="1">
  <advance width="500"/>
  <unicode hex="007C"/>
  <outline>
    <contour>
      <point x="217" y="-151" type="line"/>
      <point x="284" y="-151" type="line"/>
      <point x="284" y="652" type="line"/>
      <point x="217" y="652" type="line"/>
    </contour>
  </outline>
</glyph>
<glyph name="asciitilde" format="1">
  <advance width="500"/>
  <unicode hex="007E"/>
  <outline>
    <contour>
      <point x="348" y="266" type="curve" smooth="yes"/>
      <point x="397" y="266"/>
      <point x="426" y="285"/>
      <point x="461" y="341" type="curve"/>
      <point x="415" y="369" type="line"/>
      <point x="389" y="332"/>
      <point x="373" y="321"/>
      <point x="344" y="321" type="curve" smooth="yes"/>
      <point x="289" y="321"/>
      <point x="262" y="375"/>
      <point x="194" y="375" type="curve" smooth="yes"/>
      <point x="132" y="375"/>
      <point x="92" y="340"/>
      <point x="71" y="295" type="curve"/>
      <point x="120" y="273" type="line"/>
      <point x="142" y="309"/>
      <point x="165" y="320"/>
      <point x="196" y="320" type="curve" smooth="yes"/>
      <point x="248" y="320"/>
      <point x="279" y="266"/>
    </contour>
  </outline>
</glyph>
<glyph name="sterling" format="1">
  <advance width="500"/>
  <unicode hex="00A3"/>
  <outline>
    <contour>
      <point x="65" y="-8" type="line"/>
      <point x="112" y="17"/>
      <point x="151" y="30"/>
      <point x="180" y="30" type="curve" smooth="yes"/>
      <point x="235" y="30"/>
      <point x="329" y="-15"/>
      <point x="366" y="-15" type="curve" smooth="yes"/>
      <point x="400" y="-15"/>
      <point x="435" y="-1"/>
      <point x="470" y="27" type="curve"/>
      <point x="444" y="79" type="line"/>
      <point x="421" y="60"/>
      <point x="398" y="51"/>
      <point x="373" y="51" type="curve" smooth="yes"/>
      <point x="314" y="51"/>
      <point x="251" y="98"/>
      <point x="178" y="90" type="curve"/>
      <point x="202" y="129"/>
      <point x="214" y="173"/>
      <point x="214" y="224" type="curve" smooth="yes"/>
      <point x="214" y="251"/>
      <point x="210" y="284"/>
      <point x="201" y="321" type="curve"/>
      <point x="317" y="321" type="line"/>
      <point x="317" y="378" type="line"/>
      <point x="187" y="378" type="line"/>
      <point x="182" y="405"/>
      <point x="179" y="426"/>
      <point x="179" y="443" type="curve" smooth="yes"/>
      <point x="179" y="519"/>
      <point x="215" y="566"/>
      <point x="270" y="566" type="curve" smooth="yes"/>
      <point x="330" y="566"/>
      <point x="351" y="544"/>
      <point x="374" y="517" type="curve"/>
      <point x="418" y="572" type="line"/>
      <point x="381" y="606"/>
      <point x="337" y="623"/>
      <point x="288" y="623" type="curve" smooth="yes"/>
      <point x="192" y="623"/>
      <point x="112" y="551"/>
      <point x="112" y="442" type="curve" smooth="yes"/>
      <point x="112" y="422"/>
      <point x="114" y="401"/>
      <point x="119" y="378" type="curve"/>
      <point x="67" y="378" type="line"/>
      <point x="67" y="321" type="line"/>
      <point x="133" y="321" type="line"/>
      <point x="143" y="280"/>
      <point x="148" y="247"/>
      <point x="148" y="222" type="curve" smooth="yes"/>
      <point x="148" y="128"/>
      <point x="120" y="88"/>
      <point x="39" y="49" type="curve"/>
    </contour>
  </outline>
</glyph>
<glyph name="currency" format="1">
  <advance width="500"/>
  <unicode hex="00A4"/>
  <outline>
    <contour>
      <point x="104" y="164" type="line"/>
      <point x="159" y="220" type="line"/>
      <point x="187" y="200"/>
      <point x="218" y="190"/>
      <point x="251" y="190" type="curve" smooth="yes"/>
      <point x="283" y="190"/>
      <point x="314" y="199"/>
      <point x="341" y="219" type="curve"/>
      <point x="396" y="164" type="line"/>
      <point x="432" y="199" type="line"/>
      <point x="377" y="254" type="line"/>
      <point x="396" y="281"/>
      <point x="406" y="312"/>
      <point x="406" y="345" type="curve" smooth="yes"/>
      <point x="406" y="378"/>
      <point x="396" y="409"/>
      <point x="376" y="437" type="curve"/>
      <point x="432" y="492" type="line"/>
      <point x="396" y="527" type="line"/>
      <point x="340" y="472" type="line"/>
      <point x="312" y="491"/>
      <point x="282" y="500"/>
      <point x="251" y="500" type="curve" smooth="yes"/>
      <point x="218" y="500"/>
      <point x="187" y="490"/>
      <point x="160" y="471" type="curve"/>
      <point x="104" y="527" type="line"/>
      <point x="68" y="492" type="line"/>
      <point x="125" y="435" type="line"/>
      <point x="105" y="408"/>
      <point x="96" y="377"/>
      <point x="96" y="345" type="curve" smooth="yes"/>
      <point x="96" y="314"/>
      <point x="105" y="283"/>
      <point x="124" y="256" type="curve"/>
      <point x="68" y="199" type="line"/>
    </contour>
    <contour>
      <point x="250" y="245" type="curve" smooth="yes"/>
      <point x="186" y="245"/>
      <point x="150" y="291"/>
      <point x="150" y="345" type="curve" smooth="yes"/>
      <point x="150" y="400"/>
      <point x="187" y="446"/>
      <point x="250" y="446" type="curve" smooth="yes"/>
      <point x="315" y="446"/>
      <point x="351" y="400"/>
      <point x="351" y="345" type="curve" smooth="yes"/>
      <point x="351" y="292"/>
      <point x="315" y="245"/>
    </contour>
  </outline>
</glyph>
<glyph name="yen" format="1">
  <advance width="500"/>
  <unicode hex="00A5"/>
  <outline>
    <contour>
      <point x="238" y="217" type="line"/>
      <point x="238" y="274" type="line"/>
      <point x="84" y="274" type="line"/>
      <point x="84" y="217" type="line"/>
    </contour>
    <contour>
      <point x="278" y="274" type="line"/>
      <point x="278" y="217" type="line"/>
      <point x="426" y="217" type="line"/>
      <point x="426" y="274" type="line"/>
    </contour>
    <contour>
      <point x="238" y="98" type="line"/>
      <point x="238" y="154" type="line"/>
      <point x="84" y="154" type="line"/>
      <point x="84" y="98" type="line"/>
    </contour>
    <contour>
      <point x="278" y="154" type="line"/>
      <point x="278" y="98" type="line"/>
      <point x="426" y="98" type="line"/>
      <point x="426" y="154" type="line"/>
    </contour>
    <contour>
      <point x="292" y="0" type="line"/>
      <point x="292" y="295" type="line"/>
      <point x="466" y="623" type="line"/>
      <point x="392" y="623" type="line"/>
      <point x="259" y="363" type="line"/>
      <point x="114" y="624" type="line"/>
      <point x="36" y="624" type="line"/>
      <point x="224" y="295" type="line"/>
      <point x="224" y="0" type="line"/>
    </contour>
  </outline>
</glyph>
<glyph name="brokenbar" format="1">
  <advance width="500"/>
  <unicode hex="00A6"/>
  <outline>
    <contour>
      <point x="217" y="295" type="line"/>
      <point x="284" y="295" type="line"/>
      <point x="284" y="652" type="line"/>
      <point x="217" y="652" type="line"/>
    </contour>
    <contour>
      <point x="217" y="-151" type="line"/>
      <point x="284" y="-151" type="line"/>
      <point x="284" y="196" type="line"/>
      <point x="217" y="196" type="line"/>
    </contour>
  </outline>
</glyph>
<glyph name="section" format="1">
  <advance width="500"/>
  <unicode hex="00A7"/>
  <outline>
    <contour>
      <point x="238" y="-54" type="curve" smooth="yes"/>
      <point x="335" y="-54"/>
      <point x="408" y="10"/>
      <point x="408" y="98" type="curve" smooth="yes"/>
      <point x="408" y="143"/>
      <point x="387" y="180"/>
      <point x="344" y="209" type="curve"/>
      <point x="388" y="226"/>
      <point x="418" y="265"/>
      <point x="418" y="305" type="curve" smooth="yes"/>
      <point x="418" y="352"/>
      <point x="387" y="390"/>
      <point x="326" y="419" type="curve"/>
      <point x="214" y="462"/>
      <point x="167" y="475"/>
      <point x="167" y="536" type="curve" smooth="yes"/>
      <point x="167" y="579"/>
      <point x="207" y="613"/>
      <point x="256" y="613" type="curve" smooth="yes"/>
      <point x="306" y="613"/>
      <point x="345" y="579"/>
      <point x="350" y="544" type="curve" smooth="yes"/>
      <point x="351" y="540"/>
      <point x="353" y="536"/>
      <point x="356" y="533" type="curve"/>
      <point x="413" y="583" type="line"/>
      <point x="381" y="639"/>
      <point x="322" y="672"/>
      <point x="257" y="672" type="curve" smooth="yes"/>
      <point x="165" y="672"/>
      <point x="94" y="606"/>
      <point x="94" y="530" type="curve" smooth="yes"/>
      <point x="94" y="481"/>
      <point x="116" y="444"/>
      <point x="161" y="417" type="curve"/>
      <point x="112" y="400"/>
      <point x="79" y="360"/>
      <point x="79" y="316" type="curve" smooth="yes"/>
      <point x="79" y="256"/>
      <point x="117" y="221"/>
      <point x="220" y="188" type="curve"/>
      <point x="312" y="161"/>
      <point x="337" y="137"/>
      <point x="337" y="91" type="curve" smooth="yes"/>
      <point x="337" y="47"/>
      <point x="299" y="12"/>
      <point x="234" y="12" type="curve" smooth="yes"/>
      <point x="201" y="12"/>
      <point x="175" y="22"/>
      <point x="154" y="41" type="curve" smooth="yes"/>
      <point x="114" y="79"/>
      <point x="133" y="87"/>
      <point x="117" y="92" type="curve"/>
      <point x="65" y="31" type="line"/>
      <point x="106" y="-25"/>
      <point x="170" y="-54"/>
    </contour>
    <contour>
      <point x="307" y="228" type="curve"/>
      <point x="296" y="233"/>
      <point x="279" y="237"/>
      <point x="256" y="244" type="curve" smooth="yes"/>
      <point x="183" y="265"/>
      <point x="152" y="292"/>
      <point x="152" y="336" type="curve" smooth="yes"/>
      <point x="152" y="365"/>
      <point x="170" y="390"/>
      <point x="197" y="399" type="curve"/>
      <point x="240" y="384" type="line"/>
      <point x="312" y="359"/>
      <point x="343" y="336"/>
      <point x="343" y="292" type="curve" smooth="yes"/>
      <point x="343" y="262"/>
      <point x="331" y="241"/>
    </contour>
  </outline>
</glyph>
<glyph name="dieresis" format="1">
  <advance width="500"/>
  <unicode hex="00A8"/>
  <outline>
    <contour>
      <point x="163" y="564" type="curve" smooth="yes"/>
      <point x="190" y="564"/>
      <point x="213" y="587"/>
      <point x="213" y="614" type="curve" smooth="yes"/>
      <point x="213" y="642"/>
      <point x="190" y="665"/>
      <point x="163" y="665" type="curve" smooth="yes"/>
      <point x="135" y="665"/>
      <point x="112" y="641"/>
      <point x="112" y="614" type="curve" smooth="yes"/>
      <point x="112" y="587"/>
      <point x="135" y="564"/>
    </contour>
    <contour>
      <point x="341" y="564" type="curve" smooth="yes"/>
      <point x="368" y="564"/>
      <point x="391" y="587"/>
      <point x="391" y="614" type="curve" smooth="yes"/>
      <point x="391" y="642"/>
      <point x="368" y="665"/>
      <point x="341" y="665" type="curve" smooth="yes"/>
      <point x="313" y="665"/>
      <point x="291" y="642"/>
      <point x="291" y="614" type="curve" smooth="yes"/>
      <point x="291" y="586"/>
      <point x="313" y="564"/>
    </contour>
  </outline>
</glyph>
<glyph name="copyright" format="1">
  <advance width="500"/>
  <unicode hex="00A9"/>
  <outline>
    <contour>
      <point x="261" y="122" type="curve" smooth="yes"/>
      <point x="309" y="122"/>
      <point x="356" y="147"/>
      <point x="384" y="190" type="curve"/>
      <point x="340" y="219" type="line"/>
      <point x="325" y="191"/>
      <point x="297" y="174"/>
      <point x="265" y="174" type="curve" smooth="yes"/>
      <point x="213" y="174"/>
      <point x="171" y="222"/>
      <point x="171" y="281" type="curve" smooth="yes"/>
      <point x="171" y="348"/>
      <point x="225" y="374"/>
      <point x="262" y="374" type="curve" smooth="yes"/>
      <point x="277" y="374"/>
      <point x="291" y="371"/>
      <point x="302" y="364" type="curve" smooth="yes"/>
      <point x="344" y="335"/>
      <point x="324" y="331"/>
      <point x="335" y="312" type="curve"/>
      <point x="387" y="331" type="line"/>
      <point x="374" y="387"/>
      <point x="326" y="424"/>
      <point x="254" y="424" type="curve" smooth="yes"/>
      <point x="186" y="424"/>
      <point x="115" y="360"/>
      <point x="115" y="276" type="curve" smooth="yes"/>
      <point x="115" y="193"/>
      <point x="179" y="122"/>
    </contour>
    <contour>
      <point x="255" y="19" type="curve" smooth="yes"/>
      <point x="322" y="19"/>
      <point x="379" y="44"/>
      <point x="426" y="93" type="curve" smooth="yes"/>
      <point x="474" y="143"/>
      <point x="498" y="203"/>
      <point x="498" y="274" type="curve" smooth="yes"/>
      <point x="498" y="415"/>
      <point x="387" y="530"/>
      <point x="256" y="530" type="curve" smooth="yes"/>
      <point x="123" y="530"/>
      <point x="14" y="415"/>
      <point x="14" y="274" type="curve" smooth="yes"/>
      <point x="14" y="134"/>
      <point x="122" y="19"/>
    </contour>
    <contour>
      <point x="257" y="62" type="curve" smooth="yes"/>
      <point x="148" y="62"/>
      <point x="59" y="156"/>
      <point x="59" y="274" type="curve" smooth="yes"/>
      <point x="59" y="394"/>
      <point x="148" y="488"/>
      <point x="257" y="488" type="curve" smooth="yes"/>
      <point x="366" y="488"/>
      <point x="455" y="391"/>
      <point x="455" y="275" type="curve" smooth="yes"/>
      <point x="455" y="159"/>
      <point x="364" y="62"/>
    </contour>
  </outline>
</glyph>
<glyph name="ordfeminine" format="1">
  <advance width="500"/>
  <unicode hex="00AA"/>
  <outline>
    <contour>
      <point x="224" y="257" type="curve" smooth="yes"/>
      <point x="261" y="257"/>
      <point x="295" y="271"/>
      <point x="326" y="300" type="curve"/>
      <point x="326" y="267" type="line"/>
      <point x="389" y="267" type="line"/>
      <point x="389" y="485" type="line"/>
      <point x="389" y="573"/>
      <point x="352" y="619"/>
      <point x="257" y="622" type="curve"/>
      <point x="201" y="622"/>
      <point x="156" y="603"/>
      <point x="123" y="566" type="curve"/>
      <point x="157" y="525" type="line"/>
      <point x="178" y="554"/>
      <point x="210" y="569"/>
      <point x="251" y="569" type="curve" smooth="yes"/>
      <point x="306" y="569"/>
      <point x="325" y="540"/>
      <point x="325" y="476" type="curve"/>
      <point x="172" y="488"/>
      <point x="102" y="447"/>
      <point x="102" y="362" type="curve" smooth="yes"/>
      <point x="102" y="305"/>
      <point x="151" y="257"/>
    </contour>
    <contour>
      <point x="76" y="152" type="line"/>
      <point x="425" y="152" type="line"/>
      <point x="425" y="206" type="line"/>
      <point x="76" y="206" type="line"/>
    </contour>
    <contour>
      <point x="231" y="311" type="curve" smooth="yes"/>
      <point x="188" y="311"/>
      <point x="166" y="338"/>
      <point x="166" y="363" type="curve" smooth="yes"/>
      <point x="166" y="414"/>
      <point x="218" y="434"/>
      <point x="328" y="424" type="curve"/>
      <point x="328" y="350"/>
      <point x="292" y="311"/>
    </contour>
  </outline>
</glyph>
<glyph name="guillemetleft" format="1">
  <advance width="500"/>
  <unicode hex="00AB"/>
  <outline>
    <contour>
      <point x="225" y="61" type="line"/>
      <point x="265" y="101" type="line"/>
      <point x="137" y="241" type="line"/>
      <point x="258" y="359" type="line"/>
      <point x="219" y="400" type="line"/>
      <point x="67" y="253" type="line"/>
      <point x="67" y="230" type="line"/>
    </contour>
    <contour>
      <point x="406" y="61" type="line"/>
      <point x="446" y="101" type="line"/>
      <point x="318" y="241" type="line"/>
      <point x="439" y="359" type="line"/>
      <point x="400" y="400" type="line"/>
      <point x="249" y="253" type="line"/>
      <point x="249" y="230" type="line"/>
    </contour>
  </outline>
</glyph>
<glyph name="logicalnot" format="1">
  <advance width="500"/>
  <unicode hex="00AC"/>
  <outline>
    <contour>
      <point x="350" y="157" type="line"/>
      <point x="414" y="157" type="line"/>
      <point x="414" y="347" type="line"/>
      <point x="91" y="347" type="line"/>
      <point x="91" y="284" type="line"/>
      <point x="350" y="284" type="line"/>
    </contour>
  </outline>
</glyph>
<glyph name="softhyphen" format="1">
  <advance width="500"/>
  <unicode hex="00AD"/>
  <outline>
    <contour>
      <point x="71" y="281" type="line"/>
      <point x="431" y="281" type="line"/>
      <point x="431" y="348" type="line"/>
      <point x="71" y="348" type="line"/>
    </contour>
  </outline>
</glyph>
<glyph name="registered" format="1">
  <advance width="500"/>
  <unicode hex="00AE"/>
  <outline>
    <contour>
      <point x="255" y="19" type="curve" smooth="yes"/>
      <point x="322" y="19"/>
      <point x="379" y="44"/>
      <point x="426" y="93" type="curve" smooth="yes"/>
      <point x="474" y="143"/>
      <point x="498" y="203"/>
      <point x="498" y="274" type="curve" smooth="yes"/>
      <point x="498" y="415"/>
      <point x="387" y="530"/>
      <point x="256" y="530" type="curve" smooth="yes"/>
      <point x="123" y="530"/>
      <point x="14" y="415"/>
      <point x="14" y="274" type="curve" smooth="yes"/>
      <point x="14" y="134"/>
      <point x="122" y="19"/>
    </contour>
    <contour>
      <point x="257" y="62" type="curve" smooth="yes"/>
      <point x="148" y="62"/>
      <point x="59" y="156"/>
      <point x="59" y="274" type="curve" smooth="yes"/>
      <point x="59" y="394"/>
      <point x="148" y="488"/>
      <point x="257" y="488" type="curve" smooth="yes"/>
      <point x="366" y="488"/>
      <point x="455" y="391"/>
      <point x="455" y="275" type="curve" smooth="yes"/>
      <point x="455" y="159"/>
      <point x="364" y="62"/>
    </contour>
    <contour>
      <point x="329" y="131" type="line"/>
      <point x="376" y="138" type="line"/>
      <point x="312" y="263" type="line"/>
      <point x="349" y="274"/>
      <point x="369" y="307"/>
      <point x="369" y="340" type="curve" smooth="yes"/>
      <point x="369" y="389"/>
      <point x="336" y="425"/>
      <point x="249" y="425" type="curve" smooth="yes"/>
      <point x="155" y="425" type="line"/>
      <point x="155" y="133" type="line"/>
      <point x="201" y="133" type="line"/>
      <point x="201" y="256" type="line"/>
      <point x="267" y="256" type="line"/>
    </contour>
    <contour>
      <point x="201" y="296" type="line"/>
      <point x="201" y="384" type="line"/>
      <point x="250" y="384" type="line" smooth="yes"/>
      <point x="299" y="384"/>
      <point x="324" y="369"/>
      <point x="324" y="340" type="curve" smooth="yes"/>
      <point x="324" y="311"/>
      <point x="300" y="296"/>
      <point x="253" y="296" type="curve" smooth="yes"/>
    </contour>
  </outline>
</glyph>
<glyph name="macron" format="1">
  <advance width="500"/>
  <unicode hex="00AF"/>
  <outline>
    <contour>
      <point x="123" y="565" type="line"/>
      <point x="377" y="565" type="line"/>
      <point x="377" y="621" type="line"/>
      <point x="123" y="621" type="line"/>
    </contour>
  </outline>
</glyph>
<glyph name="degree" format="1">
  <advance width="500"/>
  <unicode hex="00B0"/>
  <outline>
    <contour>
      <point x="256" y="370" type="curve" smooth="yes"/>
      <point x="331" y="370"/>
      <point x="391" y="432"/>
      <point x="391" y="504" type="curve" smooth="yes"/>
      <point x="391" y="578"/>
      <point x="330" y="639"/>
      <point x="256" y="639" type="curve" smooth="yes"/>
      <point x="184" y="639"/>
      <point x="121" y="580"/>
      <point x="121" y="504" type="curve" smooth="yes"/>
      <point x="121" y="429"/>
      <point x="181" y="370"/>
    </contour>
    <contour>
      <point x="256" y="425" type="curve" smooth="yes"/>
      <point x="215" y="425"/>
      <point x="182" y="462"/>
      <point x="182" y="505" type="curve" smooth="yes"/>
      <point x="182" y="548"/>
      <point x="216" y="586"/>
      <point x="257" y="586" type="curve" smooth="yes"/>
      <point x="300" y="586"/>
      <point x="331" y="547"/>
      <point x="331" y="505" type="curve" smooth="yes"/>
      <point x="331" y="462"/>
      <point x="299" y="425"/>
    </contour>
  </outline>
</glyph>
<glyph name="plusminus" format="1">
  <advance width="500"/>
  <unicode hex="00B1"/>
  <outline>
    <contour>
      <point x="222" y="155" type="line"/>
      <point x="285" y="155" type="line"/>
      <point x="285" y="343" type="line"/>
      <point x="456" y="343" type="line"/>
      <point x="456" y="404" type="line"/>
      <point x="285" y="404" type="line"/>
      <point x="285" y="575" type="line"/>
      <point x="222" y="575" type="line"/>
      <point x="222" y="404" type="line"/>
      <point x="45" y="404" type="line"/>
      <point x="45" y="343" type="line"/>
      <point x="222" y="343" type="line"/>
    </contour>
    <contour>
      <point x="46" y="17" type="line"/>
      <point x="457" y="17" type="line"/>
      <point x="457" y="80" type="line"/>
      <point x="46" y="80" type="line"/>
    </contour>
  </outline>
</glyph>
<glyph name="twosuperior" format="1">
  <advance width="500"/>
  <unicode hex="00B2"/>
  <outline>
    <contour>
      <point x="121" y="253" type="line"/>
      <point x="400" y="253" type="line"/>
      <point x="400" y="307" type="line" name="_corner00"/>
      <point x="169" y="307" type="line"/>
      <point x="162" y="281" type="line"/>
      <point x="275" y="378"/>
      <point x="388" y="437"/>
      <point x="388" y="525" type="curve" smooth="yes"/>
      <point x="388" y="591"/>
      <point x="347" y="640"/>
      <point x="267" y="640" type="curve" smooth="yes"/>
      <point x="198" y="640"/>
      <point x="142" y="606"/>
      <point x="111" y="554" type="curve"/>
      <point x="155" y="514" type="line" smooth="yes" name="_corner01"/>
      <point x="181" y="563"/>
      <point x="222" y="582"/>
      <point x="266" y="582" type="curve" smooth="yes"/>
      <point x="300" y="582"/>
      <point x="322" y="564"/>
      <point x="322" y="525" type="curve" smooth="yes"/>
      <point x="322" y="478"/>
      <point x="264" y="425"/>
      <point x="121" y="307" type="curve"/>
    </contour>
  </outline>
</glyph>
<glyph name="threesuperior" format="1">
  <advance width="500"/>
  <unicode hex="00B3"/>
  <outline>
    <contour>
      <point x="259" y="247" type="curve" smooth="yes"/>
      <point x="341" y="247"/>
      <point x="407" y="299"/>
      <point x="407" y="367" type="curve" smooth="yes"/>
      <point x="407" y="413"/>
      <point x="379" y="447"/>
      <point x="335" y="457" type="curve"/>
      <point x="367" y="475"/>
      <point x="384" y="501"/>
      <point x="384" y="544" type="curve" smooth="yes"/>
      <point x="384" y="604"/>
      <point x="331" y="640"/>
      <point x="258" y="640" type="curve" smooth="yes"/>
      <point x="205" y="640"/>
      <point x="158" y="620"/>
      <point x="123" y="579" type="curve"/>
      <point x="163" y="535" type="line"/>
      <point x="188" y="566"/>
      <point x="218" y="583"/>
      <point x="257" y="583" type="curve" smooth="yes"/>
      <point x="302" y="583"/>
      <point x="321" y="563"/>
      <point x="321" y="532" type="curve" smooth="yes"/>
      <point x="321" y="498"/>
      <point x="302" y="477"/>
      <point x="246" y="477" type="curve" smooth="yes"/>
      <point x="239" y="477"/>
      <point x="233" y="477"/>
      <point x="226" y="478" type="curve"/>
      <point x="226" y="423" type="line"/>
      <point x="237" y="424"/>
      <point x="245" y="425"/>
      <point x="256" y="425" type="curve" smooth="yes"/>
      <point x="306" y="425"/>
      <point x="343" y="405"/>
      <point x="343" y="362" type="curve" smooth="yes"/>
      <point x="343" y="325"/>
      <point x="308" y="302"/>
      <point x="260" y="302" type="curve" smooth="yes"/>
      <point x="204" y="302"/>
      <point x="180" y="324"/>
      <point x="154" y="364" type="curve" name="_corner00"/>
      <point x="112" y="316" type="line"/>
      <point x="150" y="270"/>
      <point x="197" y="247"/>
    </contour>
  </outline>
</glyph>
<glyph name="acute" format="1">
  <advance width="500"/>
  <unicode hex="00B4"/>
  <outline>
    <contour>
      <point x="254" y="522" type="line"/>
      <point x="355" y="657" type="line"/>
      <point x="300" y="697" type="line"/>
      <point x="216" y="548" type="line"/>
    </contour>
  </outline>
</glyph>
<glyph name="micro" format="1">
  <advance width="500"/>
  <unicode hex="00B5"/>
  <outline>
    <contour>
      <point x="24" y="-167" type="curve"/>
      <point x="86" y="-167" type="line"/>
      <point x="87" y="-91"/>
      <point x="87" y="-16"/>
      <point x="87" y="60" type="curve"/>
      <point x="106" y="13"/>
      <point x="152" y="-10"/>
      <point x="201" y="-10" type="curve" smooth="yes"/>
      <point x="250" y="-10"/>
      <point x="301" y="15"/>
      <point x="324" y="67" type="curve"/>
      <point x="329" y="24"/>
      <point x="363" y="-10"/>
      <point x="406" y="-10" type="curve" smooth="yes"/>
      <point x="440" y="-10"/>
      <point x="469" y="8"/>
      <point x="494" y="45" type="curve"/>
      <point x="467" y="96" type="line"/>
      <point x="461" y="84" type="line" smooth="yes"/>
      <point x="453" y="67"/>
      <point x="431" y="47"/>
      <point x="412" y="47" type="curve" smooth="yes"/>
      <point x="385" y="47"/>
      <point x="372" y="70"/>
      <point x="372" y="116" type="curve" smooth="yes"/>
      <point x="372" y="457" type="line"/>
      <point x="308" y="457" type="line"/>
      <point x="308" y="192" type="line"/>
      <point x="308" y="101"/>
      <point x="273" y="49"/>
      <point x="207" y="43" type="curve"/>
      <point x="156" y="48"/>
      <point x="110" y="75"/>
      <point x="110" y="186" type="curve" smooth="yes"/>
      <point x="110" y="457" type="line"/>
      <point x="44" y="457" type="line"/>
      <point x="44" y="202" type="line" smooth="yes"/>
      <point x="44" y="130"/>
      <point x="24" y="-110"/>
    </contour>
  </outline>
</glyph>
<glyph name="paragraph" format="1">
  <advance width="500"/>
  <unicode hex="00B6"/>
  <outline>
    <contour>
      <point x="243" y="-68" type="line"/>
      <point x="302" y="-68" type="line"/>
      <point x="302" y="608" type="line"/>
      <point x="378" y="608" type="line"/>
      <point x="378" y="-68" type="line"/>
      <point x="436" y="-68" type="line"/>
      <point x="436" y="665" type="line"/>
      <point x="311" y="665" type="line" smooth="yes"/>
      <point x="127" y="665"/>
      <point x="64" y="588"/>
      <point x="64" y="502" type="curve" smooth="yes"/>
      <point x="64" y="406"/>
      <point x="143" y="327"/>
      <point x="243" y="322" type="curve"/>
    </contour>
  </outline>
</glyph>
<glyph name="periodcentered" format="1">
  <advance width="500"/>
  <unicode hex="00B7"/>
  <outline>
    <contour>
      <point x="238" y="274" type="curve" smooth="yes"/>
      <point x="271" y="274"/>
      <point x="298" y="300"/>
      <point x="298" y="331" type="curve" smooth="yes"/>
      <point x="298" y="363"/>
      <point x="268" y="388"/>
      <point x="238" y="388" type="curve" smooth="yes"/>
      <point x="207" y="388"/>
      <point x="179" y="363"/>
      <point x="179" y="331" type="curve" smooth="yes"/>
      <point x="179" y="299"/>
      <point x="205" y="274"/>
    </contour>
  </outline>
</glyph>
<glyph name="cedilla" format="1">
  <advance width="500"/>
  <unicode hex="00B8"/>
  <outline>
    <contour>
      <point x="268" y="-197" type="curve" smooth="yes"/>
      <point x="347" y="-197"/>
      <point x="384" y="-157"/>
      <point x="384" y="-112" type="curve" smooth="yes"/>
      <point x="384" y="-82"/>
      <point x="358" y="-52"/>
      <point x="299" y="-47" type="curve"/>
      <point x="305" y="0" type="line"/>
      <point x="261" y="0" type="line"/>
      <point x="250" y="-85" type="line"/>
      <point x="280" y="-85" type="line" smooth="yes"/>
      <point x="311" y="-85"/>
      <point x="331" y="-97"/>
      <point x="331" y="-118" type="curve" smooth="yes"/>
      <point x="331" y="-141"/>
      <point x="316" y="-154"/>
      <point x="281" y="-154" type="curve" smooth="yes"/>
      <point x="248" y="-154"/>
      <point x="219" y="-144"/>
      <point x="194" y="-124" type="curve"/>
      <point x="169" y="-166" type="line"/>
      <point x="200" y="-187"/>
      <point x="233" y="-197"/>
    </contour>
  </outline>
</glyph>
<glyph name="onesuperior" format="1">
  <advance width="500"/>
  <unicode hex="00B9"/>
  <outline>
    <contour>
      <point x="235" y="253" type="line"/>
      <point x="299" y="253" type="line"/>
      <point x="299" y="633" type="line"/>
      <point x="255" y="633" type="line"/>
      <point x="122" y="559" type="line"/>
      <point x="138" y="528" type="line"/>
      <point x="235" y="563" type="line"/>
    </contour>
  </outline>
</glyph>
<glyph name="ordmasculine" format="1">
  <advance width="500"/>
  <unicode hex="00BA"/>
  <outline>
    <contour>
      <point x="245" y="256" type="curve" smooth="yes"/>
      <point x="325" y="256"/>
      <point x="397" y="325"/>
      <point x="397" y="441" type="curve" smooth="yes"/>
      <point x="397" y="557"/>
      <point x="332" y="622"/>
      <point x="249" y="622" type="curve" smooth="yes"/>
      <point x="168" y="622"/>
      <point x="96" y="545"/>
      <point x="96" y="434" type="curve" smooth="yes"/>
      <point x="96" y="328"/>
      <point x="162" y="256"/>
    </contour>
    <contour>
      <point x="76" y="152" type="line"/>
      <point x="425" y="152" type="line"/>
      <point x="425" y="206" type="line"/>
      <point x="76" y="206" type="line"/>
    </contour>
    <contour>
      <point x="246" y="314" type="curve" smooth="yes"/>
      <point x="198" y="314"/>
      <point x="156" y="358"/>
      <point x="156" y="438" type="curve" smooth="yes"/>
      <point x="156" y="518"/>
      <point x="198" y="566"/>
      <point x="247" y="566" type="curve" smooth="yes"/>
      <point x="296" y="566"/>
      <point x="337" y="518"/>
      <point x="337" y="437" type="curve" smooth="yes"/>
      <point x="337" y="357"/>
      <point x="295" y="314"/>
    </contour>
  </outline>
</glyph>
<glyph name="onequarter" format="1">
  <advance width="500"/>
  <unicode hex="00BC"/>
  <outline>
    <contour>
      <point x="123" y="-42" type="line"/>
      <point x="437" y="638" type="line"/>
      <point x="389" y="665" type="line"/>
      <point x="76" y="-16" type="line"/>
    </contour>
    <contour>
      <point x="288" y="45" type="line"/>
      <point x="382" y="164" type="line"/>
      <point x="382" y="45" type="line"/>
    </contour>
    <contour>
      <point x="381" y="-70" type="line"/>
      <point x="427" y="-70" type="line"/>
      <point x="427" y="8" type="line"/>
      <point x="477" y="8" type="line"/>
      <point x="477" y="45" type="line"/>
      <point x="427" y="45" type="line"/>
      <point x="427" y="242" type="line"/>
      <point x="396" y="242" type="line"/>
      <point x="236" y="37" type="line"/>
      <point x="236" y="8" type="line"/>
      <point x="381" y="8" type="line"/>
    </contour>
    <contour>
      <point x="95" y="374" type="line"/>
      <point x="146" y="374" type="line"/>
      <point x="146" y="677" type="line"/>
      <point x="112" y="677" type="line"/>
      <point x="5" y="619" type="line"/>
      <point x="18" y="594" type="line"/>
      <point x="95" y="614" type="line"/>
    </contour>
  </outline>
</glyph>
<glyph name="onehalf" format="1">
  <advance width="500"/>
  <unicode hex="00BD"/>
  <outline>
    <contour>
      <point x="123" y="-42" type="line"/>
      <point x="437" y="638" type="line"/>
      <point x="389" y="665" type="line"/>
      <point x="76" y="-16" type="line"/>
    </contour>
    <contour>
      <point x="270" y="-73" type="line"/>
      <point x="494" y="-73" type="line"/>
      <point x="494" y="-22" type="line"/>
      <point x="487" y="-22"/>
      <point x="480" y="-29"/>
      <point x="475" y="-29" type="curve" smooth="yes"/>
      <point x="329" y="-29" type="line"/>
      <point x="346" y="-10"/>
      <point x="369" y="10"/>
      <point x="398" y="31" type="curve" smooth="yes"/>
      <point x="473" y="84"/>
      <point x="487" y="100"/>
      <point x="487" y="143" type="curve" smooth="yes"/>
      <point x="487" y="191"/>
      <point x="444" y="235"/>
      <point x="389" y="235" type="curve" smooth="yes"/>
      <point x="330" y="235"/>
      <point x="288" y="211"/>
      <point x="263" y="168" type="curve"/>
      <point x="300" y="143" type="line"/>
      <point x="303" y="147"/>
      <point x="304" y="156"/>
      <point x="308" y="160" type="curve"/>
      <point x="325" y="183"/>
      <point x="348" y="194"/>
      <point x="379" y="194" type="curve" smooth="yes"/>
      <point x="415" y="194"/>
      <point x="439" y="173"/>
      <point x="439" y="140" type="curve" smooth="yes"/>
      <point x="439" y="118"/>
      <point x="421" y="102"/>
      <point x="375" y="65" type="curve" smooth="yes"/>
      <point x="328" y="30"/>
      <point x="294" y="-6"/>
      <point x="270" y="-38" type="curve"/>
    </contour>
    <contour>
      <point x="95" y="374" type="line"/>
      <point x="146" y="374" type="line"/>
      <point x="146" y="677" type="line"/>
      <point x="112" y="677" type="line"/>
      <point x="5" y="619" type="line"/>
      <point x="18" y="594" type="line"/>
      <point x="95" y="614" type="line"/>
    </contour>
  </outline>
</glyph>
<glyph name="threequarters" format="1">
  <advance width="500"/>
  <unicode hex="00BE"/>
  <outline>
    <contour>
      <point x="128" y="-42" type="line"/>
      <point x="442" y="638" type="line"/>
      <point x="394" y="665" type="line"/>
      <point x="81" y="-16" type="line"/>
    </contour>
    <contour>
      <point x="288" y="45" type="line"/>
      <point x="382" y="164" type="line"/>
      <point x="382" y="45" type="line"/>
    </contour>
    <contour>
      <point x="381" y="-70" type="line"/>
      <point x="427" y="-70" type="line"/>
      <point x="427" y="8" type="line"/>
      <point x="477" y="8" type="line"/>
      <point x="477" y="45" type="line"/>
      <point x="427" y="45" type="line"/>
      <point x="427" y="242" type="line"/>
      <point x="396" y="242" type="line"/>
      <point x="236" y="37" type="line"/>
      <point x="236" y="8" type="line"/>
      <point x="381" y="8" type="line"/>
    </contour>
    <contour>
      <point x="125" y="374" type="curve" smooth="yes"/>
      <point x="189" y="374"/>
      <point x="246" y="415"/>
      <point x="246" y="467" type="curve" smooth="yes"/>
      <point x="246" y="500"/>
      <point x="222" y="530"/>
      <point x="187" y="535" type="curve"/>
      <point x="214" y="544"/>
      <point x="232" y="569"/>
      <point x="232" y="598" type="curve" smooth="yes"/>
      <point x="232" y="645"/>
      <point x="187" y="684"/>
      <point x="128" y="684" type="curve" smooth="yes"/>
      <point x="85" y="684"/>
      <point x="50" y="667"/>
      <point x="22" y="634" type="curve"/>
      <point x="51" y="604" type="line"/>
      <point x="70" y="629"/>
      <point x="95" y="642"/>
      <point x="125" y="642" type="curve" smooth="yes"/>
      <point x="162" y="642"/>
      <point x="185" y="617"/>
      <point x="185" y="594" type="curve" smooth="yes"/>
      <point x="185" y="573"/>
      <point x="167" y="553"/>
      <point x="124" y="553" type="curve" smooth="yes"/>
      <point x="117" y="553"/>
      <point x="109" y="551"/>
      <point x="102" y="554" type="curve"/>
      <point x="102" y="514" type="line"/>
      <point x="110" y="515"/>
      <point x="118" y="515"/>
      <point x="126" y="515" type="curve" smooth="yes"/>
      <point x="177" y="515"/>
      <point x="197" y="499"/>
      <point x="197" y="467" type="curve" smooth="yes"/>
      <point x="197" y="442"/>
      <point x="162" y="419"/>
      <point x="123" y="419" type="curve" smooth="yes"/>
      <point x="100" y="419"/>
      <point x="79" y="426"/>
      <point x="60" y="445" type="curve" smooth="yes"/>
      <point x="55" y="450"/>
      <point x="53" y="463"/>
      <point x="49" y="468" type="curve"/>
      <point x="11" y="426" type="line"/>
      <point x="42" y="391"/>
      <point x="80" y="374"/>
    </contour>
  </outline>
</glyph>
<glyph name="AE" format="1">
  <advance width="500"/>
  <unicode hex="00C6"/>
  <outline>
    <contour>
      <point x="15" y="0" type="line"/>
      <point x="79" y="0" type="line"/>
      <point x="133" y="169" type="line"/>
      <point x="263" y="169" type="line"/>
      <point x="263" y="0" type="line"/>
      <point x="493" y="0" type="line"/>
      <point x="493" y="62" type="line"/>
      <point x="324" y="62" type="line"/>
      <point x="324" y="293" type="line"/>
      <point x="469" y="293" type="line"/>
      <point x="469" y="357" type="line"/>
      <point x="324" y="357" type="line"/>
      <point x="324" y="562" type="line"/>
      <point x="495" y="562" type="line"/>
      <point x="495" y="624" type="line"/>
      <point x="211" y="624" type="line"/>
    </contour>
    <contour>
      <point x="147" y="227" type="line"/>
      <point x="252" y="562" type="line"/>
      <point x="263" y="562" type="line"/>
      <point x="263" y="227" type="line"/>
    </contour>
  </outline>
</glyph>
<glyph name="Eth" format="1">
  <advance width="500"/>
  <unicode hex="00D0"/>
  <outline>
    <contour>
      <point x="79" y="-1" type="line"/>
      <point x="206" y="-1" type="line" smooth="yes"/>
      <point x="255" y="-1"/>
      <point x="293" y="5"/>
      <point x="319" y="18" type="curve"/>
      <point x="413" y="61"/>
      <point x="466" y="187"/>
      <point x="466" y="306" type="curve" smooth="yes"/>
      <point x="466" y="495"/>
      <point x="396" y="623"/>
      <point x="218" y="623" type="curve" smooth="yes"/>
      <point x="79" y="623" type="line"/>
      <point x="79" y="359" type="line"/>
      <point x="30" y="359" type="line"/>
      <point x="30" y="301" type="line"/>
      <point x="79" y="301" type="line"/>
    </contour>
    <contour>
      <point x="143" y="57" type="line"/>
      <point x="143" y="301" type="line"/>
      <point x="248" y="301" type="line"/>
      <point x="248" y="359" type="line"/>
      <point x="143" y="359" type="line"/>
      <point x="143" y="564" type="line"/>
      <point x="214" y="564" type="line" smooth="yes"/>
      <point x="342" y="564"/>
      <point x="399" y="466"/>
      <point x="399" y="306" type="curve" smooth="yes"/>
      <point x="399" y="149"/>
      <point x="331" y="57"/>
      <point x="203" y="57" type="curve" smooth="yes"/>
    </contour>
  </outline>
</glyph>
<glyph name="multiply" format="1">
  <advance width="500"/>
  <unicode hex="00D7"/>
  <outline>
    <contour>
      <point x="381" y="145" type="line"/>
      <point x="427" y="191" type="line"/>
      <point x="300" y="325" type="line"/>
      <point x="430" y="459" type="line"/>
      <point x="382" y="503" type="line"/>
      <point x="256" y="372" type="line"/>
      <point x="132" y="503" type="line"/>
      <point x="85" y="457" type="line"/>
      <point x="211" y="324" type="line"/>
      <point x="85" y="193" type="line"/>
      <point x="129" y="149" type="line"/>
      <point x="254" y="278" type="line"/>
    </contour>
  </outline>
</glyph>
<glyph name="Oslash" format="1">
  <advance width="500"/>
  <unicode hex="00D8"/>
  <outline>
    <contour>
      <point x="85" y="-42" type="line"/>
      <point x="458" y="660" type="line"/>
      <point x="416" y="682" type="line"/>
      <point x="41" y="-22" type="line"/>
    </contour>
    <component base="O"/>
  </outline>
</glyph>
<glyph name="Thorn" format="1">
  <advance width="500"/>
  <unicode hex="00DE"/>
  <outline>
    <contour>
      <point x="59" y="0" type="line"/>
      <point x="129" y="0" type="line"/>
      <point x="129" y="158" type="line"/>
      <point x="264" y="158" type="line" smooth="yes"/>
      <point x="399" y="158"/>
      <point x="451" y="234"/>
      <point x="456" y="330" type="curve"/>
      <point x="451" y="426"/>
      <point x="398" y="506"/>
      <point x="259" y="506" type="curve" smooth="yes"/>
      <point x="129" y="506" type="line"/>
      <point x="129" y="595" type="line"/>
      <point x="132" y="607"/>
      <point x="139" y="616"/>
      <point x="139" y="620" type="curve" smooth="yes"/>
      <point x="139" y="621"/>
      <point x="138" y="622"/>
      <point x="137" y="623" type="curve"/>
      <point x="59" y="623" type="line"/>
    </contour>
    <contour>
      <point x="129" y="219" type="line"/>
      <point x="129" y="440" type="line"/>
      <point x="257" y="440" type="line"/>
      <point x="346" y="440"/>
      <point x="379" y="389"/>
      <point x="384" y="328" type="curve"/>
      <point x="379" y="267"/>
      <point x="350" y="219"/>
      <point x="264" y="219" type="curve" smooth="yes"/>
    </contour>
  </outline>
</glyph>
<glyph name="germandbls" format="1">
  <advance width="500"/>
  <unicode hex="00DF"/>
  <outline>
    <contour>
      <point x="281" y="-10" type="curve" smooth="yes"/>
      <point x="393" y="-10"/>
      <point x="464" y="75"/>
      <point x="464" y="181" type="curve" smooth="yes"/>
      <point x="464" y="265"/>
      <point x="417" y="335"/>
      <point x="341" y="359" type="curve"/>
      <point x="390" y="384"/>
      <point x="420" y="436"/>
      <point x="420" y="493" type="curve" smooth="yes"/>
      <point x="420" y="586"/>
      <point x="338" y="669"/>
      <point x="231" y="669" type="curve" smooth="yes"/>
      <point x="127" y="669"/>
      <point x="55" y="588"/>
      <point x="55" y="423" type="curve" smooth="yes"/>
      <point x="55" y="0" type="line"/>
      <point x="123" y="0" type="line"/>
      <point x="123" y="425" type="line" smooth="yes"/>
      <point x="123" y="536"/>
      <point x="165" y="611"/>
      <point x="241" y="611" type="curve" smooth="yes"/>
      <point x="304" y="611"/>
      <point x="352" y="558"/>
      <point x="352" y="490" type="curve" smooth="yes"/>
      <point x="352" y="417"/>
      <point x="299" y="380"/>
      <point x="250" y="380" type="curve" smooth="yes"/>
      <point x="214" y="380" type="line"/>
      <point x="214" y="323" type="line"/>
      <point x="244" y="323" type="line" smooth="yes"/>
      <point x="351" y="323"/>
      <point x="398" y="266"/>
      <point x="398" y="193" type="curve" smooth="yes"/>
      <point x="398" y="113"/>
      <point x="342" y="53"/>
      <point x="285" y="53" type="curve" smooth="yes"/>
      <point x="256" y="53"/>
      <point x="232" y="61"/>
      <point x="212" y="77" type="curve"/>
      <point x="177" y="21" type="line"/>
      <point x="208" y="0"/>
      <point x="242" y="-10"/>
    </contour>
  </outline>
</glyph>
<glyph name="ae" format="1">
  <advance width="500"/>
  <unicode hex="00E6"/>
  <outline>
    <contour>
      <point x="142" y="-11" type="curve" smooth="yes"/>
      <point x="190" y="-11"/>
      <point x="232" y="15"/>
      <point x="255" y="58" type="curve"/>
      <point x="282" y="15"/>
      <point x="329" y="-11"/>
      <point x="380" y="-11" type="curve" smooth="yes"/>
      <point x="427" y="-11"/>
      <point x="465" y="7"/>
      <point x="494" y="42" type="curve"/>
      <point x="459" y="84" type="line"/>
      <point x="441" y="59"/>
      <point x="417" y="47"/>
      <point x="386" y="47" type="curve" smooth="yes"/>
      <point x="322" y="47"/>
      <point x="282" y="98"/>
      <point x="282" y="175" type="curve" smooth="yes"/>
      <point x="282" y="223" type="line"/>
      <point x="490" y="230" type="line"/>
      <point x="490" y="268" type="line" smooth="yes"/>
      <point x="490" y="392"/>
      <point x="453" y="467"/>
      <point x="362" y="467" type="curve" smooth="yes"/>
      <point x="322" y="467"/>
      <point x="281" y="444"/>
      <point x="258" y="405" type="curve"/>
      <point x="237" y="444"/>
      <point x="195" y="467"/>
      <point x="147" y="467" type="curve" smooth="yes"/>
      <point x="98" y="467"/>
      <point x="60" y="449"/>
      <point x="31" y="412" type="curve"/>
      <point x="66" y="368" type="line"/>
      <point x="87" y="397"/>
      <point x="112" y="411"/>
      <point x="142" y="411" type="curve" smooth="yes"/>
      <point x="198" y="411"/>
      <point x="221" y="366"/>
      <point x="221" y="279" type="curve"/>
      <point x="81" y="274"/>
      <point x="10" y="220"/>
      <point x="10" y="123" type="curve" smooth="yes"/>
      <point x="10" y="48"/>
      <point x="48" y="-11"/>
    </contour>
    <contour>
      <point x="144" y="50" type="curve" smooth="yes"/>
      <point x="99" y="50"/>
      <point x="74" y="66"/>
      <point x="74" y="122" type="curve" smooth="yes"/>
      <point x="74" y="192"/>
      <point x="114" y="214"/>
      <point x="221" y="219" type="curve"/>
      <point x="221" y="127"/>
      <point x="215" y="50"/>
    </contour>
    <contour>
      <point x="282" y="279" type="line"/>
      <point x="282" y="364"/>
      <point x="312" y="411"/>
      <point x="362" y="411" type="curve" smooth="yes"/>
      <point x="412" y="411"/>
      <point x="432" y="368"/>
      <point x="432" y="284" type="curve"/>
    </contour>
  </outline>
</glyph>
<glyph name="eth" format="1">
  <advance width="500"/>
  <unicode hex="00F0"/>
  <outline>
    <contour>
      <point x="256" y="-12" type="curve" smooth="yes"/>
      <point x="388" y="-12"/>
      <point x="460" y="93"/>
      <point x="460" y="253" type="curve" smooth="yes"/>
      <point x="460" y="379"/>
      <point x="422" y="485"/>
      <point x="347" y="570" type="curve"/>
      <point x="432" y="595" type="line"/>
      <point x="415" y="639" type="line"/>
      <point x="307" y="610" type="line"/>
      <point x="279" y="635"/>
      <point x="250" y="655"/>
      <point x="220" y="672" type="curve"/>
      <point x="139" y="656" type="line"/>
      <point x="177" y="639"/>
      <point x="211" y="617"/>
      <point x="241" y="592" type="curve"/>
      <point x="137" y="564" type="line"/>
      <point x="155" y="516" type="line"/>
      <point x="283" y="552" type="line"/>
      <point x="320" y="512"/>
      <point x="348" y="466"/>
      <point x="369" y="415" type="curve"/>
      <point x="336" y="450"/>
      <point x="294" y="467"/>
      <point x="242" y="467" type="curve" smooth="yes"/>
      <point x="140" y="467"/>
      <point x="40" y="356"/>
      <point x="40" y="223" type="curve" smooth="yes"/>
      <point x="40" y="87"/>
      <point x="140" y="-12"/>
    </contour>
    <contour>
      <point x="256" y="50" type="curve" smooth="yes"/>
      <point x="179" y="50"/>
      <point x="117" y="123"/>
      <point x="117" y="232" type="curve" smooth="yes"/>
      <point x="117" y="347"/>
      <point x="188" y="406"/>
      <point x="253" y="406" type="curve" smooth="yes"/>
      <point x="316" y="406"/>
      <point x="387" y="361"/>
      <point x="387" y="232" type="curve" smooth="yes"/>
      <point x="387" y="105"/>
      <point x="323" y="50"/>
    </contour>
  </outline>
</glyph>
<glyph name="divide" format="1">
  <advance width="500"/>
  <unicode hex="00F7"/>
  <outline>
    <contour>
      <point x="71" y="281" type="line"/>
      <point x="431" y="281" type="line"/>
      <point x="431" y="348" type="line"/>
      <point x="71" y="348" type="line"/>
    </contour>
    <contour>
      <point x="256" y="114" type="curve" smooth="yes"/>
      <point x="280" y="114"/>
      <point x="300" y="134"/>
      <point x="300" y="158" type="curve" smooth="yes"/>
      <point x="300" y="182"/>
      <point x="279" y="204"/>
      <point x="256" y="204" type="curve" smooth="yes"/>
      <point x="233" y="204"/>
      <point x="210" y="185"/>
      <point x="210" y="158" type="curve" smooth="yes"/>
      <point x="210" y="133"/>
      <point x="232" y="114"/>
    </contour>
    <contour>
      <point x="255" y="422" type="curve" smooth="yes"/>
      <point x="280" y="422"/>
      <point x="300" y="442"/>
      <point x="300" y="466" type="curve" smooth="yes"/>
      <point x="300" y="490"/>
      <point x="280" y="512"/>
      <point x="255" y="512" type="curve" smooth="yes"/>
      <point x="232" y="512"/>
      <point x="211" y="491"/>
      <point x="211" y="466" type="curve" smooth="yes"/>
      <point x="211" y="442"/>
      <point x="231" y="422"/>
    </contour>
  </outline>
</glyph>
<glyph name="oslash" format="1">
  <advance width="500"/>
  <unicode hex="00F8"/>
  <outline>
    <contour>
      <point x="122" y="-64" type="line"/>
      <point x="162" y="10" type="line"/>
      <point x="191" y="-5"/>
      <point x="222" y="-12"/>
      <point x="255" y="-12" type="curve" smooth="yes"/>
      <point x="368" y="-12"/>
      <point x="460" y="78"/>
      <point x="460" y="233" type="curve" smooth="yes"/>
      <point x="460" y="310"/>
      <point x="435" y="372"/>
      <point x="386" y="417" type="curve"/>
      <point x="425" y="490" type="line"/>
      <point x="372" y="519" type="line"/>
      <point x="335" y="450" type="line"/>
      <point x="309" y="461"/>
      <point x="283" y="467"/>
      <point x="257" y="467" type="curve" smooth="yes"/>
      <point x="140" y="467"/>
      <point x="40" y="364"/>
      <point x="40" y="221" type="curve" smooth="yes"/>
      <point x="40" y="150"/>
      <point x="65" y="91"/>
      <point x="114" y="44" type="curve"/>
      <point x="70" y="-37" type="line"/>
    </contour>
    <contour>
      <point x="150" y="110" type="line"/>
      <point x="127" y="143"/>
      <point x="116" y="184"/>
      <point x="116" y="235" type="curve" smooth="yes"/>
      <point x="116" y="336"/>
      <point x="180" y="406"/>
      <point x="252" y="406" type="curve" smooth="yes"/>
      <point x="270" y="406"/>
      <point x="287" y="402"/>
      <point x="304" y="393" type="curve"/>
    </contour>
    <contour>
      <point x="255" y="50" type="curve" smooth="yes"/>
      <point x="234" y="50"/>
      <point x="213" y="56"/>
      <point x="194" y="67" type="curve"/>
      <point x="351" y="354" type="line"/>
      <point x="376" y="321"/>
      <point x="388" y="278"/>
      <point x="388" y="223" type="curve" smooth="yes"/>
      <point x="388" y="116"/>
      <point x="327" y="50"/>
    </contour>
  </outline>
</glyph>
<glyph name="thorn" format="1">
  <advance width="500"/>
  <unicode hex="00FE"/>
  <outline>
    <contour>
      <point x="60" y="-167" type="line"/>
      <point x="134" y="-167" type="line"/>
      <point x="134" y="60" type="line"/>
      <point x="165" y="15"/>
      <point x="215" y="-12"/>
      <point x="271" y="-12" type="curve" smooth="yes"/>
      <point x="367" y="-12"/>
      <point x="463" y="71"/>
      <point x="463" y="232" type="curve" smooth="yes"/>
      <point x="463" y="391"/>
      <point x="373" y="467"/>
      <point x="272" y="467" type="curve" smooth="yes"/>
      <point x="220" y="467"/>
      <point x="164" y="436"/>
      <point x="133" y="387" type="curve"/>
      <point x="133" y="622" type="line" smooth="yes"/>
      <point x="133" y="643"/>
      <point x="140" y="650"/>
      <point x="140" y="665" type="curve"/>
      <point x="60" y="665" type="line"/>
    </contour>
    <contour>
      <point x="256" y="52" type="curve" smooth="yes"/>
      <point x="182" y="52"/>
      <point x="136" y="95"/>
      <point x="133" y="220" type="curve"/>
      <point x="133" y="343"/>
      <point x="186" y="406"/>
      <point x="259" y="406" type="curve" smooth="yes"/>
      <point x="340" y="406"/>
      <point x="388" y="336"/>
      <point x="388" y="219" type="curve" smooth="yes"/>
      <point x="388" y="91"/>
      <point x="322" y="52"/>
    </contour>
  </outline>
</glyph>
<glyph name="dcaron" format="1">
  <advance width="500"/>
  <unicode hex="010F"/>
  <outline>
    <contour>
      <point x="181" y="-10" type="curve" smooth="yes"/>
      <point x="221" y="-10"/>
      <point x="265" y="22"/>
      <point x="288" y="73" type="curve"/>
      <point x="288" y="34" type="line" smooth="yes"/>
      <point x="288" y="19"/>
      <point x="289" y="8"/>
      <point x="292" y="0" type="curve"/>
      <point x="364" y="0" type="line"/>
      <point x="361" y="12"/>
      <point x="359" y="27"/>
      <point x="359" y="43" type="curve" smooth="yes"/>
      <point x="358" y="632" type="line" smooth="yes"/>
      <point x="358" y="645"/>
      <point x="368" y="653"/>
      <point x="368" y="665" type="curve"/>
      <point x="291" y="665" type="line"/>
      <point x="291" y="390" type="line"/>
      <point x="273" y="438"/>
      <point x="236" y="469"/>
      <point x="187" y="469" type="curve" smooth="yes"/>
      <point x="110" y="469"/>
      <point x="25" y="400"/>
      <point x="25" y="233" type="curve" smooth="yes"/>
      <point x="25" y="69"/>
      <point x="97" y="-10"/>
    </contour>
    <contour>
      <point x="195" y="53" type="curve" smooth="yes"/>
      <point x="130" y="53"/>
      <point x="95" y="129"/>
      <point x="95" y="244" type="curve" smooth="yes"/>
      <point x="95" y="345"/>
      <point x="129" y="410"/>
      <point x="198" y="410" type="curve" smooth="yes"/>
      <point x="254" y="410"/>
      <point x="285" y="336"/>
      <point x="285" y="231" type="curve" smooth="yes"/>
      <point x="285" y="132"/>
      <point x="251" y="53"/>
    </contour>
    <component base="caroncomb.alt" xOffset="175" yOffset="4"/>
  </outline>
</glyph>
<glyph name="Hbar" format="1">
  <advance width="500"/>
  <unicode hex="0126"/>
  <outline>
    <contour>
      <point x="0" y="498" type="line"/>
      <point x="490" y="498" type="line"/>
      <point x="490" y="553" type="line"/>
      <point x="0" y="553" type="line"/>
    </contour>
    <component base="H"/>
  </outline>
</glyph>
<glyph name="idotless" format="1">
  <advance width="500"/>
  <unicode hex="0131"/>
  <outline>
    <contour>
      <point x="100" y="0" type="line"/>
      <point x="396" y="0" type="line"/>
      <point x="396" y="58" type="line"/>
      <point x="289" y="58" type="line"/>
      <point x="289" y="457" type="line"/>
      <point x="106" y="457" type="line"/>
      <point x="106" y="399" type="line"/>
      <point x="217" y="399" type="line"/>
      <point x="217" y="58" type="line"/>
      <point x="100" y="58" type="line"/>
    </contour>
    <contour>
      <point x="250" y="0" type="move" name="bottom"/>
    </contour>
    <contour>
      <point x="346" y="0" type="move" name="ogonek"/>
    </contour>
    <contour>
      <point x="250" y="457" type="move" name="top"/>
    </contour>
  </outline>
</glyph>
<glyph name="kgreenlandic" format="1">
  <advance width="500"/>
  <unicode hex="0138"/>
  <outline>
    <contour>
      <point x="386" y="-4" type="line"/>
      <point x="479" y="0" type="line"/>
      <point x="255" y="273" type="line"/>
      <point x="448" y="457" type="line"/>
      <point x="422" y="457" type="line" smooth="yes"/>
      <point x="402" y="457"/>
      <point x="384" y="459"/>
      <point x="369" y="462" type="curve"/>
      <point x="139" y="247" type="line"/>
      <point x="139" y="431" type="line" smooth="yes"/>
      <point x="139" y="439"/>
      <point x="148" y="449"/>
      <point x="148" y="457" type="curve"/>
      <point x="66" y="457" type="line"/>
      <point x="66" y="0" type="line"/>
      <point x="139" y="0" type="line"/>
      <point x="139" y="173" type="line"/>
      <point x="199" y="229" type="line"/>
    </contour>
    <contour>
      <point x="250" y="0" type="move" name="bottom"/>
    </contour>
    <contour>
      <point x="104" y="457" type="move" name="top"/>
    </contour>
  </outline>
</glyph>
<glyph name="ldot" format="1">
  <advance width="500"/>
  <unicode hex="0140"/>
  <outline>
    <contour>
      <point x="69" y="0" type="line"/>
      <point x="411" y="0" type="line"/>
      <point x="411" y="58" type="line"/>
      <point x="257" y="58" type="line"/>
      <point x="257" y="665" type="line"/>
      <point x="75" y="665" type="line"/>
      <point x="75" y="607" type="line"/>
      <point x="184" y="607" type="line"/>
      <point x="184" y="58" type="line"/>
      <point x="69" y="58" type="line"/>
    </contour>
    <component base="periodcentered" xOffset="150"/>
  </outline>
</glyph>
<glyph name="Lslash" format="1">
  <advance width="500"/>
  <unicode hex="0141"/>
  <outline>
    <contour>
      <point x="73" y="-1" type="line"/>
      <point x="446" y="-1" type="line"/>
      <point x="446" y="60" type="line"/>
      <point x="146" y="60" type="line"/>
      <point x="146" y="267" type="line"/>
      <point x="337" y="328" type="line"/>
      <point x="337" y="392" type="line"/>
      <point x="332" y="389"/>
      <point x="323" y="386"/>
      <point x="312" y="382" type="curve" smooth="yes"/>
      <point x="146" y="328" type="line"/>
      <point x="146" y="589" type="line"/>
      <point x="149" y="604"/>
      <point x="156" y="616"/>
      <point x="156" y="621" type="curve" smooth="yes"/>
      <point x="156" y="622"/>
      <point x="155" y="623"/>
      <point x="154" y="623" type="curve"/>
      <point x="73" y="623" type="line"/>
      <point x="73" y="305" type="line"/>
      <point x="20" y="287" type="line"/>
      <point x="20" y="226" type="line"/>
      <point x="73" y="243" type="line"/>
    </contour>
  </outline>
</glyph>
<glyph name="lslash" format="1">
  <advance width="500"/>
  <unicode hex="0142"/>
  <outline>
    <contour>
      <point x="79" y="0" type="line"/>
      <point x="421" y="0" type="line"/>
      <point x="421" y="58" type="line"/>
      <point x="287" y="58" type="line"/>
      <point x="287" y="303" type="line"/>
      <point x="378" y="334" type="line"/>
      <point x="378" y="403" type="line"/>
      <point x="287" y="370" type="line"/>
      <point x="287" y="665" type="line"/>
      <point x="85" y="665" type="line"/>
      <point x="85" y="607" type="line"/>
      <point x="214" y="607" type="line"/>
      <point x="214" y="345" type="line"/>
      <point x="135" y="318" type="line"/>
      <point x="135" y="252" type="line"/>
      <point x="214" y="279" type="line"/>
      <point x="214" y="58" type="line"/>
      <point x="79" y="58" type="line"/>
    </contour>
  </outline>
</glyph>
<glyph name="Eng" format="1">
  <advance width="500"/>
  <unicode hex="014A"/>
  <outline>
    <contour>
      <point x="380" y="623" type="line"/>
      <point x="380" y="161" type="line"/>
      <point x="118" y="623" type="line"/>
      <point x="50" y="623" type="line"/>
      <point x="50" y="0" type="line"/>
      <point x="117" y="0" type="line"/>
      <point x="117" y="490" type="line"/>
      <point x="380" y="22" type="line"/>
      <point x="378" y="-77"/>
      <point x="360" y="-122"/>
      <point x="298" y="-122" type="curve" smooth="yes"/>
      <point x="255" y="-122"/>
      <point x="261" y="-104"/>
      <point x="243" y="-98" type="curve"/>
      <point x="208" y="-160" type="line"/>
      <point x="235" y="-177"/>
      <point x="264" y="-185"/>
      <point x="295" y="-185" type="curve" smooth="yes"/>
      <point x="388" y="-185"/>
      <point x="447" y="-124"/>
      <point x="447" y="0" type="curve" smooth="yes"/>
      <point x="447" y="596" type="line" smooth="yes"/>
      <point x="447" y="610"/>
      <point x="454" y="615"/>
      <point x="454" y="623" type="curve"/>
    </contour>
    <contour>
      <point x="250" y="0" type="move" name="bottom"/>
    </contour>
    <contour>
      <point x="250" y="623" type="move" name="top"/>
    </contour>
  </outline>
</glyph>
<glyph name="eng" format="1">
  <advance width="500"/>
  <unicode hex="014B"/>
  <outline>
    <contour>
      <point x="262" y="-176" type="curve" smooth="yes"/>
      <point x="359" y="-176"/>
      <point x="432" y="-107"/>
      <point x="432" y="56" type="curve" smooth="yes"/>
      <point x="432" y="277" type="line" smooth="yes"/>
      <point x="432" y="415"/>
      <point x="372" y="468"/>
      <point x="291" y="468" type="curve" smooth="yes"/>
      <point x="235" y="468"/>
      <point x="177" y="432"/>
      <point x="142" y="376" type="curve"/>
      <point x="142" y="457" type="line"/>
      <point x="68" y="457" type="line"/>
      <point x="68" y="0" type="line"/>
      <point x="142" y="0" type="line"/>
      <point x="142" y="263" type="line" smooth="yes"/>
      <point x="142" y="350"/>
      <point x="214" y="405"/>
      <point x="277" y="405" type="curve" smooth="yes"/>
      <point x="324" y="405"/>
      <point x="361" y="371"/>
      <point x="361" y="275" type="curve" smooth="yes"/>
      <point x="361" y="45" type="line" smooth="yes"/>
      <point x="361" y="-58"/>
      <point x="329" y="-109"/>
      <point x="264" y="-109" type="curve" smooth="yes"/>
      <point x="207" y="-109"/>
      <point x="207" y="-77"/>
      <point x="199" y="-75" type="curve"/>
      <point x="165" y="-142" type="line"/>
      <point x="194" y="-165"/>
      <point x="227" y="-176"/>
    </contour>
  </outline>
</glyph>
<glyph name="OE" format="1">
  <advance width="500"/>
  <unicode hex="0152"/>
  <outline>
    <contour>
      <point x="172" y="-7" type="curve" smooth="yes"/>
      <point x="203" y="-7"/>
      <point x="229" y="4"/>
      <point x="252" y="31" type="curve"/>
      <point x="252" y="0" type="line"/>
      <point x="482" y="0" type="line"/>
      <point x="482" y="62" type="line"/>
      <point x="315" y="62" type="line"/>
      <point x="315" y="293" type="line"/>
      <point x="458" y="293" type="line"/>
      <point x="458" y="357" type="line"/>
      <point x="315" y="357" type="line"/>
      <point x="315" y="562" type="line"/>
      <point x="484" y="562" type="line"/>
      <point x="484" y="624" type="line"/>
      <point x="253" y="624" type="line"/>
      <point x="253" y="595" type="line"/>
      <point x="229" y="622"/>
      <point x="201" y="632"/>
      <point x="173" y="632" type="curve" smooth="yes"/>
      <point x="69" y="632"/>
      <point x="9" y="524"/>
      <point x="9" y="312" type="curve" smooth="yes"/>
      <point x="9" y="93"/>
      <point x="72" y="-7"/>
    </contour>
    <contour>
      <point x="179" y="54" type="curve" smooth="yes"/>
      <point x="111" y="54"/>
      <point x="73" y="149"/>
      <point x="73" y="313" type="curve" smooth="yes"/>
      <point x="73" y="515"/>
      <point x="119" y="574"/>
      <point x="171" y="574" type="curve" smooth="yes"/>
      <point x="212" y="574"/>
      <point x="236" y="530"/>
      <point x="252" y="485" type="curve"/>
      <point x="252" y="129" type="line"/>
      <point x="243" y="85"/>
      <point x="214" y="54"/>
    </contour>
  </outline>
</glyph>
<glyph name="oe" format="1">
  <advance width="500"/>
  <unicode hex="0153"/>
  <outline>
    <contour>
      <point x="372" y="-12" type="curve" smooth="yes"/>
      <point x="418" y="-12"/>
      <point x="459" y="6"/>
      <point x="494" y="42" type="curve"/>
      <point x="459" y="85" type="line"/>
      <point x="436" y="60"/>
      <point x="404" y="47"/>
      <point x="363" y="47" type="curve" smooth="yes"/>
      <point x="299" y="47"/>
      <point x="265" y="78"/>
      <point x="262" y="221" type="curve"/>
      <point x="490" y="221" type="line"/>
      <point x="490" y="283" type="line" smooth="yes"/>
      <point x="490" y="404"/>
      <point x="440" y="466"/>
      <point x="356" y="466" type="curve" smooth="yes"/>
      <point x="315" y="466"/>
      <point x="281" y="451"/>
      <point x="255" y="420" type="curve"/>
      <point x="232" y="451"/>
      <point x="201" y="466"/>
      <point x="161" y="466" type="curve" smooth="yes"/>
      <point x="81" y="466"/>
      <point x="6" y="404"/>
      <point x="6" y="228" type="curve" smooth="yes"/>
      <point x="6" y="36"/>
      <point x="88" y="-11"/>
      <point x="154" y="-11" type="curve" smooth="yes"/>
      <point x="191" y="-11"/>
      <point x="224" y="2"/>
      <point x="253" y="29" type="curve"/>
      <point x="286" y="2"/>
      <point x="326" y="-12"/>
    </contour>
    <contour>
      <point x="163" y="50" type="curve" smooth="yes"/>
      <point x="103" y="50"/>
      <point x="66" y="111"/>
      <point x="66" y="239" type="curve" smooth="yes"/>
      <point x="66" y="361"/>
      <point x="114" y="406"/>
      <point x="161" y="406" type="curve" smooth="yes"/>
      <point x="188" y="406"/>
      <point x="209" y="387"/>
      <point x="209" y="362" type="curve" smooth="yes"/>
      <point x="209" y="353"/>
      <point x="200" y="315"/>
      <point x="200" y="238" type="curve" smooth="yes"/>
      <point x="200" y="202"/>
      <point x="202" y="159"/>
      <point x="210" y="112" type="curve" smooth="yes"/>
      <point x="212" y="99"/>
      <point x="213" y="91"/>
      <point x="213" y="89" type="curve" smooth="yes"/>
      <point x="213" y="65"/>
      <point x="190" y="50"/>
    </contour>
    <contour>
      <point x="263" y="278" type="line"/>
      <point x="263" y="364"/>
      <point x="298" y="411"/>
      <point x="350" y="411" type="curve" smooth="yes"/>
      <point x="408" y="411"/>
      <point x="431" y="373"/>
      <point x="431" y="278" type="curve"/>
    </contour>
  </outline>
</glyph>
<glyph name="tbar" format="1">
  <advance width="500"/>
  <unicode hex="0167"/>
  <outline>
    <contour>
      <point x="61" y="220" type="line"/>
      <point x="390" y="220" type="line"/>
      <point x="390" y="277" type="line"/>
      <point x="61" y="277" type="line"/>
    </contour>
    <component base="t"/>
  </outline>
</glyph>
<glyph name="florin" format="1">
  <advance width="500"/>
  <unicode hex="0192"/>
  <outline>
    <contour>
      <point x="100" y="-175" type="curve" smooth="yes"/>
      <point x="175" y="-175"/>
      <point x="233" y="-123"/>
      <point x="246" y="24" type="curve"/>
      <point x="270" y="326" type="line"/>
      <point x="398" y="326" type="line"/>
      <point x="398" y="383" type="line"/>
      <point x="275" y="383" type="line"/>
      <point x="281" y="465" type="line" smooth="yes"/>
      <point x="289" y="588"/>
      <point x="320" y="616"/>
      <point x="369" y="616" type="curve" smooth="yes"/>
      <point x="400" y="616"/>
      <point x="433" y="595"/>
      <point x="438" y="564" type="curve" smooth="yes"/>
      <point x="439" y="557"/>
      <point x="442" y="554"/>
      <point x="447" y="554" type="curve"/>
      <point x="480" y="620" type="line"/>
      <point x="451" y="655"/>
      <point x="413" y="673"/>
      <point x="368" y="673" type="curve" smooth="yes"/>
      <point x="280" y="673"/>
      <point x="223" y="612"/>
      <point x="212" y="475" type="curve" smooth="yes"/>
      <point x="205" y="383" type="line"/>
      <point x="80" y="383" type="line"/>
      <point x="80" y="326" type="line"/>
      <point x="201" y="326" type="line"/>
      <point x="179" y="27" type="line" smooth="yes"/>
      <point x="172" y="-62"/>
      <point x="146" y="-108"/>
      <point x="109" y="-108" type="curve" smooth="yes"/>
      <point x="72" y="-108"/>
      <point x="68" y="-79"/>
      <point x="59" y="-76" type="curve"/>
      <point x="18" y="-140" type="line"/>
      <point x="40" y="-163"/>
      <point x="67" y="-175"/>
    </contour>
  </outline>
</glyph>
<glyph name="Khook" format="1">
  <advance width="500"/>
  <unicode hex="0198"/>
  <outline>
    <contour>
      <point x="42" y="0" type="line"/>
      <point x="117" y="0" type="line"/>
      <point x="117" y="238" type="line"/>
      <point x="312" y="535"/>
      <point x="383" y="556"/>
      <point x="418" y="556" type="curve" smooth="yes"/>
      <point x="443" y="556"/>
      <point x="449" y="554"/>
      <point x="465" y="550" type="curve" name="_corner00"/>
      <point x="466" y="623" type="line"/>
      <point x="455" y="626"/>
      <point x="443" y="627"/>
      <point x="431" y="627" type="curve" smooth="yes"/>
      <point x="346" y="627"/>
      <point x="246" y="551"/>
      <point x="117" y="326" type="curve"/>
      <point x="117" y="623" type="line" name="_corner01"/>
      <point x="42" y="623" type="line"/>
    </contour>
    <contour>
      <point x="381" y="-4" type="line"/>
      <point x="471" y="0" type="line"/>
      <point x="198" y="384" type="line"/>
      <point x="145" y="342" type="line"/>
    </contour>
  </outline>
</glyph>
<glyph name="Uhorn" format="1">
  <advance width="500"/>
  <unicode hex="01AF"/>
  <outline>
    <component base="U.i"/>
    <component base="horncomb.case"/>
    <contour>
      <point x="222" y="0" type="move" name="bottom"/>
    </contour>
    <contour>
      <point x="223" y="623" type="move" name="top"/>
    </contour>
  </outline>
</glyph>
<glyph name="uhorn" format="1">
  <advance width="500"/>
  <unicode hex="01B0"/>
  <outline>
    <component base="u.i"/>
    <component base="horncomb" xOffset="-15"/>
    <contour>
      <point x="220" y="0" type="move" name="bottom"/>
    </contour>
    <contour>
      <point x="230" y="457" type="move" name="top"/>
    </contour>
  </outline>
</glyph>
<glyph name="Ezhreversed" format="1">
  <advance width="500"/>
  <unicode hex="01B8"/>
  <outline>
    <contour>
      <point x="268" y="-11" type="curve" smooth="yes"/>
      <point x="331" y="-11"/>
      <point x="386" y="13"/>
      <point x="429" y="60" type="curve"/>
      <point x="387" y="114" type="line" name="_corner00"/>
      <point x="353" y="73"/>
      <point x="332" y="49"/>
      <point x="275" y="49" type="curve" smooth="yes"/>
      <point x="191" y="49"/>
      <point x="143" y="101"/>
      <point x="143" y="177" type="curve" smooth="yes"/>
      <point x="143" y="284"/>
      <point x="220" y="326"/>
      <point x="338" y="320" type="curve"/>
      <point x="338" y="372" type="line"/>
      <point x="273" y="372" type="line"/>
      <point x="153" y="371"/>
      <point x="71" y="281"/>
      <point x="71" y="172" type="curve" smooth="yes"/>
      <point x="71" y="75"/>
      <point x="137" y="-11"/>
    </contour>
    <contour>
      <point x="268" y="368" type="line"/>
      <point x="338" y="372" type="line"/>
      <point x="166" y="560" type="line"/>
      <point x="393" y="560" type="line"/>
      <point x="393" y="623" type="line" name="_corner00"/>
      <point x="88" y="623" type="line"/>
      <point x="88" y="560" type="line"/>
    </contour>
  </outline>
</glyph>
<glyph name="LJ" format="1">
  <advance width="500"/>
  <unicode hex="01C7"/>
  <outline>
    <contour>
      <point x="286" y="-151" type="curve" smooth="yes"/>
      <point x="373" y="-151"/>
      <point x="456" y="-91"/>
      <point x="451" y="69" type="curve"/>
      <point x="451" y="564" type="line"/>
      <point x="451" y="564" type="line"/>
      <point x="451" y="623" type="line"/>
      <point x="252" y="623" type="line"/>
      <point x="252" y="564" type="line"/>
      <point x="382" y="564" type="line"/>
      <point x="382" y="68" type="line" smooth="yes"/>
      <point x="382" y="-48"/>
      <point x="348" y="-89"/>
      <point x="285" y="-89" type="curve" smooth="yes"/>
      <point x="245" y="-89"/>
      <point x="215" y="-70"/>
      <point x="205" y="-57" type="curve" smooth="yes"/>
      <point x="193" y="-44"/>
      <point x="198" y="-34"/>
      <point x="186" y="-25" type="curve"/>
      <point x="139" y="-82" type="line"/>
      <point x="178" y="-128"/>
      <point x="227" y="-151"/>
    </contour>
    <contour>
      <point x="66" y="0" type="line"/>
      <point x="309" y="0" type="line"/>
      <point x="309" y="61" type="line"/>
      <point x="139" y="61" type="line"/>
      <point x="139" y="589" type="line" smooth="yes"/>
      <point x="139" y="601"/>
      <point x="148" y="609"/>
      <point x="148" y="623" type="curve"/>
      <point x="66" y="623" type="line"/>
    </contour>
  </outline>
</glyph>
<glyph name="Lj" format="1">
  <advance width="500"/>
  <unicode hex="01C8"/>
  <outline>
    <contour>
      <point x="248" y="-174" type="curve" smooth="yes"/>
      <point x="349" y="-169"/>
      <point x="429" y="-117"/>
      <point x="429" y="22" type="curve" smooth="yes"/>
      <point x="429" y="457" type="line"/>
      <point x="216" y="457" type="line"/>
      <point x="216" y="398" type="line"/>
      <point x="356" y="398" type="line"/>
      <point x="356" y="18" type="line" smooth="yes"/>
      <point x="356" y="-74"/>
      <point x="313" y="-112"/>
      <point x="253" y="-112" type="curve" smooth="yes"/>
      <point x="236" y="-112"/>
      <point x="221" y="-108"/>
      <point x="206" y="-101" type="curve" smooth="yes"/>
      <point x="156" y="-78"/>
      <point x="169" y="-62"/>
      <point x="155" y="-48" type="curve"/>
      <point x="108" y="-110" type="line"/>
      <point x="143" y="-153"/>
      <point x="189" y="-174"/>
    </contour>
    <contour>
      <point x="66" y="0" type="line"/>
      <point x="299" y="0" type="line"/>
      <point x="299" y="61" type="line"/>
      <point x="139" y="61" type="line"/>
      <point x="139" y="589" type="line" smooth="yes"/>
      <point x="139" y="601"/>
      <point x="148" y="609"/>
      <point x="148" y="623" type="curve"/>
      <point x="66" y="623" type="line"/>
    </contour>
    <component base="dotaccent" xOffset="129" yOffset="-1"/>
  </outline>
</glyph>
<glyph name="lj" format="1">
  <advance width="500"/>
  <unicode hex="01C9"/>
  <outline>
    <contour>
      <point x="248" y="-174" type="curve" smooth="yes"/>
      <point x="349" y="-169"/>
      <point x="429" y="-117"/>
      <point x="429" y="22" type="curve" smooth="yes"/>
      <point x="429" y="457" type="line"/>
      <point x="216" y="457" type="line"/>
      <point x="216" y="398" type="line"/>
      <point x="356" y="398" type="line"/>
      <point x="356" y="18" type="line" smooth="yes"/>
      <point x="356" y="-74"/>
      <point x="313" y="-112"/>
      <point x="253" y="-112" type="curve" smooth="yes"/>
      <point x="236" y="-112"/>
      <point x="221" y="-108"/>
      <point x="206" y="-101" type="curve" smooth="yes"/>
      <point x="156" y="-78"/>
      <point x="169" y="-62"/>
      <point x="155" y="-48" type="curve"/>
      <point x="108" y="-110" type="line"/>
      <point x="143" y="-153"/>
      <point x="189" y="-174"/>
    </contour>
    <contour>
      <point x="19" y="0" type="line"/>
      <point x="281" y="0" type="line"/>
      <point x="281" y="58" type="line"/>
      <point x="157" y="58" type="line"/>
      <point x="157" y="665" type="line"/>
      <point x="25" y="665" type="line"/>
      <point x="25" y="607" type="line"/>
      <point x="84" y="607" type="line"/>
      <point x="84" y="58" type="line"/>
      <point x="19" y="58" type="line"/>
    </contour>
    <component base="dotaccent" xOffset="128"/>
  </outline>
</glyph>
<glyph name="jdotless" format="1">
  <advance width="500"/>
  <unicode hex="0237"/>
  <outline>
    <contour>
      <point x="194" y="-174" type="curve" smooth="yes"/>
      <point x="289" y="-174"/>
      <point x="369" y="-117"/>
      <point x="369" y="22" type="curve" smooth="yes"/>
      <point x="369" y="457" type="line"/>
      <point x="126" y="457" type="line"/>
      <point x="126" y="398" type="line"/>
      <point x="296" y="398" type="line"/>
      <point x="296" y="18" type="line" smooth="yes"/>
      <point x="296" y="-74"/>
      <point x="253" y="-112"/>
      <point x="193" y="-112" type="curve" smooth="yes"/>
      <point x="143" y="-112"/>
      <point x="113" y="-86"/>
      <point x="89" y="-55" type="curve" name="_corner00"/>
      <point x="48" y="-110" type="line"/>
      <point x="83" y="-153"/>
      <point x="136" y="-174"/>
    </contour>
    <contour>
      <point x="250" y="-190" type="move" name="bottom"/>
    </contour>
    <contour>
      <point x="328" y="457" type="move" name="top"/>
    </contour>
  </outline>
</glyph>
<glyph name="rstroke" format="1">
  <advance width="500"/>
  <unicode hex="024D"/>
  <outline>
    <contour>
      <point x="35" y="172" type="line"/>
      <point x="305" y="172" type="line"/>
      <point x="305" y="229" type="line"/>
      <point x="35" y="229" type="line"/>
    </contour>
    <component base="r"/>
  </outline>
</glyph>
<glyph name="ccurl" format="1">
  <advance width="500"/>
  <unicode hex="0255"/>
  <outline>
    <contour>
      <point x="285" y="-11" type="curve"/>
      <point x="349" y="-11"/>
      <point x="409" y="13"/>
      <point x="449" y="60" type="curve" smooth="yes"/>
      <point x="484" y="101"/>
      <point x="490" y="175"/>
      <point x="416" y="215" type="curve" smooth="yes"/>
      <point x="361" y="245"/>
      <point x="281" y="229"/>
      <point x="231" y="185" type="curve" smooth="yes"/>
      <point x="155" y="120"/>
      <point x="110" y="46"/>
      <point x="46" y="-56" type="curve"/>
      <point x="101" y="-92" type="line"/>
      <point x="160" y="6"/>
      <point x="186" y="55"/>
      <point x="238" y="113" type="curve" smooth="yes"/>
      <point x="280" y="159"/>
      <point x="315" y="179"/>
      <point x="361" y="174" type="curve" smooth="yes"/>
      <point x="404" y="169"/>
      <point x="424" y="130"/>
      <point x="401" y="99" type="curve" smooth="yes"/>
      <point x="376" y="65"/>
      <point x="335" y="54"/>
      <point x="289" y="54" type="curve" smooth="yes"/>
      <point x="197" y="54"/>
      <point x="130" y="130"/>
      <point x="130" y="233" type="curve" smooth="yes"/>
      <point x="130" y="338"/>
      <point x="199" y="405"/>
      <point x="276" y="405" type="curve" smooth="yes"/>
      <point x="335" y="405"/>
      <point x="372" y="387"/>
      <point x="411" y="336" type="curve" name="_corner00"/>
      <point x="457" y="381" type="line"/>
      <point x="420" y="434"/>
      <point x="358" y="466"/>
      <point x="284" y="466" type="curve" smooth="yes"/>
      <point x="152" y="466"/>
      <point x="56" y="365"/>
      <point x="56" y="228" type="curve" smooth="yes"/>
      <point x="56" y="90"/>
      <point x="152" y="-11"/>
    </contour>
    <contour>
      <point x="286" y="0" type="move" name="bottom"/>
    </contour>
    <contour>
      <point x="286" y="457" type="move" name="top"/>
    </contour>
  </outline>
</glyph>
<glyph name="rhookturned" format="1">
  <advance width="500"/>
  <unicode hex="027B"/>
  <outline>
    <contour>
      <point x="396" y="-177" type="curve" smooth="yes"/>
      <point x="436" y="-177"/>
      <point x="466" y="-163"/>
      <point x="488" y="-139" type="curve"/>
      <point x="469" y="-91" type="line" name="_corner00"/>
      <point x="449" y="-107"/>
      <point x="427" y="-115"/>
      <point x="407" y="-115" type="curve" smooth="yes"/>
      <point x="371" y="-115"/>
      <point x="343" y="-89"/>
      <point x="343" y="-41" type="curve" smooth="yes"/>
      <point x="341" y="458" type="line"/>
      <point x="268" y="458" type="line"/>
      <point x="268" y="215" type="line" smooth="yes"/>
      <point x="268" y="100"/>
      <point x="200" y="51"/>
      <point x="138" y="51" type="curve" smooth="yes"/>
      <point x="103" y="51"/>
      <point x="83" y="63"/>
      <point x="55" y="96" type="curve" name="_corner01"/>
      <point x="25" y="39" type="line"/>
      <point x="59" y="6"/>
      <point x="90" y="-11"/>
      <point x="133" y="-11" type="curve" smooth="yes"/>
      <point x="190" y="-11"/>
      <point x="245" y="23"/>
      <point x="269" y="86" type="curve"/>
      <point x="268" y="-41" type="line" smooth="yes"/>
      <point x="267" y="-147"/>
      <point x="338" y="-177"/>
    </contour>
  </outline>
</glyph>
<glyph name="eopenclosed" format="1">
  <advance width="500"/>
  <unicode hex="029A"/>
  <outline>
    <contour>
      <point x="246" y="-8" type="curve" smooth="yes"/>
      <point x="376" y="-9"/>
      <point x="463" y="90"/>
      <point x="463" y="229" type="curve" smooth="yes"/>
      <point x="463" y="368"/>
      <point x="380" y="467"/>
      <point x="254" y="467" type="curve" smooth="yes"/>
      <point x="157" y="467"/>
      <point x="83" y="416"/>
      <point x="83" y="344" type="curve" smooth="yes"/>
      <point x="83" y="306"/>
      <point x="104" y="274"/>
      <point x="143" y="252" type="curve"/>
      <point x="89" y="240"/>
      <point x="55" y="199"/>
      <point x="55" y="143" type="curve" smooth="yes"/>
      <point x="55" y="60"/>
      <point x="133" y="-7"/>
    </contour>
    <contour>
      <point x="246" y="52" type="curve" smooth="yes"/>
      <point x="182" y="52"/>
      <point x="133" y="86"/>
      <point x="133" y="137" type="curve" smooth="yes"/>
      <point x="133" y="189"/>
      <point x="178" y="214"/>
      <point x="239" y="214" type="curve" smooth="yes"/>
      <point x="252" y="214"/>
      <point x="262" y="212"/>
      <point x="275" y="211" type="curve"/>
      <point x="275" y="278" type="line"/>
      <point x="267" y="277"/>
      <point x="259" y="277"/>
      <point x="251" y="277" type="curve" smooth="yes"/>
      <point x="183" y="277"/>
      <point x="160" y="302"/>
      <point x="160" y="339" type="curve" smooth="yes"/>
      <point x="160" y="378"/>
      <point x="189" y="407"/>
      <point x="251" y="407" type="curve" smooth="yes"/>
      <point x="335" y="407"/>
      <point x="387" y="334"/>
      <point x="387" y="230" type="curve" smooth="yes"/>
      <point x="387" y="116"/>
      <point x="331" y="52"/>
    </contour>
  </outline>
</glyph>
<glyph name="apostrophemod" format="1">
  <advance width="500"/>
  <unicode hex="02BC"/>
  <outline>
    <contour>
      <point x="208" y="454" type="line"/>
      <point x="265" y="511"/>
      <point x="293" y="562"/>
      <point x="293" y="605" type="curve" smooth="yes"/>
      <point x="293" y="644"/>
      <point x="267" y="671"/>
      <point x="239" y="671" type="curve" smooth="yes"/>
      <point x="211" y="671"/>
      <point x="191" y="651"/>
      <point x="191" y="624" type="curve" smooth="yes"/>
      <point x="191" y="595"/>
      <point x="232" y="584"/>
      <point x="232" y="563" type="curve" smooth="yes"/>
      <point x="232" y="543"/>
      <point x="211" y="506"/>
      <point x="180" y="478" type="curve"/>
    </contour>
  </outline>
</glyph>
<glyph name="ringhalfleft" format="1">
  <advance width="500"/>
  <unicode hex="02BF"/>
  <outline>
    <contour>
      <point x="304" y="450" type="curve"/>
      <point x="304" y="498" type="line"/>
      <point x="273" y="498"/>
      <point x="248" y="526"/>
      <point x="248" y="558" type="curve" smooth="yes"/>
      <point x="248" y="590"/>
      <point x="274" y="619"/>
      <point x="305" y="619" type="curve"/>
      <point x="304" y="665" type="line"/>
      <point x="246" y="665"/>
      <point x="196" y="618"/>
      <point x="196" y="557" type="curve" smooth="yes"/>
      <point x="196" y="497"/>
      <point x="244" y="450"/>
    </contour>
  </outline>
</glyph>
<glyph name="circumflex" format="1">
  <advance width="500"/>
  <unicode hex="02C6"/>
  <outline>
    <contour>
      <point x="343" y="518" type="line"/>
      <point x="387" y="544" type="line"/>
      <point x="267" y="685" type="line"/>
      <point x="245" y="685" type="line"/>
      <point x="124" y="545" type="line"/>
      <point x="160" y="515" type="line"/>
      <point x="255" y="621" type="line"/>
    </contour>
  </outline>
</glyph>
<glyph name="caron" format="1">
  <advance width="500"/>
  <unicode hex="02C7"/>
  <outline>
    <contour>
      <point x="244" y="518" type="line"/>
      <point x="266" y="518" type="line"/>
      <point x="377" y="658" type="line"/>
      <point x="339" y="693" type="line"/>
      <point x="258" y="591" type="line"/>
      <point x="180" y="694" type="line"/>
      <point x="134" y="659" type="line"/>
    </contour>
  </outline>
</glyph>
<glyph name="verticallinemod" format="1">
  <advance width="500"/>
  <unicode hex="02C8"/>
  <outline>
    <contour>
      <point x="292" y="445" type="line"/>
      <point x="292" y="665" type="line"/>
      <point x="221" y="665" type="line"/>
      <point x="221" y="445" type="line"/>
    </contour>
  </outline>
</glyph>
<glyph name="firsttonechinese" format="1">
  <advance width="500"/>
  <unicode hex="02C9"/>
  <outline>
    <contour>
      <point x="123" y="565" type="line"/>
      <point x="377" y="565" type="line"/>
      <point x="377" y="621" type="line"/>
      <point x="123" y="621" type="line"/>
    </contour>
  </outline>
</glyph>
<glyph name="secondtonechinese" format="1">
  <advance width="500"/>
  <unicode hex="02CA"/>
  <outline>
    <contour>
      <point x="228" y="558" type="line"/>
      <point x="346" y="704" type="line"/>
      <point x="275" y="704" type="line"/>
      <point x="184" y="558" type="line"/>
    </contour>
  </outline>
</glyph>
<glyph name="fourthtonechinese" format="1">
  <advance width="500"/>
  <unicode hex="02CB"/>
  <outline>
    <contour>
      <point x="281" y="522" type="line"/>
      <point x="331" y="552" type="line"/>
      <point x="243" y="699" type="line"/>
      <point x="180" y="657" type="line"/>
    </contour>
  </outline>
</glyph>
<glyph name="verticallinelowmod" format="1">
  <advance width="500"/>
  <unicode hex="02CC"/>
  <outline>
    <contour>
      <point x="287" y="-190" type="line"/>
      <point x="287" y="30" type="line"/>
      <point x="214" y="30" type="line"/>
      <point x="214" y="-190" type="line"/>
    </contour>
  </outline>
</glyph>
<glyph name="breve" format="1">
  <advance width="500"/>
  <unicode hex="02D8"/>
  <outline>
    <contour>
      <point x="251" y="524" type="curve" smooth="yes"/>
      <point x="307" y="524"/>
      <point x="361" y="556"/>
      <point x="397" y="604" type="curve"/>
      <point x="369" y="646" type="line"/>
      <point x="332" y="599"/>
      <point x="293" y="576"/>
      <point x="250" y="576" type="curve" smooth="yes"/>
      <point x="203" y="576"/>
      <point x="162" y="606"/>
      <point x="137" y="646" type="curve"/>
      <point x="101" y="601" type="line"/>
      <point x="144" y="550"/>
      <point x="194" y="524"/>
    </contour>
  </outline>
</glyph>
<glyph name="dotaccent" format="1">
  <advance width="500"/>
  <unicode hex="02D9"/>
  <outline>
    <contour>
      <point x="254" y="553" type="curve" smooth="yes"/>
      <point x="282" y="553"/>
      <point x="306" y="576"/>
      <point x="306" y="604" type="curve" smooth="yes"/>
      <point x="306" y="632"/>
      <point x="282" y="656"/>
      <point x="254" y="656" type="curve" smooth="yes"/>
      <point x="225" y="656"/>
      <point x="203" y="633"/>
      <point x="203" y="604" type="curve" smooth="yes"/>
      <point x="203" y="576"/>
      <point x="226" y="553"/>
    </contour>
  </outline>
</glyph>
<glyph name="ring" format="1">
  <advance width="500"/>
  <unicode hex="02DA"/>
  <outline>
    <contour>
      <point x="256" y="517" type="curve" smooth="yes"/>
      <point x="305" y="517"/>
      <point x="348" y="557"/>
      <point x="348" y="605" type="curve" smooth="yes"/>
      <point x="348" y="654"/>
      <point x="306" y="693"/>
      <point x="256" y="693" type="curve" smooth="yes"/>
      <point x="208" y="693"/>
      <point x="165" y="653"/>
      <point x="165" y="605" type="curve" smooth="yes"/>
      <point x="165" y="557"/>
      <point x="208" y="517"/>
    </contour>
    <contour>
      <point x="257" y="560" type="curve" smooth="yes"/>
      <point x="234" y="560"/>
      <point x="216" y="581"/>
      <point x="216" y="606" type="curve" smooth="yes"/>
      <point x="216" y="631"/>
      <point x="234" y="652"/>
      <point x="257" y="652" type="curve" smooth="yes"/>
      <point x="280" y="652"/>
      <point x="299" y="631"/>
      <point x="299" y="606" type="curve" smooth="yes"/>
      <point x="299" y="581"/>
      <point x="280" y="560"/>
    </contour>
  </outline>
</glyph>
<glyph name="ogonek" format="1">
  <advance width="500"/>
  <unicode hex="02DB"/>
  <outline>
    <contour>
      <point x="357" y="-176" type="curve" smooth="yes"/>
      <point x="383" y="-176"/>
      <point x="405" y="-168"/>
      <point x="424" y="-153" type="curve"/>
      <point x="424" y="-107" type="line"/>
      <point x="405" y="-122"/>
      <point x="385" y="-130"/>
      <point x="366" y="-130" type="curve" smooth="yes"/>
      <point x="350" y="-130"/>
      <point x="338" y="-118"/>
      <point x="338" y="-102" type="curve" smooth="yes"/>
      <point x="338" y="-84"/>
      <point x="366" y="-50"/>
      <point x="422" y="0" type="curve"/>
      <point x="356" y="0" type="line"/>
      <point x="303" y="-43"/>
      <point x="276" y="-82"/>
      <point x="276" y="-115" type="curve" smooth="yes"/>
      <point x="276" y="-150"/>
      <point x="304" y="-176"/>
    </contour>
  </outline>
</glyph>
<glyph name="hungarumlaut" format="1">
  <advance width="500"/>
  <unicode hex="02DD"/>
  <outline>
    <contour>
      <point x="331" y="522" type="line"/>
      <point x="432" y="657" type="line"/>
      <point x="369" y="699" type="line"/>
      <point x="281" y="552" type="line"/>
    </contour>
    <contour>
      <point x="176" y="522" type="line"/>
      <point x="277" y="657" type="line"/>
      <point x="214" y="699" type="line"/>
      <point x="126" y="552" type="line"/>
    </contour>
  </outline>
</glyph>
<glyph name="gravecomb" format="1">
  <advance width="500"/>
  <unicode hex="0300"/>
  <outline>
    <component base="grave"/>
    <contour>
      <point x="261" y="457" type="move" name="_top"/>
    </contour>
    <contour>
      <point x="223" y="671" type="move" name="top"/>
    </contour>
  </outline>
</glyph>
<glyph name="acutecomb" format="1">
  <advance width="500"/>
  <unicode hex="0301"/>
  <outline>
    <component base="acute" yOffset="-15"/>
    <contour>
      <point x="261" y="457" type="move" name="_top"/>
    </contour>
    <contour>
      <point x="280" y="609" type="move" name="top"/>
    </contour>
  </outline>
</glyph>
<glyph name="circumflexcomb" format="1">
  <advance width="500"/>
  <unicode hex="0302"/>
  <outline>
    <contour>
      <point x="139" y="511" type="line"/>
      <point x="250" y="621" type="line"/>
      <point x="361" y="511" type="line"/>
      <point x="401" y="545" type="line"/>
      <point x="262" y="685" type="line"/>
      <point x="238" y="685" type="line"/>
      <point x="99" y="545" type="line"/>
    </contour>
    <contour>
      <point x="250" y="457" type="move" name="_top"/>
    </contour>
    <contour>
      <point x="395" y="568" type="move" name="top"/>
    </contour>
  </outline>
</glyph>
<glyph name="tildecomb" format="1">
  <advance width="500"/>
  <unicode hex="0303"/>
  <outline>
    <contour>
      <point x="385" y="677" type="line"/>
      <point x="366" y="640"/>
      <point x="355" y="629"/>
      <point x="334" y="629" type="curve" smooth="yes"/>
      <point x="286" y="629"/>
      <point x="263" y="683"/>
      <point x="204" y="683" type="curve" smooth="yes"/>
      <point x="152" y="683"/>
      <point x="119" y="648"/>
      <point x="101" y="603" type="curve"/>
      <point x="150" y="581" type="line"/>
      <point x="166" y="617"/>
      <point x="183" y="628"/>
      <point x="206" y="628" type="curve" smooth="yes"/>
      <point x="251" y="628"/>
      <point x="278" y="574"/>
      <point x="338" y="574" type="curve" smooth="yes"/>
      <point x="378" y="574"/>
      <point x="402" y="593"/>
      <point x="431" y="649" type="curve"/>
    </contour>
    <contour>
      <point x="260" y="457" type="move" name="_top"/>
    </contour>
    <contour>
      <point x="260" y="636" type="move" name="top"/>
    </contour>
  </outline>
</glyph>
<glyph name="macroncomb" format="1">
  <advance width="500"/>
  <unicode hex="0304"/>
  <outline>
    <component base="macron"/>
    <contour>
      <point x="250" y="457" type="move" name="_top"/>
    </contour>
    <contour>
      <point x="250" y="611" type="move" name="top"/>
    </contour>
  </outline>
</glyph>
<glyph name="brevecomb" format="1">
  <advance width="500"/>
  <unicode hex="0306"/>
  <outline>
    <contour>
      <point x="348" y="654" type="line"/>
      <point x="326" y="607"/>
      <point x="298" y="586"/>
      <point x="258" y="586" type="curve" smooth="yes"/>
      <point x="218" y="586"/>
      <point x="190" y="607"/>
      <point x="168" y="654" type="curve"/>
      <point x="116" y="630" type="line"/>
      <point x="146" y="571"/>
      <point x="196" y="538"/>
      <point x="258" y="538" type="curve" smooth="yes"/>
      <point x="320" y="538"/>
      <point x="370" y="571"/>
      <point x="400" y="630" type="curve"/>
    </contour>
    <contour>
      <point x="258" y="457" type="move" name="_top"/>
    </contour>
    <contour>
      <point x="258" y="654" type="move" name="top"/>
    </contour>
  </outline>
</glyph>
<glyph name="dotaccentcomb" format="1">
  <advance width="500"/>
  <unicode hex="0307"/>
  <outline>
    <component base="dotaccent"/>
    <contour>
      <point x="255" y="457" type="move" name="_top"/>
    </contour>
    <contour>
      <point x="255" y="605" type="move" name="top"/>
    </contour>
  </outline>
</glyph>
<glyph name="hookabovecomb" format="1">
  <advance width="500"/>
  <unicode hex="0309"/>
  <outline>
    <contour>
      <point x="320" y="630" type="curve" smooth="yes"/>
      <point x="320" y="676"/>
      <point x="283" y="704"/>
      <point x="239" y="704" type="curve" smooth="yes"/>
      <point x="203" y="704"/>
      <point x="177" y="692"/>
      <point x="153" y="662" type="curve"/>
      <point x="190" y="624" type="line"/>
      <point x="198" y="650"/>
      <point x="217" y="656"/>
      <point x="234" y="656" type="curve" smooth="yes"/>
      <point x="251" y="656"/>
      <point x="265" y="646"/>
      <point x="265" y="628" type="curve" smooth="yes"/>
      <point x="265" y="604"/>
      <point x="213" y="585"/>
      <point x="213" y="551" type="curve" smooth="yes"/>
      <point x="213" y="523" type="line"/>
      <point x="264" y="523" type="line"/>
      <point x="264" y="530" type="line" smooth="yes"/>
      <point x="264" y="580"/>
      <point x="320" y="574"/>
    </contour>
    <contour>
      <point x="235" y="457" type="move" name="_top"/>
    </contour>
    <contour>
      <point x="241" y="671" type="move" name="top"/>
    </contour>
  </outline>
</glyph>
<glyph name="ringcomb" format="1">
  <advance width="500"/>
  <unicode hex="030A"/>
  <outline>
    <component base="ring"/>
    <contour>
      <point x="257" y="457" type="move" name="_top"/>
    </contour>
    <contour>
      <point x="257" y="693" type="move" name="top"/>
    </contour>
  </outline>
</glyph>
<glyph name="hungarumlautcomb" format="1">
  <advance width="500"/>
  <unicode hex="030B"/>
  <outline>
    <component base="hungarumlaut"/>
    <contour>
      <point x="239" y="457" type="move" name="_top"/>
    </contour>
    <contour>
      <point x="279" y="699" type="move" name="top"/>
    </contour>
  </outline>
</glyph>
<glyph name="caroncomb" format="1">
  <advance width="500"/>
  <unicode hex="030C"/>
  <outline>
    <component base="circumflexcomb" yScale="-1" xOffset="5" yOffset="1199"/>
    <contour>
      <point x="256" y="457" type="move" name="_top"/>
    </contour>
    <contour>
      <point x="256" y="604" type="move" name="top"/>
    </contour>
  </outline>
</glyph>
<glyph name="breveinvertedcomb" format="1">
  <advance width="500"/>
  <unicode hex="0311"/>
  <outline>
    <component base="brevecomb" yScale="-1" yOffset="1182"/>
    <contour>
      <point x="258" y="457" type="move" name="_top"/>
    </contour>
    <contour>
      <point x="258" y="644" type="move" name="top"/>
    </contour>
  </outline>
</glyph>
<glyph name="horncomb" format="1">
  <advance width="500"/>
  <unicode hex="031B"/>
  <outline>
    <contour>
      <point x="476" y="408"/>
      <point x="490" y="444"/>
      <point x="490" y="541" type="curve"/>
      <point x="426" y="541" type="line"/>
      <point x="426" y="471"/>
      <point x="417" y="457"/>
      <point x="396" y="457" type="curve"/>
      <point x="396" y="408" type="line"/>
    </contour>
    <contour>
      <point x="396" y="457" type="move" name="_topright"/>
    </contour>
    <contour>
      <point x="396" y="457" type="move" name="topright"/>
    </contour>
  </outline>
</glyph>
<glyph name="dotbelowcomb" format="1">
  <advance width="500"/>
  <unicode hex="0323"/>
  <outline>
    <component base="period" xScale="0.9" yScale="0.9" xOffset="22" yOffset="-150"/>
    <contour>
      <point x="239" y="0" type="move" name="_bottom"/>
    </contour>
    <contour>
      <point x="239" y="-171" type="move" name="bottom"/>
    </contour>
  </outline>
</glyph>
<glyph name="ogonekcomb" format="1">
  <advance width="500"/>
  <unicode hex="0328"/>
  <outline>
    <contour>
      <point x="279" y="-179" type="line"/>
      <point x="236" y="-173"/>
      <point x="217" y="-151"/>
      <point x="217" y="-123" type="curve" smooth="yes"/>
      <point x="217" y="-87"/>
      <point x="248" y="-40"/>
      <point x="299" y="0" type="curve"/>
      <point x="272.299" y="16.729" type="line"/>
      <point x="194" y="-29"/>
      <point x="151" y="-84"/>
      <point x="151" y="-137" type="curve" smooth="yes"/>
      <point x="151" y="-188"/>
      <point x="197" y="-218"/>
      <point x="263.094" y="-226.974" type="curve"/>
    </contour>
    <contour>
      <point x="249" y="0" type="move" name="_ogonek"/>
    </contour>
  </outline>
</glyph>
<glyph name="brevebelowcomb" format="1">
  <advance width="500"/>
  <unicode hex="032E"/>
  <outline>
    <component base="brevecomb" yOffset="-713"/>
    <contour>
      <point x="248" y="0" type="move" name="_bottom"/>
    </contour>
    <contour>
      <point x="248" y="-188" type="move" name="bottom"/>
    </contour>
  </outline>
</glyph>
<glyph name="macronbelowcomb" format="1">
  <advance width="500"/>
  <unicode hex="0331"/>
  <outline>
    <component base="macroncomb" yOffset="-720"/>
    <contour>
      <point x="248" y="0" type="move" name="_bottom"/>
    </contour>
    <contour>
      <point x="248" y="-166" type="move" name="bottom"/>
    </contour>
  </outline>
</glyph>
<glyph name="strokeshortcomb" format="1">
  <advance width="500"/>
  <unicode hex="0335"/>
  <outline>
    <contour>
      <point x="121" y="286" type="line"/>
      <point x="391" y="286" type="line"/>
      <point x="391" y="343" type="line"/>
      <point x="121" y="343" type="line"/>
    </contour>
    <contour>
      <point x="251" y="315" type="move" name="_center"/>
    </contour>
  </outline>
</glyph>
<glyph name="strokelongcomb" format="1">
  <advance width="500"/>
  <unicode hex="0336"/>
  <outline>
    <contour>
      <point x="15" y="286" type="line"/>
      <point x="485" y="286" type="line"/>
      <point x="485" y="343" type="line"/>
      <point x="15" y="343" type="line"/>
    </contour>
    <contour>
      <point x="256" y="315" type="move" name="_center"/>
    </contour>
  </outline>
</glyph>
<glyph name="lowernumeral-greek" format="1">
  <advance width="500"/>
  <unicode hex="0375"/>
  <outline>
    <contour>
      <point x="217" y="-76" type="line"/>
      <point x="306" y="104" type="line"/>
      <point x="235" y="104" type="line"/>
      <point x="173" y="-76" type="line"/>
    </contour>
  </outline>
</glyph>
<glyph name="Delta" format="1">
  <advance width="500"/>
  <unicode hex="0394"/>
  <outline>
    <contour>
      <point x="16" y="0" type="line"/>
      <point x="484" y="0" type="line"/>
      <point x="254" y="634" type="line"/>
      <point x="246" y="634" type="line"/>
    </contour>
    <contour>
      <point x="393" y="56" type="line"/>
      <point x="105" y="56" type="line"/>
      <point x="249" y="474" type="line"/>
    </contour>
    <contour>
      <point x="250" y="0" type="move" name="bottom"/>
    </contour>
    <contour>
      <point x="414" y="0" type="move" name="ogonek"/>
    </contour>
    <contour>
      <point x="250" y="623" type="move" name="top"/>
    </contour>
  </outline>
</glyph>
<glyph name="Pi" format="1">
  <advance width="500"/>
  <unicode hex="03A0"/>
  <outline>
    <contour>
      <point x="50" y="0" type="line"/>
      <point x="123" y="0" type="line"/>
      <point x="123" y="563" type="line"/>
      <point x="366" y="563" type="line"/>
      <point x="366" y="0" type="line"/>
      <point x="440" y="0" type="line"/>
      <point x="440" y="563" type="line"/>
      <point x="440" y="623" type="line" name="_corner00"/>
      <point x="377" y="623" type="line"/>
      <point x="133" y="623" type="line"/>
      <point x="50" y="623" type="line"/>
      <point x="50" y="563" type="line"/>
    </contour>
    <contour>
      <point x="250" y="0" type="move" name="bottom"/>
    </contour>
    <contour>
      <point x="250" y="312" type="move" name="center"/>
    </contour>
    <contour>
      <point x="250" y="623" type="move" name="top"/>
    </contour>
    <contour>
      <point x="20" y="623" type="move" name="topleft"/>
    </contour>
  </outline>
</glyph>
